<svg xmlns="http://www.w3.org/2000/svg" xmlns:xlink="http://www.w3.org/1999/xlink" xmlns:lucid="lucid" width="637.58" height="961"><g transform="translate(2138.2994068131497 12560)" lucid:page-tab-id="0_0"><path d="M-2500-13000h6000v3500h-6000z" fill="#fff"/><path d="M-1888-12380c-17.67 0-32 14.33-32 32v96c0 17.67 14.33 32 32 32h176c17.67 0 32-14.33 32-32v-96c0-17.67-14.33-32-32-32z" stroke="#000" stroke-width="2" fill="#fff"/><path d="M-1920-12336h240" stroke="#000" stroke-width="2" fill="none"/><use xlink:href="#a" transform="matrix(1,0,0,1,-1872,-12380) translate(11.561631944444457 30.08376736111111)"/><use xlink:href="#b" transform="matrix(1,0,0,1,-1896,-12320) translate(29.680555555555557 50.083767361111114)"/><use xlink:href="#c" transform="matrix(1,0,0,1,-1896,-12320) translate(62.861979166666664 50.083767361111114)"/><use xlink:href="#d" transform="matrix(1,0,0,1,-1896,-12320) translate(77.11979166666666 50.083767361111114)"/><path d="M-1840-12480c0 11.05-8.95 20-20 20s-20-8.95-20-20 8.95-20 20-20 20 8.95 20 20z" stroke="#000" stroke-width="2"/><path d="M-1838.5-12480l1.82.06 2.1.16 1.96.24 1.8.33 1.68.37 1.57.45 1.5.5 1.4.57 1.35.6 1.3.68 1.24.73 1.2.8 1.18.86 1.14.93 1.13 1 1.1 1.1 1.1 1.2 1.08 1.33 1.08 1.46 1.07 1.6 1.08 1.82 1.07 2.05 1.08 2.32 1.08 2.67 1.1 3.1 1.06 3.7 1.05 4.48 1.03 5.55.94 7.2.8 10.13.5 18.3-.04 13.23" stroke="#3a414a" stroke-linejoin="round" fill="none"/><path d="M-1838.47-12480.46l-.03.95-.55-.03.05-.42-.02-.53z" stroke="#3a414a" stroke-width=".05" fill="#3a414a"/><path d="M-1789.95-12399.3l-10.05 17.3-9.95-17.35m9.95 17.35l.03-8.5" stroke="#3a414a" fill="none"/><path d="M-1980-12554a6 6 0 0 1 6-6h228a6 6 0 0 1 6 6v48a6 6 0 0 1-6 6h-228a6 6 0 0 1-6-6z" fill="none"/><use xlink:href="#e" transform="matrix(1,0,0,1,-1980,-12560) translate(62.62152777777777 36.467013888888886)"/><path d="M-1960-12080c-22.1 0-40 17.9-40 40v120c0 22.1 17.9 40 40 40h320c22.1 0 40-17.9 40-40v-120c0-22.1-17.9-40-40-40z" stroke="#000" stroke-width="2" fill="#fff"/><path d="M-2000-12036h400" stroke="#000" stroke-width="2" fill="none"/><use xlink:href="#f" transform="matrix(1,0,0,1,-1920,-12080) translate(57.62478298611111 30.08376736111111)"/><use xlink:href="#g" transform="matrix(1,0,0,1,-1920,-12080) translate(153.18684895833334 30.08376736111111)"/><use xlink:href="#h" transform="matrix(1,0,0,1,-1960,-12020) translate(13.830295138888886 37.818142361111114)"/><use xlink:href="#c" transform="matrix(1,0,0,1,-1960,-12020) translate(74.63758680555554 37.818142361111114)"/><use xlink:href="#i" transform="matrix(1,0,0,1,-1960,-12020) translate(88.89539930555554 37.818142361111114)"/><use xlink:href="#j" transform="matrix(1,0,0,1,-1960,-12020) translate(155.81163194444443 37.818142361111114)"/><use xlink:href="#k" transform="matrix(1,0,0,1,-1960,-12020) translate(194.00607638888889 37.818142361111114)"/><use xlink:href="#l" transform="matrix(1,0,0,1,-1960,-12020) translate(233.41579861111111 37.818142361111114)"/><use xlink:href="#m" transform="matrix(1,0,0,1,-1960,-12020) translate(274.22526041666663 37.818142361111114)"/><use xlink:href="#n" transform="matrix(1,0,0,1,-1960,-12020) translate(145.546875 70.08376736111111)"/><use xlink:href="#o" transform="matrix(1,0,0,1,-1960,-12020) translate(84.47374131944446 102.34939236111111)"/><use xlink:href="#p" transform="matrix(1,0,0,1,-1960,-12020) translate(117.65516493055557 102.34939236111111)"/><use xlink:href="#q" transform="matrix(1,0,0,1,-1960,-12020) translate(131.91297743055557 102.34939236111111)"/><use xlink:href="#r" transform="matrix(1,0,0,1,-1960,-12020) translate(189.58441840277777 102.34939236111111)"/><path d="M-1799.53-12090.44h-.94v-48.8h.94zm0-70.3h-.94v-57.76h.94z" stroke="#3a414a" stroke-width=".05" fill="#3a414a"/><path d="M-1799.53-12218.5h-.94v-.5h.94z" fill="#3a414a"/><path stroke="#3a414a" stroke-width=".05" fill="#3a414a"/><path d="M-1789.6-12099.08l-10.4 18.03-10.4-18.03.8-.48 9.13 15.8v-6.74h.94v6.73l9.12-15.8z" stroke="#3a414a" stroke-width=".05" fill="#3a414a"/><use xlink:href="#s" transform="matrix(1,0,0,1,-1846.3411458333333,-12160.754173343685) translate(0 17.22222222222222)"/><path d="M-1908-11760c-17.67 0-32 14.33-32 32v96c0 17.67 14.33 32 32 32h216c17.67 0 32-14.33 32-32v-96c0-17.67-14.33-32-32-32z" stroke="#000" stroke-width="2" fill="#fff"/><path d="M-1940-11716h280" stroke="#000" stroke-width="2" fill="none"/><use xlink:href="#f" transform="matrix(1,0,0,1,-1884,-11760) translate(10.340060763888886 30.08376736111111)"/><use xlink:href="#t" transform="matrix(1,0,0,1,-1884,-11760) translate(105.90212673611111 30.08376736111111)"/><use xlink:href="#h" transform="matrix(1,0,0,1,-1912,-11700) translate(18.385633680555557 21.52777777777778)"/><use xlink:href="#c" transform="matrix(1,0,0,1,-1912,-11700) translate(79.19292534722223 21.52777777777778)"/><use xlink:href="#l" transform="matrix(1,0,0,1,-1912,-11700) translate(93.45073784722221 21.52777777777778)"/><use xlink:href="#j" transform="matrix(1,0,0,1,-1912,-11700) translate(134.26019965277777 21.52777777777778)"/><use xlink:href="#u" transform="matrix(1,0,0,1,-1912,-11700) translate(172.45464409722223 21.52777777777778)"/><use xlink:href="#i" transform="matrix(1,0,0,1,-1912,-11700) translate(44.99153645833334 53.79340277777778)"/><use xlink:href="#j" transform="matrix(1,0,0,1,-1912,-11700) translate(111.90776909722223 53.79340277777778)"/><use xlink:href="#n" transform="matrix(1,0,0,1,-1912,-11700) translate(150.10221354166669 53.79340277777778)"/><use xlink:href="#b" transform="matrix(1,0,0,1,-1912,-11700) translate(35.20421006944444 86.05902777777777)"/><use xlink:href="#c" transform="matrix(1,0,0,1,-1912,-11700) translate(68.38563368055554 86.05902777777777)"/><use xlink:href="#v" transform="matrix(1,0,0,1,-1912,-11700) translate(82.64344618055554 86.05902777777777)"/><path d="M-1799.53-11770.44h-.94v-47.36h.94zm0-68.87h-.94v-39.2h.94z" stroke="#3a414a" stroke-width=".05" fill="#3a414a"/><path d="M-1799.53-11878.5h-.94v-.5h.94z" fill="#3a414a"/><path stroke="#3a414a" stroke-width=".05" fill="#3a414a"/><path d="M-1789.6-11779.08l-10.4 18.03-10.4-18.03.8-.48 9.13 15.8v-6.74h.94v6.73l9.12-15.8z" stroke="#3a414a" stroke-width=".05" fill="#3a414a"/><g><use xlink:href="#w" transform="matrix(1,0,0,1,-1821.4539930555559,-11839.305932971016) translate(0 17.22222222222222)"/></g><path d="M-1553.77-11774.16v.02l-4.5 10.1v.02h-.02l-4.6 9.32h-.02v.02l-4.67 8.5v.02l-4.67 7.7v.02l-4.62 6.96v.02l-4.54 6.24-4.44 5.6v.02l-4.32 5-4.2 4.47v.02l-4.08 3.97-3.96 3.57h-.02l-3.83 3.18v.02l-3.73 2.83-3.64 2.53-3.55 2.25-3.46 2h-.02l-3.38 1.78h-.02l-3.3 1.57h-.02l-3.26 1.38h-.02l-3.2 1.2h-.02l-3.17 1.03v.02l-3.14.87h-.02l-3.12.73-3.1.6h-.02l-3.1.45h-.02l-3.1.33h-.02l-3.1.2h-.02l-2.63.06v-.94l2.6-.06 3.1-.2 3.07-.32 3.07-.45 3.08-.6 3.1-.73 3.1-.86 3.16-1.02 3.18-1.2 3.24-1.35 3.3-1.55 3.35-1.75 3.43-2 3.52-2.22 3.6-2.5 3.7-2.8 3.83-3.17 3.93-3.54 4.05-3.98 4.2-4.45 4.3-4.98 4.4-5.6 4.52-6.2 4.6-6.95 4.66-7.7 4.66-8.48 4.62-9.3 4.5-10.1 3.2-8.13h1.03zm-33.9-205.4h.02l2.5.48h.02l2.4.57h.02l2.3.64 2.24.73 2.17.8h.02l2.1.9 2.04.95h.02l1.98 1.05h.02l1.94 1.13h.02l1.9 1.2v.02l1.88 1.3h.02l1.83 1.4h.02v.02l1.8 1.5h.02l1.78 1.62h.02l1.76 1.74h.02v.02l1.75 1.86v.02l1.75 2v.02l1.73 2.17 1.72 2.36 1.7 2.56 1.68 2.78 1.66 3.02v.02l1.63 3.28v.02l1.6 3.6h.02l1.55 3.94v.02l1.5 4.32h.02v.02l1.44 4.76v.02l1.35 5.25v.02l1.24 5.78v.02l1.08 6.4.9 7.06v.02l.65 7.76v.02l.35 8.5v9.32l-.42 10.06v.02l-.9 10.75v.02l-1.45 11.37-2 11.82v.02l-2.57 12.05-3.1 12.08v.02l-1.25 4.13h-1l1.34-4.4 3.1-12.05 2.55-12.03 2-11.8 1.42-11.33.9-10.73.43-10.04v-9.26l-.35-8.5-.65-7.74-.88-7.02-1.1-6.38-1.22-5.77-1.34-5.23-1.43-4.74-1.48-4.3-1.55-3.92-1.6-3.57-1.6-3.26-1.66-3-1.65-2.74-1.68-2.52-1.7-2.33-1.7-2.15-1.72-2-1.74-1.84-1.74-1.72-1.77-1.6-1.8-1.48-1.83-1.4-1.85-1.27-1.88-1.2-1.93-1.1-1.95-1.02-2-.95-2.1-.87-2.12-.8-2.2-.7-2.3-.65-2.36-.54-2.48-.48-1.86-.27.14-.93z" stroke="#3a414a" stroke-width=".05" fill="#3a414a"/><path d="M-1658.47-11679.54l-.53.02v-.95l.5-.02z" fill="#3a414a"/><path stroke="#3a414a" stroke-width=".05" fill="#3a414a"/><path d="M-1579.83-11988.3l-16.37 8 6.7.47-.05.95-6.72-.46 15.13 10.17-.53.8-17.28-11.63 18.7-9.16z" stroke="#3a414a" stroke-width=".05" fill="#3a414a"/><g><use xlink:href="#s" transform="matrix(1,0,0,1,-1593.4007305752268,-11804.168186132012) translate(0 17.22222222222222)"/></g><path d="M-2116.8-11959.25l1 23.53 1.88 22.56 2.7 21.3 3.35 19.9 3.9 18.36 4.32 16.84 4.63 15.36 4.86 13.95 5 12.64 5.1 11.44 5.13 10.36 5.15 9.38 5.15 8.5 5.12 7.7 5.08 7.02 5.05 6.38 5 5.8 5 5.3 4.93 4.84 4.9 4.42 4.9 4.04 4.86 3.7 4.87 3.38 4.85 3.1 4.88 2.8 4.9 2.57 4.94 2.32 4.98 2.1 5.04 1.87 5.1 1.66 5.2 1.45 5.3 1.24 5.42 1.04 5.56.83 5.72.6 2.6.16-.06.94-2.6-.16h-.02l-5.75-.6h-.02l-5.58-.83h-.02l-5.44-1.05-5.33-1.25h-.02l-5.2-1.46h-.02l-5.14-1.68h-.02l-5.07-1.9-5-2.1h-.02l-4.96-2.34h-.02l-4.92-2.58-4.9-2.83h-.02l-4.9-3.1v-.02l-4.9-3.4-4.9-3.72-4.9-4.06h-.02v-.02l-4.93-4.43v-.02l-4.95-4.85h-.02l-5-5.32v-.02l-5.02-5.8v-.02l-5.07-6.4-5.1-7.03h-.02v-.02l-5.13-7.73v-.02l-5.16-8.52-5.17-9.4v-.02l-5.16-10.4-5.1-11.47v-.02l-5.02-12.66v-.02l-4.87-13.98-4.64-15.4-4.34-16.87v-.02l-3.9-18.38v-.02l-3.37-19.9v-.02l-2.7-21.34v-.02l-1.9-22.57v-.02l-.98-23.55v-23.62h.95zm195.3-340.26l-5.64.1-5.97.38-5.84.6-5.72.86-5.6 1.07-5.54 1.3-5.47 1.53-5.4 1.76-5.4 2-5.34 2.24-5.35 2.5-5.34 2.8-5.35 3.1-5.38 3.42-5.42 3.76-5.46 4.15-5.53 4.57-5.58 5.03-5.67 5.54-5.73 6.12-5.8 6.74-5.9 7.44-5.98 8.23-6.05 9.1-6.1 10.08-6.13 11.17-6.12 12.35-6.08 13.66-5.95 15.06-5.77 16.55-5.46 18.07-5.03 19.62-4.47 21.06-3.78 22.37-2.96 23.4-2.02 24.05-.14 3.37h-.95l.14-3.42v-.02l2.02-24.07v-.02l2.95-23.4v-.02l3.78-22.4 4.48-21.1h.02v-.02l5.03-19.63v-.02l5.47-18.1v-.02l5.77-16.56v-.02l5.96-15.08v-.02l6.1-13.67v-.02l6.14-12.36v-.02l6.15-11.18v-.02l6.12-10.1 6.06-9.13v-.02l6-8.25 5.92-7.47v-.02l5.84-6.75v-.02l5.75-6.13 5.68-5.57h.02l5.6-5.05v-.02l5.54-4.57 5.5-4.17 5.44-3.8 5.4-3.43h.02l5.38-3.1v-.02h.02l5.36-2.8h.02l5.36-2.52 5.38-2.27h.02l5.4-2h.02l5.43-1.78h.02l5.48-1.53v-.02h.02l5.55-1.3h.02l5.63-1.08h.02l5.73-.85h.02l5.85-.62h.02l6-.38 5.66-.1z" stroke="#3a414a" stroke-width=".05" fill="#3a414a"/><path d="M-1921-12299.52h-.5l-.03-.94.53-.02z" fill="#3a414a"/><path stroke="#3a414a" stroke-width=".05" fill="#3a414a"/><path d="M-1941.05-11680l-18.4 9.76-.44-.84 16.1-8.54-6.7-.24.02-.95 6.73.23-15.46-9.67.5-.8z" stroke="#3a414a" stroke-width=".05" fill="#3a414a"/><g><use xlink:href="#w" transform="matrix(1,0,0,1,-2138.2994068131497,-12004.34976621479) translate(0 17.22222222222222)"/></g><defs><path d="M783 20c-382 0-661-292-661-764 0-473 279-766 661-766 302 0 548 182 601 489h-190c-42-204-217-313-411-313-268 0-476 208-476 590 0 381 209 588 476 588 195 0 369-110 411-313h190c-52 303-296 489-601 489" id="x"/><path d="M613 24c-304 0-509-231-509-576 0-350 205-580 509-580 305 0 511 230 511 580 0 345-206 576-511 576zm0-161c226 0 329-195 329-415 0-222-103-419-329-419-223 0-326 196-326 419 0 220 103 415 326 415" id="y"/><path d="M338-670V0H158v-1118h173l1 207c72-158 192-221 342-221 226 0 378 139 378 422V0H872v-695c0-172-96-275-252-275-161 0-282 109-282 300" id="z"/><path d="M628 24c-324 0-524-230-524-574 0-343 198-582 503-582 237 0 487 146 487 559v75H286c9 234 145 362 343 362 132 0 231-58 273-172l174 48C1024-91 857 24 628 24zM287-650h624c-17-190-120-322-304-322-192 0-309 151-320 322" id="A"/><path d="M613 24c-304 0-509-231-509-576 0-350 205-580 509-580 216 0 392 114 453 309l-173 49c-33-115-133-197-280-197-223 0-326 196-326 419 0 220 103 415 326 415 150 0 252-85 285-206l172 49C1010-95 832 24 613 24" id="B"/><path d="M598-1118v154H368v674c0 100 37 144 132 144 23 0 62-6 92-12L629-6c-37 13-88 20-134 20-193 0-307-107-307-290v-688H20v-154h168v-266h180v266h230" id="C"/><path d="M158 0v-1118h180V0H158zm91-1301c-68 0-125-53-125-119s57-119 125-119c69 0 126 53 126 119s-57 119-126 119" id="D"/><path d="M611 442c-248 0-391-105-460-228l146-94c47 65 117 165 314 165 178 0 307-82 307-266v-224h-17C863-141 792-18 576-18c-268 0-472-195-472-546 0-346 197-568 476-568 216 0 288 133 326 193h17v-179h175V29c0 289-215 413-487 413zm-5-620c203 0 314-146 314-390 0-237-108-403-314-403-213 0-319 180-319 403 0 230 109 390 319 390" id="E"/><g id="a"><use transform="matrix(0.010850694444444444,0,0,0.010850694444444444,0,0)" xlink:href="#x"/><use transform="matrix(0.010850694444444444,0,0,0.010850694444444444,16.23263888888889,0)" xlink:href="#y"/><use transform="matrix(0.010850694444444444,0,0,0.010850694444444444,29.557291666666664,0)" xlink:href="#z"/><use transform="matrix(0.010850694444444444,0,0,0.010850694444444444,42.68663194444444,0)" xlink:href="#z"/><use transform="matrix(0.010850694444444444,0,0,0.010850694444444444,55.81597222222222,0)" xlink:href="#A"/><use transform="matrix(0.010850694444444444,0,0,0.010850694444444444,68.77170138888889,0)" xlink:href="#B"/><use transform="matrix(0.010850694444444444,0,0,0.010850694444444444,81.46701388888889,0)" xlink:href="#C"/><use transform="matrix(0.010850694444444444,0,0,0.010850694444444444,88.73697916666666,0)" xlink:href="#D"/><use transform="matrix(0.010850694444444444,0,0,0.010850694444444444,94.11892361111111,0)" xlink:href="#z"/><use transform="matrix(0.010850694444444444,0,0,0.010850694444444444,107.24826388888887,0)" xlink:href="#E"/></g><path d="M577 24c-279 0-473-224-473-580 0-354 195-576 474-576 218 0 287 134 324 193h14v-551h180V0H922v-173h-20C865-111 790 24 577 24zm27-161c203 0 314-172 314-421 0-247-108-413-314-413-212 0-317 181-317 413 0 235 108 421 317 421" id="F"/><g id="b"><use transform="matrix(0.010850694444444444,0,0,0.010850694444444444,0,0)" xlink:href="#F"/><use transform="matrix(0.010850694444444444,0,0,0.010850694444444444,13.606770833333332,0)" xlink:href="#y"/></g><path d="M692-1560L212 224H46l480-1784h166" id="G"/><use transform="matrix(0.010850694444444444,0,0,0.010850694444444444,0,0)" xlink:href="#G" id="c"/><g id="d"><use transform="matrix(0.010850694444444444,0,0,0.010850694444444444,0,0)" xlink:href="#B"/><use transform="matrix(0.010850694444444444,0,0,0.010850694444444444,12.6953125,0)" xlink:href="#y"/><use transform="matrix(0.010850694444444444,0,0,0.010850694444444444,26.01996527777778,0)" xlink:href="#z"/><use transform="matrix(0.010850694444444444,0,0,0.010850694444444444,39.14930555555556,0)" xlink:href="#z"/><use transform="matrix(0.010850694444444444,0,0,0.010850694444444444,52.27864583333333,0)" xlink:href="#A"/><use transform="matrix(0.010850694444444444,0,0,0.010850694444444444,65.234375,0)" xlink:href="#B"/><use transform="matrix(0.010850694444444444,0,0,0.010850694444444444,77.9296875,0)" xlink:href="#C"/></g><path fill="#333" d="M135 0v-1490h340l471 754c59 97 122 210 187 365-32-387-14-721-19-1119h312V0h-341C855-382 627-689 427-1113c32 420 16 695 20 1113H135" id="H"/><path fill="#333" d="M633 22C291 22 81-200 81-553c0-345 210-579 537-579 292 0 525 185 525 567v84H378c7 183 109 277 260 277 105 0 184-46 216-132l272 51C1071-99 893 22 633 22zM380-669h474c-15-146-94-237-233-237-143 0-229 99-241 237" id="I"/><path fill="#333" d="M683-1118v229H474v562c0 71 29 104 102 104 23 0 73-7 95-13l43 225C647 9 580 16 520 16 296 16 174-96 174-301v-588H20v-229h154v-266h300v266h209" id="J"/><path fill="#333" d="M361 0L31-1118h315c68 295 127 523 188 845 63-317 128-551 199-845h276c71 296 131 525 196 846 57-321 119-552 186-846h319L1378 0h-305c-73-261-148-486-204-771C813-484 740-261 666 0H361" id="K"/><path fill="#333" d="M628 22C291 22 81-210 81-554c0-346 210-578 547-578 336 0 547 232 547 578 0 344-211 576-547 576zm0-236c160 0 242-146 242-341 0-197-82-341-242-341S387-753 387-555c0 195 81 341 241 341" id="L"/><path fill="#333" d="M128 0v-1118h290v195h12c54-169 184-238 367-200v268c-27-8-86-15-130-15-138 0-239 95-239 234V0H128" id="M"/><path fill="#333" d="M128 0v-1490h300v802h17l366-430h347L740-633 1179 0H826L514-456l-86 97V0H128" id="N"/><path fill="#333" d="M75-1237v-253h1217v253H837V0H531v-1237H75" id="O"/><path fill="#333" d="M440 22C227 22 68-92 68-313c0-250 202-322 422-343 195-21 271-24 271-105 0-95-63-149-175-149-116 0-187 57-211 129l-275-46c57-194 237-305 487-305 240 0 474 108 474 379V0H777v-155h-10C713-51 605 22 440 22zm85-211c140 0 238-93 238-211v-121c-37 26-156 42-222 51-111 16-185 59-185 149 0 87 70 132 169 132" id="P"/><path fill="#333" d="M572 22C302 22 117-98 78-306l279-48c29 105 101 156 224 156 114 0 185-48 185-115 0-118-228-130-337-155-215-49-322-150-322-317 0-215 187-347 470-347 265 0 424 116 466 298l-266 47c-24-76-87-130-196-130-98 0-174 46-174 113 0 56 38 95 144 117l201 40c216 44 320 143 320 302 0 220-207 367-500 367" id="Q"/><g id="e"><use transform="matrix(0.008680555555555556,0,0,0.008680555555555556,0,0)" xlink:href="#H"/><use transform="matrix(0.008680555555555556,0,0,0.008680555555555556,13.550347222222223,0)" xlink:href="#I"/><use transform="matrix(0.008680555555555556,0,0,0.008680555555555556,24.140625,0)" xlink:href="#J"/><use transform="matrix(0.008680555555555556,0,0,0.008680555555555556,31.006944444444446,0)" xlink:href="#K"/><use transform="matrix(0.008680555555555556,0,0,0.008680555555555556,45.876736111111114,0)" xlink:href="#L"/><use transform="matrix(0.008680555555555556,0,0,0.008680555555555556,56.77951388888889,0)" xlink:href="#M"/><use transform="matrix(0.008680555555555556,0,0,0.008680555555555556,64.296875,0)" xlink:href="#N"/><use transform="matrix(0.008680555555555556,0,0,0.008680555555555556,73.60243055555556,0)" xlink:href="#O"/><use transform="matrix(0.008680555555555556,0,0,0.008680555555555556,84.16666666666667,0)" xlink:href="#P"/><use transform="matrix(0.008680555555555556,0,0,0.008680555555555556,94.48784722222223,0)" xlink:href="#Q"/><use transform="matrix(0.008680555555555556,0,0,0.008680555555555556,104.44444444444447,0)" xlink:href="#N"/></g><path d="M180 0v-1490h224l606 953c40 63 108 177 176 312-27-437-7-821-13-1265h190V0h-226C860-448 622-778 356-1262c27 476 11 792 15 1262H180" id="R"/><path d="M409 0L70-1118h191c89 329 165 560 243 925 75-353 154-601 240-925h192c85 325 161 564 235 922 77-354 157-598 244-922h191L1267 0h-179c-86-307-176-590-250-913C763-588 675-308 588 0H409" id="S"/><path d="M158 0v-1118h174v172h12c41-113 157-188 290-188 26 0 70 2 91 3v181c-11-2-60-10-108-10-161 0-279 109-279 260V0H158" id="T"/><path d="M158 0v-1490h180v865h22l478-493h223L593-638 1096 0H865L456-523 338-412V0H158" id="U"/><g id="f"><use transform="matrix(0.010850694444444444,0,0,0.010850694444444444,0,0)" xlink:href="#R"/><use transform="matrix(0.010850694444444444,0,0,0.010850694444444444,16.74262152777778,0)" xlink:href="#A"/><use transform="matrix(0.010850694444444444,0,0,0.010850694444444444,29.698350694444443,0)" xlink:href="#C"/><use transform="matrix(0.010850694444444444,0,0,0.010850694444444444,37.29383680555555,0)" xlink:href="#S"/><use transform="matrix(0.010850694444444444,0,0,0.010850694444444444,55.078125,0)" xlink:href="#y"/><use transform="matrix(0.010850694444444444,0,0,0.010850694444444444,68.40277777777777,0)" xlink:href="#T"/><use transform="matrix(0.010850694444444444,0,0,0.010850694444444444,77.11588541666667,0)" xlink:href="#U"/></g><path d="M784 20c-382 0-662-292-662-764 0-473 280-766 662-766s660 293 660 766c0 472-278 764-660 764zm0-176c266 0 475-207 475-588 0-383-209-590-475-590-268 0-477 208-477 590 0 380 209 588 477 588" id="V"/><g id="g"><use transform="matrix(0.010850694444444444,0,0,0.010850694444444444,0,0)" xlink:href="#V"/><use transform="matrix(0.010850694444444444,0,0,0.010850694444444444,16.9921875,0)" xlink:href="#U"/></g><path d="M140 405l46-156c120 36 205 19 263-150l32-93L54-1118h197c107 313 237 620 324 950 87-331 219-637 326-950h196L606 167c-68 178-176 259-334 259-64 0-113-12-132-21" id="W"/><g id="h"><use transform="matrix(0.010850694444444444,0,0,0.010850694444444444,0,0)" xlink:href="#A"/><use transform="matrix(0.010850694444444444,0,0,0.010850694444444444,12.955729166666666,0)" xlink:href="#z"/><use transform="matrix(0.010850694444444444,0,0,0.010850694444444444,26.085069444444443,0)" xlink:href="#C"/><use transform="matrix(0.010850694444444444,0,0,0.010850694444444444,33.35503472222222,0)" xlink:href="#T"/><use transform="matrix(0.010850694444444444,0,0,0.010850694444444444,42.06814236111111,0)" xlink:href="#W"/></g><g id="i"><use transform="matrix(0.010850694444444444,0,0,0.010850694444444444,0,0)" xlink:href="#E"/><use transform="matrix(0.010850694444444444,0,0,0.010850694444444444,13.628472222222221,0)" xlink:href="#T"/><use transform="matrix(0.010850694444444444,0,0,0.010850694444444444,21.62543402777778,0)" xlink:href="#A"/><use transform="matrix(0.010850694444444444,0,0,0.010850694444444444,34.58116319444444,0)" xlink:href="#A"/><use transform="matrix(0.010850694444444444,0,0,0.010850694444444444,47.53689236111111,0)" xlink:href="#z"/></g><path d="M338-1490V0H158v-1490h180" id="X"/><g id="j"><use transform="matrix(0.010850694444444444,0,0,0.010850694444444444,0,0)" xlink:href="#X"/><use transform="matrix(0.010850694444444444,0,0,0.010850694444444444,5.381944444444445,0)" xlink:href="#A"/><use transform="matrix(0.010850694444444444,0,0,0.010850694444444444,18.33767361111111,0)" xlink:href="#F"/></g><path d="M128 359l88-567h206L266 359H128zM323-796c-75 0-135-60-135-135s60-135 135-135 135 60 135 135-60 135-135 135" id="Y"/><g id="k"><use transform="matrix(0.010850694444444444,0,0,0.010850694444444444,0,0)" xlink:href="#y"/><use transform="matrix(0.010850694444444444,0,0,0.010850694444444444,13.324652777777777,0)" xlink:href="#z"/><use transform="matrix(0.010850694444444444,0,0,0.010850694444444444,26.453993055555554,0)" xlink:href="#Y"/></g><g id="l"><use transform="matrix(0.010850694444444444,0,0,0.010850694444444444,0,0)" xlink:href="#T"/><use transform="matrix(0.010850694444444444,0,0,0.010850694444444444,7.996961805555555,0)" xlink:href="#A"/><use transform="matrix(0.010850694444444444,0,0,0.010850694444444444,20.95269097222222,0)" xlink:href="#F"/></g><g id="m"><use transform="matrix(0.010850694444444444,0,0,0.010850694444444444,0,0)" xlink:href="#X"/><use transform="matrix(0.010850694444444444,0,0,0.010850694444444444,5.381944444444445,0)" xlink:href="#A"/><use transform="matrix(0.010850694444444444,0,0,0.010850694444444444,18.33767361111111,0)" xlink:href="#F"/></g><path d="M678-1118v154H420V0H240v-964H20v-154h220v-149c0-194 155-293 318-293 85 0 141 18 168 30l-50 154c-19-6-47-17-97-17-111 0-159 58-159 166v109h258" id="Z"/><g id="n"><use transform="matrix(0.010850694444444444,0,0,0.010850694444444444,0,0)" xlink:href="#y"/><use transform="matrix(0.010850694444444444,0,0,0.010850694444444444,13.324652777777777,0)" xlink:href="#Z"/><use transform="matrix(0.010850694444444444,0,0,0.010850694444444444,20.68142361111111,0)" xlink:href="#Z"/></g><g id="o"><use transform="matrix(0.010850694444444444,0,0,0.010850694444444444,0,0)" xlink:href="#F"/><use transform="matrix(0.010850694444444444,0,0,0.010850694444444444,13.606770833333332,0)" xlink:href="#y"/></g><use transform="matrix(0.010850694444444444,0,0,0.010850694444444444,0,0)" xlink:href="#G" id="p"/><path d="M538 24C308 24 148-78 108-271l171-41c32 123 123 178 257 178 156 0 256-77 256-169 0-77-54-128-164-154l-186-44c-203-48-300-148-300-305 0-192 176-326 414-326 230 0 351 112 402 269l-163 42c-31-80-94-158-238-158-133 0-233 69-233 162 0 83 57 129 188 160l169 40c203 48 298 149 298 302 0 196-179 339-441 339" id="aa"/><g id="q"><use transform="matrix(0.010850694444444444,0,0,0.010850694444444444,0,0)" xlink:href="#aa"/><use transform="matrix(0.010850694444444444,0,0,0.010850694444444444,11.729600694444445,0)" xlink:href="#A"/><use transform="matrix(0.010850694444444444,0,0,0.010850694444444444,24.68532986111111,0)" xlink:href="#z"/><use transform="matrix(0.010850694444444444,0,0,0.010850694444444444,37.814670138888886,0)" xlink:href="#F"/></g><path d="M471 26C259 26 90-98 90-318c0-256 228-303 435-329 202-27 287-16 287-108 0-139-79-219-234-219-161 0-248 86-283 164l-173-57c86-203 278-265 451-265 150 0 419 46 419 395V0H815v-152h-12C765-73 660 26 471 26zm31-159c199 0 310-134 310-271v-155c-30 35-226 55-295 64-131 17-246 59-246 186 0 116 97 176 231 176" id="ab"/><g id="r"><use transform="matrix(0.010850694444444444,0,0,0.010850694444444444,0,0)" xlink:href="#F"/><use transform="matrix(0.010850694444444444,0,0,0.010850694444444444,13.606770833333332,0)" xlink:href="#ab"/><use transform="matrix(0.010850694444444444,0,0,0.010850694444444444,26.085069444444443,0)" xlink:href="#C"/><use transform="matrix(0.010850694444444444,0,0,0.010850694444444444,33.463541666666664,0)" xlink:href="#ab"/></g><path fill="#333" d="M628 22C291 22 81-210 81-554c0-346 210-578 547-578 265 0 455 142 497 372l-279 52c-25-116-99-188-215-188-160 0-244 139-244 341 0 200 84 341 244 341 116 0 193-74 217-195l279 51C1085-123 896 22 628 22" id="ac"/><path fill="#333" d="M428-647V0H128v-1118h283l4 231c63-156 176-245 348-245 232 0 384 159 384 421V0H847v-659c0-139-76-222-202-222-128 0-217 86-217 234" id="ad"/><path fill="#333" d="M537 19C279 19 81-185 81-557c0-382 206-575 454-575 190 0 278 113 318 202h10v-560h300V0H868v-179h-15C812-89 719 19 537 19zm92-241c153 0 240-134 240-336 0-203-86-334-240-334-158 0-240 138-240 334 0 197 84 336 240 336" id="ae"/><g id="s"><use transform="matrix(0.008680555555555556,0,0,0.008680555555555556,0,0)" xlink:href="#ac"/><use transform="matrix(0.008680555555555556,0,0,0.008680555555555556,10.460069444444445,0)" xlink:href="#L"/><use transform="matrix(0.008680555555555556,0,0,0.008680555555555556,21.36284722222222,0)" xlink:href="#ad"/><use transform="matrix(0.008680555555555556,0,0,0.008680555555555556,32.43055555555556,0)" xlink:href="#ad"/><use transform="matrix(0.008680555555555556,0,0,0.008680555555555556,43.49826388888889,0)" xlink:href="#I"/><use transform="matrix(0.008680555555555556,0,0,0.008680555555555556,54.08854166666667,0)" xlink:href="#ac"/><use transform="matrix(0.008680555555555556,0,0,0.008680555555555556,64.54861111111111,0)" xlink:href="#J"/><use transform="matrix(0.008680555555555556,0,0,0.008680555555555556,70.88541666666667,0)" xlink:href="#I"/><use transform="matrix(0.008680555555555556,0,0,0.008680555555555556,81.47569444444446,0)" xlink:href="#ae"/></g><path d="M180 0v-1490h908v168H370v486h669v168H370v500h727V0H180" id="af"/><g id="t"><use transform="matrix(0.010850694444444444,0,0,0.010850694444444444,0,0)" xlink:href="#af"/><use transform="matrix(0.010850694444444444,0,0,0.010850694444444444,13.35720486111111,0)" xlink:href="#T"/><use transform="matrix(0.010850694444444444,0,0,0.010850694444444444,22.0703125,0)" xlink:href="#T"/><use transform="matrix(0.010850694444444444,0,0,0.010850694444444444,30.06727430555556,0)" xlink:href="#y"/><use transform="matrix(0.010850694444444444,0,0,0.010850694444444444,43.391927083333336,0)" xlink:href="#T"/></g><g id="u"><use transform="matrix(0.010850694444444444,0,0,0.010850694444444444,0,0)" xlink:href="#y"/><use transform="matrix(0.010850694444444444,0,0,0.010850694444444444,13.324652777777777,0)" xlink:href="#z"/><use transform="matrix(0.010850694444444444,0,0,0.010850694444444444,26.453993055555554,0)" xlink:href="#Y"/></g><g id="v"><use transform="matrix(0.010850694444444444,0,0,0.010850694444444444,0,0)" xlink:href="#T"/><use transform="matrix(0.010850694444444444,0,0,0.010850694444444444,7.996961805555555,0)" xlink:href="#A"/><use transform="matrix(0.010850694444444444,0,0,0.010850694444444444,20.95269097222222,0)" xlink:href="#B"/><use transform="matrix(0.010850694444444444,0,0,0.010850694444444444,33.64800347222222,0)" xlink:href="#y"/><use transform="matrix(0.010850694444444444,0,0,0.010850694444444444,46.97265625,0)" xlink:href="#z"/><use transform="matrix(0.010850694444444444,0,0,0.010850694444444444,60.10199652777778,0)" xlink:href="#z"/><use transform="matrix(0.010850694444444444,0,0,0.010850694444444444,73.23133680555556,0)" xlink:href="#A"/><use transform="matrix(0.010850694444444444,0,0,0.010850694444444444,86.18706597222223,0)" xlink:href="#B"/><use transform="matrix(0.010850694444444444,0,0,0.010850694444444444,98.88237847222221,0)" xlink:href="#C"/></g><g id="w"><use transform="matrix(0.008680555555555556,0,0,0.008680555555555556,0,0)" xlink:href="#I"/><use transform="matrix(0.008680555555555556,0,0,0.008680555555555556,10.590277777777779,0)" xlink:href="#M"/><use transform="matrix(0.008680555555555556,0,0,0.008680555555555556,17.960069444444446,0)" xlink:href="#M"/><use transform="matrix(0.008680555555555556,0,0,0.008680555555555556,24.765625,0)" xlink:href="#L"/><use transform="matrix(0.008680555555555556,0,0,0.008680555555555556,35.66840277777778,0)" xlink:href="#M"/></g></defs></g></svg>