<svg xmlns="http://www.w3.org/2000/svg" xmlns:xlink="http://www.w3.org/1999/xlink" xmlns:lucid="lucid" width="1821" height="1322"><g transform="translate(1140 13061)" lucid:page-tab-id="0_0"><path d="M-2500-13500h7500v2500h-7500z" fill="#fff"/><path d="M-1140-12994a6 6 0 0 1 6-6h228a6 6 0 0 1 6 6v48a6 6 0 0 1-6 6h-228a6 6 0 0 1-6-6z" fill="none"/><use xlink:href="#a" transform="matrix(1,0,0,1,-1140,-13000) translate(57.223307291666664 38.083767361111114)"/><path d="M-536-13060c-145.8 0-264 118.2-264 264v792c0 145.8 118.2 264 264 264h952c145.8 0 264-118.2 264-264v-792c0-145.8-118.2-264-264-264z" stroke="#000" stroke-width="2" fill="#fff"/><path d="M-681.93-13016H561.93" stroke="#000" stroke-width="2" fill="none"/><use xlink:href="#b" transform="matrix(1,0,0,1,-504,-13060) translate(398.3131510416667 30.08376736111111)"/><path d="M-636.98-12746.5c-23.76 0-43.02 19.27-43.02 43.03v129.08c0 23.77 19.26 43.03 43.02 43.03h353.96c23.76 0 43.02-19.26 43.02-43.02v-129.07c0-23.76-19.26-43.02-43.02-43.02z" stroke="#000" stroke-width="2" fill="#fff"/><path d="M-680-12702.5h440" stroke="#000" stroke-width="2" fill="none"/><use xlink:href="#c" transform="matrix(1,0,0,1,-592,-12746.489879991881) translate(45.34092881944446 30.08376736111111)"/><use xlink:href="#d" transform="matrix(1,0,0,1,-636,-12686.489879991881) translate(141.59244791666669 29.685329861111114)"/><use xlink:href="#e" transform="matrix(1,0,0,1,-636,-12686.489879991881) translate(202.39973958333334 29.685329861111114)"/><use xlink:href="#f" transform="matrix(1,0,0,1,-636,-12686.489879991881) translate(29.428819444444457 61.950954861111114)"/><use xlink:href="#g" transform="matrix(1,0,0,1,-636,-12686.489879991881) translate(3.3654513888888857 94.21657986111111)"/><use xlink:href="#h" transform="matrix(1,0,0,1,-636,-12686.489879991881) translate(36.54687499999999 94.21657986111111)"/><use xlink:href="#i" transform="matrix(1,0,0,1,-636,-12686.489879991881) translate(50.80468749999999 94.21657986111111)"/><use xlink:href="#j" transform="matrix(1,0,0,1,-636,-12686.489879991881) translate(176 126.48220486111111)"/><path d="M123.03-12746.5c-23.77 0-43.03 19.27-43.03 43.03v129.08c0 23.77 19.26 43.03 43.03 43.03h453.95c23.76 0 43.02-19.26 43.02-43.02v-129.07c0-23.76-19.26-43.02-43.02-43.02z" stroke="#000" stroke-width="2" fill="#fff"/><path d="M80-12702.5h540" stroke="#000" stroke-width="2" fill="none"/><use xlink:href="#k" transform="matrix(1,0,0,1,188,-12746.489879991881) translate(91.98046875 30.08376736111111)"/><use xlink:href="#l" transform="matrix(1,0,0,1,134,-12686.489879991881) translate(9.628472222222229 24.8420138888889)"/><use xlink:href="#m" transform="matrix(1,0,0,1,134,-12686.489879991881) translate(51.72916666666667 24.8420138888889)"/><use xlink:href="#n" transform="matrix(1,0,0,1,134,-12686.489879991881) translate(133.33506944444446 24.8420138888889)"/><use xlink:href="#o" transform="matrix(1,0,0,1,134,-12686.489879991881) translate(230.64409722222223 24.8420138888889)"/><use xlink:href="#p" transform="matrix(1,0,0,1,134,-12686.489879991881) translate(241.75520833333334 24.8420138888889)"/><use xlink:href="#l" transform="matrix(1,0,0,1,134,-12686.489879991881) translate(87.2890625 50.65451388888889)"/><use xlink:href="#m" transform="matrix(1,0,0,1,134,-12686.489879991881) translate(129.38975694444446 50.65451388888889)"/><use xlink:href="#q" transform="matrix(1,0,0,1,134,-12686.489879991881) translate(210.99565972222223 50.65451388888889)"/><use xlink:href="#r" transform="matrix(1,0,0,1,134,-12686.489879991881) translate(337.8098958333333 50.65451388888889)"/><use xlink:href="#s" transform="matrix(1,0,0,1,134,-12686.489879991881) translate(110.67447916666666 76.46701388888889)"/><use xlink:href="#t" transform="matrix(1,0,0,1,134,-12686.489879991881) translate(125.3576388888889 102.27951388888889)"/><use xlink:href="#u" transform="matrix(1,0,0,1,134,-12686.489879991881) translate(176.03472222222223 102.27951388888889)"/><use xlink:href="#v" transform="matrix(1,0,0,1,134,-12686.489879991881) translate(218.13541666666669 102.27951388888889)"/><use xlink:href="#r" transform="matrix(1,0,0,1,134,-12686.489879991881) translate(299.74131944444446 102.27951388888889)"/><use xlink:href="#w" transform="matrix(1,0,0,1,134,-12686.489879991881) translate(56.208333333333314 128.09201388888889)"/><path d="M-519.66-12520.9l.58 9.2.94 8.93 1.28 8.72 1.63 8.53 1.97 8.38 2.3 8.25 2.65 8.15 2.98 8.05 3.36 8 3.74 7.93 4.14 7.92 4.56 7.9 5.03 7.92 5.53 7.94 6.06 8 6.64 8.02 7.3 8.1 8 8.17 8.8 8.25 9.67 8.34 10.66 8.43 11.74 8.53 12.96 8.6 14.32 8.67 15.82 8.7 17.5 8.67 19.36 8.6 21.37 8.46 23.53 8.2 25.84 7.78 28.2 7.23 30.56 6.5 25.07 4.22h-5.7l-19.54-3.3h-.02l-30.58-6.5h-.02l-28.22-7.24h-.02l-25.86-7.8h-.02l-23.56-8.2-21.4-8.47v-.02h-.02l-19.37-8.6v-.02l-17.53-8.7-15.86-8.7v-.02l-14.34-8.67h-.02l-12.97-8.63h-.02l-11.76-8.55h-.02v-.02l-10.67-8.45-9.7-8.37-8.82-8.28v-.02h-.02l-8.02-8.18v-.02l-7.32-8.1v-.02l-6.67-8.05v-.02l-6.08-8v-.02l-5.54-7.95h-.02l-5.02-7.94v-.02l-4.6-7.93-4.15-7.94-3.75-7.98-3.38-8.02v-.02l-3-8.07v-.02l-2.67-8.15v-.02l-2.3-8.27-1.98-8.4v-.02l-1.64-8.56v-.02l-1.28-8.74v-.02l-.95-8.96v-.02l-.58-9.2v-.02l-.2-9h.95zm958.65.04l-.6 9.2v.02l-.93 8.96v.02l-1.3 8.74v.02l-1.63 8.55v.02l-1.97 8.4v.02l-2.3 8.26h-.02l-2.65 8.17v.02l-3 8.07v.02h-.02l-3.36 8v.02l-3.76 7.97v.02l-4.15 7.93v.02l-4.58 7.92v.02l-5.04 7.93v.02l-5.54 7.94v.02l-6.08 8h-.02l-6.65 8.06h-.02l-7.3 8.12h-.02v.02l-8.02 8.18H370v.02l-8.8 8.27h-.02l-9.7 8.37-10.67 8.46h-.02l-11.74 8.55v.02h-.02l-12.97 8.62h-.02l-14.33 8.68h-.02l-15.84 8.72-17.53 8.7h-.02l-19.35 8.62h-.02l-21.38 8.47h-.02l-23.55 8.2h-.02l-25.85 7.8-28.23 7.25h-.02l-30.57 6.5h-.02l-19.6 3.3h-5.7l25.14-4.23 30.55-6.5 28.2-7.23 25.82-7.8 23.54-8.18 21.37-8.45 19.35-8.62 17.5-8.68 15.82-8.7 14.3-8.66 12.97-8.6 11.75-8.53 10.65-8.43 9.67-8.34 8.8-8.26 8-8.17 7.3-8.1 6.64-8.03 6.06-7.98 5.52-7.95 5.03-7.9 4.57-7.92 4.14-7.92 3.75-7.93 3.35-8 3-8.04 2.64-8.14 2.3-8.26 1.97-8.38 1.64-8.53 1.28-8.72.94-8.93.58-9.2z" stroke="#3a414a" stroke-width=".05" fill="#3a414a"/><path d="M-519.85-12529.85l-.95.02v-.54h.94z" fill="#3a414a"/><path stroke="#3a414a" stroke-width=".05" fill="#3a414a"/><path d="M448.74-12512.07l-.83.46-8.77-15.98-.14 6.72-.96-.02.14-6.73-9.44 15.6-.8-.5 10.77-17.82z" stroke="#3a414a" stroke-width=".05" fill="#3a414a"/><use xlink:href="#l" transform="matrix(1,0,0,1,-276.94598769893526,-12253.60613625719) translate(0 17.22222222222222)"/><use xlink:href="#m" transform="matrix(1,0,0,1,-276.94598769893526,-12253.60613625719) translate(42.10069444444444 17.22222222222222)"/><use xlink:href="#q" transform="matrix(1,0,0,1,-276.94598769893526,-12253.60613625719) translate(123.70659722222223 17.22222222222222)"/><use xlink:href="#o" transform="matrix(1,0,0,1,-276.94598769893526,-12253.60613625719) translate(250.52083333333331 17.22222222222222)"/><use xlink:href="#x" transform="matrix(1,0,0,1,-276.94598769893526,-12253.60613625719) translate(261.6319444444444 17.22222222222222)"/><path d="M-740-12740c0 11.05-8.95 20-20 20s-20-8.95-20-20 8.95-20 20-20 20 8.95 20 20z" stroke="#000" stroke-width="2"/><path d="M-759.98-12718.5l.15 5 .5 5.36.82 5.2 1.12 5.06 1.4 4.9 1.7 4.74 1.97 4.58 2.22 4.4 2.47 4.22 2.7 4.02 2.95 3.83 3.16 3.63 3.38 3.4 3.57 3.18 3.75 2.95 3.93 2.7 4.1 2.47 4.25 2.2 4.42 1.95 4.56 1.68 4.7 1.4 4.86 1.13 5 .84 1.86.2" stroke="#3a414a" stroke-linejoin="round" fill="none"/><path d="M-760.04-12719l.5-.02.03.52-.96.03-.02-.58z" stroke="#3a414a" stroke-width=".05" fill="#3a414a"/><path d="M-698.7-12650l16.7 11-17.88 8.97m17.88-8.96l-8.48-.5" stroke="#3a414a" fill="none"/><path d="M80.15-12978.53h.02l25.82 5.5 23.84 6.1h.02l21.84 6.6h.02l19.9 6.92 18.08 7.15h.02l16.35 7.28h.02l14.8 7.35 13.4 7.36 12.1 7.34h.02l10.97 7.28 9.94 7.22v.02l9.02 7.13.02.02 8.18 7.06v.02h.02l7.44 7 6.8 6.9v.02l6.17 6.86 5.63 6.8v.02l5.14 6.76 4.68 6.73v.02l4.27 6.7v.02l3.87 6.7v.02l3.5 6.7v.02l3.18 6.72v.02l2.85 6.76v.02l2.54 6.82 2.25 6.9v.02l1.95 6.98v.02l1.67 7.1v.02l1.4 7.22v.02l1.08 7.38v.02l.8 7.57v.02l.5 7.76v.02l.14 7.5-.94.03-.16-7.5-.5-7.74-.78-7.55-1.1-7.35-1.36-7.2-1.66-7.08-1.95-6.96-2.22-6.86-2.53-6.8-2.83-6.75-3.16-6.7-3.5-6.7-3.85-6.67-4.23-6.68-4.66-6.7-5.1-6.74-5.62-6.77-6.16-6.84-6.76-6.9-7.43-6.98-8.17-7.05-9-7.12-9.9-7.2-10.95-7.27-12.08-7.3-13.36-7.35-14.78-7.34-16.34-7.27-18.05-7.14-19.88-6.93-21.82-6.58-23.82-6.1-25.8-5.5-11.7-1.97h5.7zm-270.2.95l-25.8 5.48-23.8 6.1-21.82 6.6-19.87 6.9-18.04 7.14-16.34 7.27-14.77 7.34-13.35 7.34-12.1 7.32-10.93 7.27-9.9 7.2-9 7.12-8.17 7.04-7.43 6.97-6.76 6.9-6.15 6.84-5.6 6.78-5.12 6.74-4.66 6.7-4.24 6.7-3.85 6.66-3.5 6.7-3.15 6.7-2.84 6.74-2.53 6.8-2.22 6.86-1.94 6.97-1.66 7.06-1.37 7.2-1.08 7.37-.8 7.54-.4 6.33-.94-.06.4-6.34v-.02l.8-7.56v-.02l1.1-7.38v-.02l1.37-7.23v-.02l1.67-7.1 1.95-7 2.24-6.9h.02v-.02l2.54-6.82 2.84-6.77 3.18-6.74v-.02l3.5-6.7v-.02h.02l3.86-6.7 4.27-6.7v-.02l4.68-6.73h.02l5.13-6.76 5.63-6.8v-.02l6.18-6.86h.02l6.77-6.92v-.02l7.45-6.98h.02v-.02l8.18-7.06h.02l9-7.15h.02l9.93-7.2v-.02h.02l10.94-7.28h.02l12.1-7.33h.02l13.38-7.36h.02l14.8-7.34 16.36-7.3h.02l18.06-7.14h.02l19.9-6.93v-.02l21.84-6.58h.02l23.83-6.12h.02l25.82-5.5h.02l6.23-1.05h5.7z" stroke="#3a414a" stroke-width=".05" fill="#3a414a"/><path d="M350.48-12747.5h-.96v-.5l.94-.02z" fill="#3a414a"/><path stroke="#3a414a" stroke-width=".05" fill="#3a414a"/><path d="M-460.4-12750.27l.18-6.73.95.03-.18 6.72 9.54-15.53.8.5-10.9 17.74-9.92-18.3.84-.46z" stroke="#3a414a" stroke-width=".05" fill="#3a414a"/><g><use xlink:href="#l" transform="matrix(1,0,0,1,-322.61336169738934,-13001.07871878561) translate(0 17.22222222222222)"/><use xlink:href="#m" transform="matrix(1,0,0,1,-322.61336169738934,-13001.07871878561) translate(42.10069444444444 17.22222222222222)"/><use xlink:href="#y" transform="matrix(1,0,0,1,-322.61336169738934,-13001.07871878561) translate(123.70659722222223 17.22222222222222)"/><use xlink:href="#o" transform="matrix(1,0,0,1,-322.61336169738934,-13001.07871878561) translate(281.2847222222223 17.22222222222222)"/><use xlink:href="#z" transform="matrix(1,0,0,1,-322.61336169738934,-13001.07871878561) translate(292.39583333333337 17.22222222222222)"/></g><path d="M-354.9-12529.86l.1 5.9.4 6.22.64 6.05.87 5.9 1.1 5.8 1.34 5.66 1.56 5.58 1.8 5.5 2.02 5.46 2.27 5.4 2.52 5.4 2.8 5.34 3.1 5.35 3.4 5.35 3.73 5.37 4.1 5.4 4.5 5.44 4.93 5.48 5.42 5.52 5.95 5.6 6.54 5.63 7.2 5.7 7.94 5.77 8.76 5.82 9.68 5.84 10.7 5.88 11.83 5.87 13.1 5.8 14.44 5.72 15.9 5.53 17.47 5.27 19.06 4.9 20.65 4.37 22.16 3.73 23.47 2.96 24.52 2.05 25.18 1.05h25.42l25.18-1.06 24.5-2.06 23.48-2.96 22.16-3.74 20.64-4.38 19.06-4.9 17.45-5.26 15.92-5.53 14.44-5.7 13.07-5.82 11.83-5.87 10.7-5.87 9.68-5.86 8.76-5.82 7.94-5.76 7.2-5.72 6.54-5.64 5.95-5.6 5.42-5.52 4.93-5.48 4.5-5.43 4.1-5.4 3.73-5.36 3.4-5.36 3.1-5.35 2.8-5.36 2.53-5.37 2.27-5.4 2.03-5.46 1.8-5.5 1.55-5.6 1.33-5.66 1.1-5.78.88-5.9.64-6.05.2-3.18" stroke="#3a414a" stroke-linejoin="round" fill="none"/><path d="M-354.44-12529.86l-.94.02-.02-.53h.95z" stroke="#3a414a" stroke-width=".05" fill="#3a414a"/><path d="M282.12-12512.4l10.58-16.97 9.4 17.66m-9.4-17.67l-.3 8.5" stroke="#3a414a" fill="none"/><g><use xlink:href="#l" transform="matrix(1,0,0,1,-235.46769638428955,-12361.426524517765) translate(0 17.22222222222222)"/><use xlink:href="#m" transform="matrix(1,0,0,1,-235.46769638428955,-12361.426524517765) translate(42.10069444444444 17.22222222222222)"/><use xlink:href="#n" transform="matrix(1,0,0,1,-235.46769638428955,-12361.426524517765) translate(123.70659722222223 17.22222222222222)"/><use xlink:href="#o" transform="matrix(1,0,0,1,-235.46769638428955,-12361.426524517765) translate(221.015625 17.22222222222222)"/><use xlink:href="#A" transform="matrix(1,0,0,1,-235.46769638428955,-12361.426524517765) translate(232.12673611111111 17.22222222222222)"/></g><path d="M-45.08-12655.9l15.52 4.34 14.38 3.38 14.65 2.8 15.78 2.3 17.76 1.87 20.77 1.3 24.73.5v.94l-24.76-.5h-.02l-20.78-1.3h-.02l-17.78-1.86h-.02l-15.8-2.33h-.02l-14.67-2.8h-.02l-14.4-3.4-15.55-4.34h-.02l-3.86-1.26h3.05zm-168.66-39.42h.02l20.78 1.3h.02l17.77 1.85h.02l15.8 2.34h.02l14.67 2.8h.02l14.4 3.38 15.55 4.35h.02l4.46 1.53h-2.94l-1.82-.62-15.52-4.33-14.38-3.37-14.65-2.8-15.78-2.32-17.76-1.86-20.77-1.3-15.8-.3.02-.96z" stroke="#3a414a" stroke-width=".05" fill="#3a414a"/><path d="M79-12639.4v.95h-.53l.02-.96z" fill="#3a414a"/><path stroke="#3a414a" stroke-width=".05" fill="#3a414a"/><path d="M-220.25-12704.57l-15.97 8.8 6.73.13v.95l-6.74-.13 15.6 9.43-.5.82-17.8-10.78 18.23-10.04z" stroke="#3a414a" stroke-width=".05" fill="#3a414a"/><g><use xlink:href="#B" transform="matrix(1,0,0,1,-164.38532813322655,-12677.771101966384) translate(0 17.22222222222222)"/><use xlink:href="#C" transform="matrix(1,0,0,1,-164.38532813322655,-12677.771101966384) translate(102.05729166666666 17.22222222222222)"/></g><path d="M-799-12139h10.05m10.06 0h20.12m10.05 0h20.1m10.06 0h20.1m10.07 0h20.1m10.06 0h20.1m10.06 0h20.1m10.07 0h20.1m10.05 0h20.1m10.06 0h20.12m10.06 0h20.1m10.06 0h20.1m10.06 0h20.1m10.07 0h20.1m10.06 0h20.1m10.06 0h20.1m10.06 0h20.1m10.06 0h20.1m10.06 0h20.1m10.07 0h20.1m10.06 0h20.12m10.05 0h20.1m10.07 0h20.1m10.06 0h20.1m10.06 0h20.1m10.07 0h20.1m10.06 0h20.1m10.05 0h20.1m10.07 0h20.1m10.06 0h20.1m10.06 0h20.1m10.07 0h20.12m10.05 0h20.1m10.06 0h20.1m10.07 0h20.1m10.06 0h20.1m10.06 0h20.1m10.07 0h20.1m10.05 0h20.1m10.06 0h20.12m10.06 0h20.1m10.06 0h20.1m10.06 0h20.1m10.07 0h20.1m10.06 0h20.1m10.06 0h20.1m10.06 0h20.1m10.06 0h20.1m10.06 0h20.1m10.07 0H679" stroke="#000" stroke-width="2" stroke-linecap="round" fill="none"/><path d="M-380-12060c-33.14 0-60 26.86-60 60v180c0 33.14 26.86 60 60 60h700c33.14 0 60-26.86 60-60v-180c0-33.14-26.86-60-60-60z" stroke="#000" stroke-width="2" fill="#fff"/><path d="M-437.83-12016h815.66" stroke="#000" stroke-width="2" fill="none"/><g><use xlink:href="#D" transform="matrix(1,0,0,1,-276,-12060) translate(197.64930555555554 30.08376736111111)"/></g><g><use xlink:href="#g" transform="matrix(1,0,0,1,-358,-12000) translate(16.015407986111143 103.95095486111111)"/><use xlink:href="#h" transform="matrix(1,0,0,1,-358,-12000) translate(49.19683159722225 103.95095486111111)"/><use xlink:href="#E" transform="matrix(1,0,0,1,-358,-12000) translate(63.45464409722225 103.95095486111111)"/><use xlink:href="#F" transform="matrix(1,0,0,1,-358,-12000) translate(101.65993923611114 103.95095486111111)"/><use xlink:href="#G" transform="matrix(1,0,0,1,-358,-12000) translate(174.89127604166669 103.95095486111111)"/><use xlink:href="#E" transform="matrix(1,0,0,1,-358,-12000) translate(244.1838107638889 103.95095486111111)"/><use xlink:href="#H" transform="matrix(1,0,0,1,-358,-12000) translate(282.38910590277777 103.95095486111111)"/><use xlink:href="#G" transform="matrix(1,0,0,1,-358,-12000) translate(322.8404947916667 103.95095486111111)"/><use xlink:href="#E" transform="matrix(1,0,0,1,-358,-12000) translate(392.1330295138889 103.95095486111111)"/><use xlink:href="#I" transform="matrix(1,0,0,1,-358,-12000) translate(430.33832465277777 103.95095486111111)"/><use xlink:href="#J" transform="matrix(1,0,0,1,-358,-12000) translate(481.41254340277777 103.95095486111111)"/><use xlink:href="#K" transform="matrix(1,0,0,1,-358,-12000) translate(167.208984375 136.21657986111111)"/><use xlink:href="#L" transform="matrix(1,0,0,1,-358,-12000) translate(342.0353732638889 136.21657986111111)"/><use xlink:href="#M" transform="matrix(1,0,0,1,-358,-12000) translate(362.9880642361111 136.21657986111111)"/><use xlink:href="#N" transform="matrix(1,0,0,1,-358,-12000) translate(424.5983072916667 136.21657986111111)"/></g><path d="M-600-11980c0 11.05-8.95 20-20 20s-20-8.95-20-20 8.95-20 20-20 20 8.95 20 20z" stroke="#000" stroke-width="2"/><path d="M-598.5-11980l4.86.1 4.9.32 4.58.48 4.26.63 4.03.76 3.83.9 3.68 1.02 3.57 1.16 3.5 1.3 3.44 1.44 3.45 1.63 3.5 1.83 3.6 2.08 3.83 2.44 4.22 2.93 5 3.8 7.45 6.2 21.04 18.13 5 3.8 4.23 2.94 3.83 2.44 3.6 2.08 3.5 1.83 3.46 1.63 3.44 1.45 3.5 1.3 3.56 1.15 3.68 1.03 3.83.9 4.03.77 4.26.63 4.56.48.85.05" stroke="#3a414a" stroke-linejoin="round" fill="none"/><path d="M-598.47-11980.46l-.02.94h-.55l.05-.43-.02-.52z" stroke="#3a414a" stroke-width=".05" fill="#3a414a"/><path d="M-458.92-11920.7l16.92 10.66-17.7 9.32m17.7-9.32l-8.5-.33" stroke="#3a414a" fill="none"/><path d="M-1000-12920c0 11.05-8.95 20-20 20s-20-8.95-20-20 8.95-20 20-20 20 8.95 20 20z" stroke="#000" stroke-width="2"/><path d="M-1020-12898.5l.6 28.75 1.77 28.06 2.76 26.34 3.6 24.36 4.24 22.28 4.74 20.25 5.12 18.33 5.38 16.56 5.56 14.97 5.68 13.53 5.77 12.25 5.82 11.12 5.83 10.1 5.85 9.23 5.84 8.42 5.85 7.7 5.84 7.08 5.85 6.5 5.85 5.98 5.88 5.53 5.9 5.1 5.93 4.7 6 4.35 6.03 4 6.1 3.72 6.22 3.4 6.3 3.15 6.45 2.86 6.58 2.62 6.75 2.35 6.94 2.1 7.16 1.83 7.4 1.58 7.7 1.3 8 1 8.37.7 3.9.17" stroke="#3a414a" stroke-linejoin="round" fill="none"/><path d="M-1020.04-12899l.5-.02.03.53-.96.03-.02-.58z" stroke="#3a414a" stroke-width=".05" fill="#3a414a"/><path d="M-819.05-12566.48l17.05 10.45-17.58 9.54m17.58-9.53l-8.5-.22" stroke="#3a414a" fill="none"/><defs><path d="M657 26c-323 0-524-166-541-416h195c15 169 171 246 346 246 202 0 356-106 356-265 5-203-294-238-475-293-239-73-380-191-380-389 0-252 224-419 512-419 294 0 499 171 508 396H992c-17-145-151-228-328-228-193 0-321 102-321 242 0 156 175 211 284 241l149 41c160 44 422 134 422 412 0 244-197 432-541 432" id="O"/><path d="M140 405l46-156c120 36 205 19 263-150l32-93L54-1118h197c107 313 237 620 324 950 87-331 219-637 326-950h196L606 167c-68 178-176 259-334 259-64 0-113-12-132-21" id="P"/><path d="M538 24C308 24 148-78 108-271l171-41c32 123 123 178 257 178 156 0 256-77 256-169 0-77-54-128-164-154l-186-44c-203-48-300-148-300-305 0-192 176-326 414-326 230 0 351 112 402 269l-163 42c-31-80-94-158-238-158-133 0-233 69-233 162 0 83 57 129 188 160l169 40c203 48 298 149 298 302 0 196-179 339-441 339" id="Q"/><path d="M598-1118v154H368v674c0 100 37 144 132 144 23 0 62-6 92-12L629-6c-37 13-88 20-134 20-193 0-307-107-307-290v-688H20v-154h168v-266h180v266h230" id="R"/><path d="M628 24c-324 0-524-230-524-574 0-343 198-582 503-582 237 0 487 146 487 559v75H286c9 234 145 362 343 362 132 0 231-58 273-172l174 48C1024-91 857 24 628 24zM287-650h624c-17-190-120-322-304-322-192 0-309 151-320 322" id="S"/><path d="M158 0v-1118h175l1 205c55-151 181-225 313-225 147 0 245 90 285 228 53-141 190-228 352-228 194 0 352 125 352 384V0h-181v-749c0-161-105-225-225-225-151 0-243 103-243 244V0H807v-767c0-124-93-207-219-207-131 0-250 92-250 270V0H158" id="T"/><path d="M98-1322v-168h1126v168H757V0H567v-1322H98" id="U"/><path d="M471 26C259 26 90-98 90-318c0-256 228-303 435-329 202-27 287-16 287-108 0-139-79-219-234-219-161 0-248 86-283 164l-173-57c86-203 278-265 451-265 150 0 419 46 419 395V0H815v-152h-12C765-73 660 26 471 26zm31-159c199 0 310-134 310-271v-155c-30 35-226 55-295 64-131 17-246 59-246 186 0 116 97 176 231 176" id="V"/><path d="M158 0v-1490h180v865h22l478-493h223L593-638 1096 0H865L456-523 338-412V0H158" id="W"/><g id="a"><use transform="matrix(0.010850694444444444,0,0,0.010850694444444444,0,0)" xlink:href="#O"/><use transform="matrix(0.010850694444444444,0,0,0.010850694444444444,14.2578125,0)" xlink:href="#P"/><use transform="matrix(0.010850694444444444,0,0,0.010850694444444444,26.74696180555556,0)" xlink:href="#Q"/><use transform="matrix(0.010850694444444444,0,0,0.010850694444444444,38.4765625,0)" xlink:href="#R"/><use transform="matrix(0.010850694444444444,0,0,0.010850694444444444,45.5295138888889,0)" xlink:href="#S"/><use transform="matrix(0.010850694444444444,0,0,0.010850694444444444,58.48524305555555,0)" xlink:href="#T"/><use transform="matrix(0.010850694444444444,0,0,0.010850694444444444,76.43229166666667,0)" xlink:href="#U"/><use transform="matrix(0.010850694444444444,0,0,0.010850694444444444,89.14930555555556,0)" xlink:href="#V"/><use transform="matrix(0.010850694444444444,0,0,0.010850694444444444,101.62760416666666,0)" xlink:href="#Q"/><use transform="matrix(0.010850694444444444,0,0,0.010850694444444444,113.3572048611111,0)" xlink:href="#W"/></g><path d="M600 0v-610L52-1490h220l295 481c50 82 90 150 130 243 40-96 80-164 128-243l294-481h219L790-610V0H600" id="X"/><path d="M180 0v-1490h908v168H370v486h669v168H370v500h727V0H180" id="Y"/><path d="M180 0v-1490h270l367 940c28 72 75 218 110 339 35-117 81-264 110-339l362-940h271V0h-187c2-448-5-837 7-1287-157 497-311 829-483 1287H842C666-458 514-784 354-1284c12 438 5 843 7 1284H180" id="Z"/><g id="b"><use transform="matrix(0.010850694444444444,0,0,0.010850694444444444,0,0)" xlink:href="#O"/><use transform="matrix(0.010850694444444444,0,0,0.010850694444444444,14.2578125,0)" xlink:href="#X"/><use transform="matrix(0.010850694444444444,0,0,0.010850694444444444,29.340277777777775,0)" xlink:href="#O"/><use transform="matrix(0.010850694444444444,0,0,0.010850694444444444,43.59809027777778,0)" xlink:href="#U"/><use transform="matrix(0.010850694444444444,0,0,0.010850694444444444,57.94270833333333,0)" xlink:href="#Y"/><use transform="matrix(0.010850694444444444,0,0,0.010850694444444444,71.29991319444444,0)" xlink:href="#Z"/></g><path d="M763 24c-353 0-583-224-583-531v-983h190v968c0 214 149 370 393 370 243 0 391-156 391-370v-968h190v983c0 307-230 531-581 531" id="aa"/><path d="M180 0v-1490h224l606 953c40 63 108 177 176 312-27-437-7-821-13-1265h190V0h-226C860-448 622-778 356-1262c27 476 11 792 15 1262H180" id="ab"/><path d="M783 20c-382 0-661-292-661-764 0-473 279-766 661-766 302 0 548 182 601 489h-190c-42-204-217-313-411-313-268 0-476 208-476 590 0 381 209 588 476 588 195 0 369-110 411-313h190c-52 303-296 489-601 489" id="ac"/><path d="M784 20c-382 0-662-292-662-764 0-473 280-766 662-766s660 293 660 766c0 472-278 764-660 764zm0-176c266 0 475-207 475-588 0-383-209-590-475-590-268 0-477 208-477 590 0 380 209 588 477 588" id="ad"/><path d="M645 0H180v-1490h484c435 0 692 280 692 742 0 466-257 748-711 748zM370-168h263c363 0 539-218 539-580 0-358-176-574-521-574H370v1154" id="ae"/><g id="c"><use transform="matrix(0.010850694444444444,0,0,0.010850694444444444,0,0)" xlink:href="#aa"/><use transform="matrix(0.010850694444444444,0,0,0.010850694444444444,16.536458333333332,0)" xlink:href="#ab"/><use transform="matrix(0.010850694444444444,0,0,0.010850694444444444,33.279079861111114,0)" xlink:href="#ac"/><use transform="matrix(0.010850694444444444,0,0,0.010850694444444444,49.51171875,0)" xlink:href="#ad"/><use transform="matrix(0.010850694444444444,0,0,0.010850694444444444,66.50390625,0)" xlink:href="#ab"/><use transform="matrix(0.010850694444444444,0,0,0.010850694444444444,83.24652777777777,0)" xlink:href="#ab"/><use transform="matrix(0.010850694444444444,0,0,0.010850694444444444,99.98914930555556,0)" xlink:href="#Y"/><use transform="matrix(0.010850694444444444,0,0,0.010850694444444444,113.34635416666666,0)" xlink:href="#ac"/><use transform="matrix(0.010850694444444444,0,0,0.010850694444444444,129.57899305555554,0)" xlink:href="#U"/><use transform="matrix(0.010850694444444444,0,0,0.010850694444444444,143.9236111111111,0)" xlink:href="#Y"/><use transform="matrix(0.010850694444444444,0,0,0.010850694444444444,157.2808159722222,0)" xlink:href="#ae"/></g><path d="M338-670V0H158v-1118h173l1 207c72-158 192-221 342-221 226 0 378 139 378 422V0H872v-695c0-172-96-275-252-275-161 0-282 109-282 300" id="af"/><path d="M158 0v-1118h174v172h12c41-113 157-188 290-188 26 0 70 2 91 3v181c-11-2-60-10-108-10-161 0-279 109-279 260V0H158" id="ag"/><g id="d"><use transform="matrix(0.010850694444444444,0,0,0.010850694444444444,0,0)" xlink:href="#S"/><use transform="matrix(0.010850694444444444,0,0,0.010850694444444444,12.955729166666666,0)" xlink:href="#af"/><use transform="matrix(0.010850694444444444,0,0,0.010850694444444444,26.085069444444443,0)" xlink:href="#R"/><use transform="matrix(0.010850694444444444,0,0,0.010850694444444444,33.35503472222222,0)" xlink:href="#ag"/><use transform="matrix(0.010850694444444444,0,0,0.010850694444444444,42.06814236111111,0)" xlink:href="#P"/></g><path d="M692-1560L212 224H46l480-1784h166" id="ah"/><use transform="matrix(0.010850694444444444,0,0,0.010850694444444444,0,0)" xlink:href="#ah" id="e"/><path d="M338-1490V0H158v-1490h180" id="ai"/><path d="M613 24c-304 0-509-231-509-576 0-350 205-580 509-580 216 0 392 114 453 309l-173 49c-33-115-133-197-280-197-223 0-326 196-326 419 0 220 103 415 326 415 150 0 252-85 285-206l172 49C1010-95 832 24 613 24" id="aj"/><path d="M577 24c-279 0-473-224-473-580 0-354 195-576 474-576 218 0 287 134 324 193h14v-551h180V0H922v-173h-20C865-111 790 24 577 24zm27-161c203 0 314-172 314-421 0-247-108-413-314-413-212 0-317 181-317 413 0 235 108 421 317 421" id="ak"/><path d="M295 13c-75 0-135-60-135-135s60-135 135-135 135 60 135 135S370 13 295 13" id="al"/><path d="M611 442c-248 0-391-105-460-228l146-94c47 65 117 165 314 165 178 0 307-82 307-266v-224h-17C863-141 792-18 576-18c-268 0-472-195-472-546 0-346 197-568 476-568 216 0 288 133 326 193h17v-179h175V29c0 289-215 413-487 413zm-5-620c203 0 314-146 314-390 0-237-108-403-314-403-213 0-319 180-319 403 0 230 109 390 319 390" id="am"/><path d="M218-607c0-325 108-727 258-974h175c-155 315-250 682-250 974 0 265 78 531 250 886H476C306-10 218-315 218-607" id="an"/><path d="M232-923l-22-567h194l-22 567H232zm340 0l-22-567h194l-22 567H572" id="ao"/><path d="M96 279C273-86 346-350 346-607c0-292-95-659-250-974h175c150 246 258 650 258 974 0 297-91 602-258 886H96" id="ap"/><g id="f"><use transform="matrix(0.010850694444444444,0,0,0.010850694444444444,0,0)" xlink:href="#ai"/><use transform="matrix(0.010850694444444444,0,0,0.010850694444444444,5.381944444444445,0)" xlink:href="#aj"/><use transform="matrix(0.010850694444444444,0,0,0.010850694444444444,18.077256944444443,0)" xlink:href="#ak"/><use transform="matrix(0.010850694444444444,0,0,0.010850694444444444,31.684027777777775,0)" xlink:href="#al"/><use transform="matrix(0.010850694444444444,0,0,0.010850694444444444,38.0859375,0)" xlink:href="#T"/><use transform="matrix(0.010850694444444444,0,0,0.010850694444444444,57.55208333333333,0)" xlink:href="#Q"/><use transform="matrix(0.010850694444444444,0,0,0.010850694444444444,69.28168402777777,0)" xlink:href="#am"/><use transform="matrix(0.010850694444444444,0,0,0.010850694444444444,82.91015625,0)" xlink:href="#an"/><use transform="matrix(0.010850694444444444,0,0,0.010850694444444444,91.015625,0)" xlink:href="#ao"/><use transform="matrix(0.010850694444444444,0,0,0.010850694444444444,101.3671875,0)" xlink:href="#aa"/><use transform="matrix(0.010850694444444444,0,0,0.010850694444444444,117.90364583333333,0)" xlink:href="#ab"/><use transform="matrix(0.010850694444444444,0,0,0.010850694444444444,134.64626736111111,0)" xlink:href="#ac"/><use transform="matrix(0.010850694444444444,0,0,0.010850694444444444,150.87890625,0)" xlink:href="#ad"/><use transform="matrix(0.010850694444444444,0,0,0.010850694444444444,167.87109375,0)" xlink:href="#ab"/><use transform="matrix(0.010850694444444444,0,0,0.010850694444444444,184.61371527777777,0)" xlink:href="#ab"/><use transform="matrix(0.010850694444444444,0,0,0.010850694444444444,201.35633680555554,0)" xlink:href="#Y"/><use transform="matrix(0.010850694444444444,0,0,0.010850694444444444,214.71354166666666,0)" xlink:href="#ac"/><use transform="matrix(0.010850694444444444,0,0,0.010850694444444444,230.94618055555554,0)" xlink:href="#U"/><use transform="matrix(0.010850694444444444,0,0,0.010850694444444444,245.29079861111111,0)" xlink:href="#Y"/><use transform="matrix(0.010850694444444444,0,0,0.010850694444444444,258.6480034722222,0)" xlink:href="#ae"/><use transform="matrix(0.010850694444444444,0,0,0.010850694444444444,274.6853298611111,0)" xlink:href="#ao"/><use transform="matrix(0.010850694444444444,0,0,0.010850694444444444,285.0368923611111,0)" xlink:href="#ap"/></g><path d="M613 24c-304 0-509-231-509-576 0-350 205-580 509-580 305 0 511 230 511 580 0 345-206 576-511 576zm0-161c226 0 329-195 329-415 0-222-103-419-329-419-223 0-326 196-326 419 0 220 103 415 326 415" id="aq"/><g id="g"><use transform="matrix(0.010850694444444444,0,0,0.010850694444444444,0,0)" xlink:href="#ak"/><use transform="matrix(0.010850694444444444,0,0,0.010850694444444444,13.606770833333332,0)" xlink:href="#aq"/></g><use transform="matrix(0.010850694444444444,0,0,0.010850694444444444,0,0)" xlink:href="#ah" id="h"/><path d="M934 0v166H0V0h934" id="ar"/><path d="M481 0L54-1118h197c107 314 236 620 325 951 87-331 217-637 324-951h197L670 0H481" id="as"/><path d="M158 418v-1536h174v179h20c37-59 106-193 324-193 279 0 474 222 474 576 0 356-194 580-473 580-213 0-288-135-325-197h-14v591H158zm492-555c209 0 317-186 317-421 0-232-105-413-317-413-206 0-314 166-314 413 0 249 111 421 314 421" id="at"/><path d="M158 0v-1118h180V0H158zm91-1301c-68 0-125-53-125-119s57-119 125-119c69 0 126 53 126 119s-57 119-126 119" id="au"/><path d="M600 0L52-1490h200c166 485 304 806 458 1336 156-533 285-846 449-1336h202L819 0H600" id="av"/><path d="M537 14c-226 0-379-139-379-422v-710h180v695c0 172 97 275 253 275 160 0 281-109 281-300v-670h181V0H879v-209C806-46 684 14 537 14" id="aw"/><g id="i"><use transform="matrix(0.010850694444444444,0,0,0.010850694444444444,0,0)" xlink:href="#Q"/><use transform="matrix(0.010850694444444444,0,0,0.010850694444444444,11.729600694444445,0)" xlink:href="#S"/><use transform="matrix(0.010850694444444444,0,0,0.010850694444444444,24.68532986111111,0)" xlink:href="#R"/><use transform="matrix(0.010850694444444444,0,0,0.010850694444444444,31.95529513888889,0)" xlink:href="#ar"/><use transform="matrix(0.010850694444444444,0,0,0.010850694444444444,40.33203125,0)" xlink:href="#as"/><use transform="matrix(0.010850694444444444,0,0,0.010850694444444444,52.71267361111112,0)" xlink:href="#V"/><use transform="matrix(0.010850694444444444,0,0,0.010850694444444444,65.19097222222223,0)" xlink:href="#ai"/><use transform="matrix(0.010850694444444444,0,0,0.010850694444444444,70.68142361111111,0)" xlink:href="#as"/><use transform="matrix(0.010850694444444444,0,0,0.010850694444444444,82.7365451388889,0)" xlink:href="#S"/><use transform="matrix(0.010850694444444444,0,0,0.010850694444444444,95.69227430555557,0)" xlink:href="#ar"/><use transform="matrix(0.010850694444444444,0,0,0.010850694444444444,106.57552083333334,0)" xlink:href="#at"/><use transform="matrix(0.010850694444444444,0,0,0.010850694444444444,120.18229166666669,0)" xlink:href="#aq"/><use transform="matrix(0.010850694444444444,0,0,0.010850694444444444,133.50694444444446,0)" xlink:href="#Q"/><use transform="matrix(0.010850694444444444,0,0,0.010850694444444444,145.2365451388889,0)" xlink:href="#au"/><use transform="matrix(0.010850694444444444,0,0,0.010850694444444444,150.61848958333337,0)" xlink:href="#R"/><use transform="matrix(0.010850694444444444,0,0,0.010850694444444444,157.88845486111114,0)" xlink:href="#au"/><use transform="matrix(0.010850694444444444,0,0,0.010850694444444444,163.2703993055556,0)" xlink:href="#aq"/><use transform="matrix(0.010850694444444444,0,0,0.010850694444444444,176.59505208333337,0)" xlink:href="#af"/><use transform="matrix(0.010850694444444444,0,0,0.010850694444444444,189.72439236111114,0)" xlink:href="#an"/><use transform="matrix(0.010850694444444444,0,0,0.010850694444444444,197.82986111111114,0)" xlink:href="#at"/><use transform="matrix(0.010850694444444444,0,0,0.010850694444444444,211.43663194444449,0)" xlink:href="#aq"/><use transform="matrix(0.010850694444444444,0,0,0.010850694444444444,224.76128472222226,0)" xlink:href="#R"/><use transform="matrix(0.010850694444444444,0,0,0.010850694444444444,231.81423611111114,0)" xlink:href="#av"/><use transform="matrix(0.010850694444444444,0,0,0.010850694444444444,246.0177951388889,0)" xlink:href="#V"/><use transform="matrix(0.010850694444444444,0,0,0.010850694444444444,258.49609375,0)" xlink:href="#ai"/><use transform="matrix(0.010850694444444444,0,0,0.010850694444444444,263.87803819444446,0)" xlink:href="#aw"/><use transform="matrix(0.010850694444444444,0,0,0.010850694444444444,277.0182291666667,0)" xlink:href="#S"/><use transform="matrix(0.010850694444444444,0,0,0.010850694444444444,289.72439236111114,0)" xlink:href="#ap"/></g><g id="k"><use transform="matrix(0.010850694444444444,0,0,0.010850694444444444,0,0)" xlink:href="#ac"/><use transform="matrix(0.010850694444444444,0,0,0.010850694444444444,16.23263888888889,0)" xlink:href="#ad"/><use transform="matrix(0.010850694444444444,0,0,0.010850694444444444,33.224826388888886,0)" xlink:href="#ab"/><use transform="matrix(0.010850694444444444,0,0,0.010850694444444444,49.967447916666664,0)" xlink:href="#ab"/><use transform="matrix(0.010850694444444444,0,0,0.010850694444444444,66.71006944444444,0)" xlink:href="#Y"/><use transform="matrix(0.010850694444444444,0,0,0.010850694444444444,80.06727430555556,0)" xlink:href="#ac"/><use transform="matrix(0.010850694444444444,0,0,0.010850694444444444,96.29991319444444,0)" xlink:href="#U"/><use transform="matrix(0.010850694444444444,0,0,0.010850694444444444,110.64453125,0)" xlink:href="#Y"/><use transform="matrix(0.010850694444444444,0,0,0.010850694444444444,124.0017361111111,0)" xlink:href="#ae"/></g><path fill="#333" d="M628 22C291 22 81-210 81-554c0-346 210-578 547-578 265 0 455 142 497 372l-279 52c-25-116-99-188-215-188-160 0-244 139-244 341 0 200 84 341 244 341 116 0 193-74 217-195l279 51C1085-123 896 22 628 22" id="ax"/><path fill="#333" d="M128 0v-1118h278l12 217c60-163 185-234 319-234 143 0 236 81 288 251 63-172 205-251 359-251 205 0 357 138 357 381V0h-301v-697c0-126-76-187-177-187-114 0-184 79-184 196V0H789v-705c0-109-72-179-174-179-106 0-187 74-187 208V0H128" id="ay"/><path fill="#333" d="M537 19C279 19 81-185 81-557c0-382 206-575 454-575 190 0 278 113 318 202h10v-560h300V0H868v-179h-15C812-89 719 19 537 19zm92-241c153 0 240-134 240-336 0-203-86-334-240-334-158 0-240 138-240 334 0 197 84 336 240 336" id="az"/><g id="l"><use transform="matrix(0.008680555555555556,0,0,0.008680555555555556,0,0)" xlink:href="#ax"/><use transform="matrix(0.008680555555555556,0,0,0.008680555555555556,10.460069444444445,0)" xlink:href="#ay"/><use transform="matrix(0.008680555555555556,0,0,0.008680555555555556,26.68402777777778,0)" xlink:href="#az"/></g><path fill="#333" d="M440 22C227 22 68-92 68-313c0-250 202-322 422-343 195-21 271-24 271-105 0-95-63-149-175-149-116 0-187 57-211 129l-275-46c57-194 237-305 487-305 240 0 474 108 474 379V0H777v-155h-10C713-51 605 22 440 22zm85-211c140 0 238-93 238-211v-121c-37 26-156 42-222 51-111 16-185 59-185 149 0 87 70 132 169 132" id="aA"/><path fill="#333" d="M443 0L31-1118h319c90 293 199 572 268 885 66-313 175-593 264-885h315L784 0H443" id="aB"/><path fill="#333" d="M128 0v-1118h300V0H128zm150-1264c-91 0-165-68-165-154 0-85 74-154 165-154 90 0 165 69 165 154 0 86-75 154-165 154" id="aC"/><path fill="#333" d="M428-1490V0H128v-1490h300" id="aD"/><path fill="#333" d="M754 19C571 19 479-89 437-179h-14V0H128v-1490h300v560h9c41-89 129-202 319-202 248 0 453 193 453 575 0 372-197 576-455 576zm-92-241c156 0 240-139 240-336 0-196-83-334-240-334-154 0-241 131-241 334 0 202 88 336 241 336" id="aE"/><path fill="#333" d="M633 22C291 22 81-200 81-553c0-345 210-579 537-579 292 0 525 185 525 567v84H378c7 183 109 277 260 277 105 0 184-46 216-132l272 51C1071-99 893 22 633 22zM380-669h474c-15-146-94-237-233-237-143 0-229 99-241 237" id="aF"/><g id="m"><use transform="matrix(0.008680555555555556,0,0,0.008680555555555556,0,0)" xlink:href="#aA"/><use transform="matrix(0.008680555555555556,0,0,0.008680555555555556,10.01736111111111,0)" xlink:href="#aB"/><use transform="matrix(0.008680555555555556,0,0,0.008680555555555556,20.50347222222222,0)" xlink:href="#aA"/><use transform="matrix(0.008680555555555556,0,0,0.008680555555555556,30.82465277777778,0)" xlink:href="#aC"/><use transform="matrix(0.008680555555555556,0,0,0.008680555555555556,35.642361111111114,0)" xlink:href="#aD"/><use transform="matrix(0.008680555555555556,0,0,0.008680555555555556,40.46006944444444,0)" xlink:href="#aA"/><use transform="matrix(0.008680555555555556,0,0,0.008680555555555556,50.78125000000001,0)" xlink:href="#aE"/><use transform="matrix(0.008680555555555556,0,0,0.008680555555555556,61.98784722222222,0)" xlink:href="#aD"/><use transform="matrix(0.008680555555555556,0,0,0.008680555555555556,66.80555555555556,0)" xlink:href="#aF"/></g><path fill="#333" d="M182 279v-1860h488v228H471V51h199v228H182" id="aG"/><path fill="#333" d="M135 0v-1490h468l242 684c30 94 76 293 111 455 34-161 80-360 110-455l238-684h470V0h-307c0-447-3-765 11-1227-122 503-246 788-395 1227H826C676-435 552-717 427-1215c15 453 11 775 11 1215H135" id="aH"/><path fill="#333" d="M49 0l509-1490h400L1480 0h-339l-115-346H497L386 0H49zm524-585h374c-75-213-124-402-192-666-66 268-110 453-182 666" id="aI"/><path fill="#333" d="M135 0v-1490h340l471 754c59 97 122 210 187 365-32-387-14-721-19-1119h312V0h-341C855-382 627-689 427-1113c32 420 16 695 20 1113H135" id="aJ"/><path fill="#333" d="M750 21c-371 0-615-218-615-544v-967h305v942c0 174 123 299 310 299s309-125 309-299v-942h306v967c0 326-247 544-615 544" id="aK"/><path fill="#333" d="M135 0v-1490h305v1237h643V0H135" id="aL"/><path fill="#333" d="M102 279V51h199v-1404H102v-228h489V279H102" id="aM"/><g id="n"><use transform="matrix(0.008680555555555556,0,0,0.008680555555555556,0,0)" xlink:href="#aG"/><use transform="matrix(0.008680555555555556,0,0,0.008680555555555556,7.022569444444445,0)" xlink:href="#aH"/><use transform="matrix(0.008680555555555556,0,0,0.008680555555555556,23.585069444444443,0)" xlink:href="#aI"/><use transform="matrix(0.008680555555555556,0,0,0.008680555555555556,36.857638888888886,0)" xlink:href="#aJ"/><use transform="matrix(0.008680555555555556,0,0,0.008680555555555556,50.40798611111111,0)" xlink:href="#aK"/><use transform="matrix(0.008680555555555556,0,0,0.008680555555555556,63.072916666666664,0)" xlink:href="#aI"/><use transform="matrix(0.008680555555555556,0,0,0.008680555555555556,76.34548611111111,0)" xlink:href="#aL"/><use transform="matrix(0.008680555555555556,0,0,0.008680555555555556,86.39756944444444,0)" xlink:href="#aM"/></g><path fill="#333" d="M768-1560L288 224H28l480-1784h260" id="aN"/><use transform="matrix(0.008680555555555556,0,0,0.008680555555555556,0,0)" xlink:href="#aN" id="o"/><path fill="#333" d="M342 19c-98 0-173-75-173-172s75-172 173-172 173 75 173 172S440 19 342 19" id="aO"/><path fill="#333" d="M572 22C302 22 117-98 78-306l279-48c29 105 101 156 224 156 114 0 185-48 185-115 0-118-228-130-337-155-215-49-322-150-322-317 0-215 187-347 470-347 265 0 424 116 466 298l-266 47c-24-76-87-130-196-130-98 0-174 46-174 113 0 56 38 95 144 117l201 40c216 44 320 143 320 302 0 220-207 367-500 367" id="aP"/><path fill="#333" d="M625 442c-280 0-454-114-503-274l258-72c28 63 97 128 243 128 153 0 246-69 246-216v-206h-23C805-108 717-16 536-16 284-16 81-191 81-561c0-378 208-571 456-571 188 0 280 113 321 202h13v-188h295V-9c0 303-226 451-541 451zm5-686c153 0 240-119 240-319 0-198-86-329-240-329-158 0-241 137-241 329 0 195 85 319 241 319" id="aQ"/><path fill="#333" d="M169-607c0-330 107-732 258-974h279c-145 311-231 674-231 974 0 262 67 512 231 886H427C258-1 169-307 169-607" id="aR"/><path fill="#333" d="M233-870l-31-620h289l-30 620H233zm435 0l-30-620h289l-30 620H668" id="aS"/><path fill="#333" d="M67 279c166-379 230-627 230-886 0-300-86-663-230-974h278c151 241 258 644 258 974 0 302-90 608-258 886H67" id="aT"/><g id="p"><use transform="matrix(0.008680555555555556,0,0,0.008680555555555556,0,0)" xlink:href="#aD"/><use transform="matrix(0.008680555555555556,0,0,0.008680555555555556,4.817708333333334,0)" xlink:href="#ax"/><use transform="matrix(0.008680555555555556,0,0,0.008680555555555556,15.277777777777779,0)" xlink:href="#az"/><use transform="matrix(0.008680555555555556,0,0,0.008680555555555556,26.484375,0)" xlink:href="#aO"/><use transform="matrix(0.008680555555555556,0,0,0.008680555555555556,32.421875,0)" xlink:href="#ay"/><use transform="matrix(0.008680555555555556,0,0,0.008680555555555556,48.645833333333336,0)" xlink:href="#aP"/><use transform="matrix(0.008680555555555556,0,0,0.008680555555555556,58.60243055555556,0)" xlink:href="#aQ"/><use transform="matrix(0.008680555555555556,0,0,0.008680555555555556,69.83506944444444,0)" xlink:href="#aR"/><use transform="matrix(0.008680555555555556,0,0,0.008680555555555556,76.53645833333331,0)" xlink:href="#aS"/><use transform="matrix(0.008680555555555556,0,0,0.008680555555555556,86.34548611111111,0)" xlink:href="#aH"/><use transform="matrix(0.008680555555555556,0,0,0.008680555555555556,102.90798611111111,0)" xlink:href="#aI"/><use transform="matrix(0.008680555555555556,0,0,0.008680555555555556,116.18055555555556,0)" xlink:href="#aJ"/><use transform="matrix(0.008680555555555556,0,0,0.008680555555555556,129.73090277777777,0)" xlink:href="#aK"/><use transform="matrix(0.008680555555555556,0,0,0.008680555555555556,142.39583333333331,0)" xlink:href="#aI"/><use transform="matrix(0.008680555555555556,0,0,0.008680555555555556,155.66840277777777,0)" xlink:href="#aL"/><use transform="matrix(0.008680555555555556,0,0,0.008680555555555556,164.10590277777777,0)" xlink:href="#aS"/><use transform="matrix(0.008680555555555556,0,0,0.008680555555555556,173.91493055555554,0)" xlink:href="#aT"/></g><path fill="#333" d="M75-1237v-253h1217v253H837V0H531v-1237H75" id="aU"/><path fill="#333" d="M789 20C394 20 94-260 94-744c0-487 300-766 695-766s695 279 695 766c0 485-300 764-695 764zm0-271c231 0 385-174 385-493 0-321-154-495-385-495s-385 175-385 495c0 319 154 493 385 493" id="aV"/><path fill="#333" d="M440-1490V0H135v-1490h305" id="aW"/><path fill="#333" d="M786 20C389 20 94-260 94-744c0-487 299-766 692-766 339 0 597 194 641 529h-309c-28-162-156-258-326-258-233 0-388 179-388 495 0 323 157 493 387 493 170 0 298-97 328-259h309c-34 277-266 530-642 530" id="aX"/><g id="q"><use transform="matrix(0.008680555555555556,0,0,0.008680555555555556,0,0)" xlink:href="#aG"/><use transform="matrix(0.008680555555555556,0,0,0.008680555555555556,6.701388888888889,0)" xlink:href="#aI"/><use transform="matrix(0.008680555555555556,0,0,0.008680555555555556,19.62673611111111,0)" xlink:href="#aK"/><use transform="matrix(0.008680555555555556,0,0,0.008680555555555556,32.638888888888886,0)" xlink:href="#aU"/><use transform="matrix(0.008680555555555556,0,0,0.008680555555555556,43.940972222222214,0)" xlink:href="#aV"/><use transform="matrix(0.008680555555555556,0,0,0.008680555555555556,57.638888888888886,0)" xlink:href="#aH"/><use transform="matrix(0.008680555555555556,0,0,0.008680555555555556,74.20138888888889,0)" xlink:href="#aI"/><use transform="matrix(0.008680555555555556,0,0,0.008680555555555556,85.89409722222221,0)" xlink:href="#aU"/><use transform="matrix(0.008680555555555556,0,0,0.008680555555555556,97.76041666666666,0)" xlink:href="#aW"/><use transform="matrix(0.008680555555555556,0,0,0.008680555555555556,102.7517361111111,0)" xlink:href="#aX"/><use transform="matrix(0.008680555555555556,0,0,0.008680555555555556,115.90277777777777,0)" xlink:href="#aM"/></g><use transform="matrix(0.008680555555555556,0,0,0.008680555555555556,0,0)" xlink:href="#aN" id="r"/><g id="s"><use transform="matrix(0.008680555555555556,0,0,0.008680555555555556,0,0)" xlink:href="#aD"/><use transform="matrix(0.008680555555555556,0,0,0.008680555555555556,4.817708333333334,0)" xlink:href="#ax"/><use transform="matrix(0.008680555555555556,0,0,0.008680555555555556,15.277777777777779,0)" xlink:href="#az"/><use transform="matrix(0.008680555555555556,0,0,0.008680555555555556,26.484375,0)" xlink:href="#aO"/><use transform="matrix(0.008680555555555556,0,0,0.008680555555555556,32.421875,0)" xlink:href="#ay"/><use transform="matrix(0.008680555555555556,0,0,0.008680555555555556,48.645833333333336,0)" xlink:href="#aP"/><use transform="matrix(0.008680555555555556,0,0,0.008680555555555556,58.60243055555556,0)" xlink:href="#aQ"/><use transform="matrix(0.008680555555555556,0,0,0.008680555555555556,69.83506944444444,0)" xlink:href="#aR"/><use transform="matrix(0.008680555555555556,0,0,0.008680555555555556,76.53645833333331,0)" xlink:href="#aS"/><use transform="matrix(0.008680555555555556,0,0,0.008680555555555556,84.93923611111111,0)" xlink:href="#aI"/><use transform="matrix(0.008680555555555556,0,0,0.008680555555555556,97.86458333333333,0)" xlink:href="#aK"/><use transform="matrix(0.008680555555555556,0,0,0.008680555555555556,110.87673611111111,0)" xlink:href="#aU"/><use transform="matrix(0.008680555555555556,0,0,0.008680555555555556,122.17881944444444,0)" xlink:href="#aV"/><use transform="matrix(0.008680555555555556,0,0,0.008680555555555556,135.87673611111111,0)" xlink:href="#aH"/><use transform="matrix(0.008680555555555556,0,0,0.008680555555555556,152.43923611111111,0)" xlink:href="#aI"/><use transform="matrix(0.008680555555555556,0,0,0.008680555555555556,164.13194444444446,0)" xlink:href="#aU"/><use transform="matrix(0.008680555555555556,0,0,0.008680555555555556,175.9982638888889,0)" xlink:href="#aW"/><use transform="matrix(0.008680555555555556,0,0,0.008680555555555556,180.98958333333337,0)" xlink:href="#aX"/><use transform="matrix(0.008680555555555556,0,0,0.008680555555555556,194.14062500000003,0)" xlink:href="#aS"/><use transform="matrix(0.008680555555555556,0,0,0.008680555555555556,203.9496527777778,0)" xlink:href="#aT"/></g><g id="t"><use transform="matrix(0.008680555555555556,0,0,0.008680555555555556,0,0)" xlink:href="#aB"/><use transform="matrix(0.008680555555555556,0,0,0.008680555555555556,10.703125000000002,0)" xlink:href="#aD"/><use transform="matrix(0.008680555555555556,0,0,0.008680555555555556,15.520833333333336,0)" xlink:href="#aA"/><use transform="matrix(0.008680555555555556,0,0,0.008680555555555556,25.538194444444446,0)" xlink:href="#aB"/><use transform="matrix(0.008680555555555556,0,0,0.008680555555555556,35.876736111111114,0)" xlink:href="#aF"/></g><g id="u"><use transform="matrix(0.008680555555555556,0,0,0.008680555555555556,0,0)" xlink:href="#ax"/><use transform="matrix(0.008680555555555556,0,0,0.008680555555555556,10.460069444444445,0)" xlink:href="#ay"/><use transform="matrix(0.008680555555555556,0,0,0.008680555555555556,26.68402777777778,0)" xlink:href="#az"/></g><g id="v"><use transform="matrix(0.008680555555555556,0,0,0.008680555555555556,0,0)" xlink:href="#aA"/><use transform="matrix(0.008680555555555556,0,0,0.008680555555555556,10.01736111111111,0)" xlink:href="#aB"/><use transform="matrix(0.008680555555555556,0,0,0.008680555555555556,20.50347222222222,0)" xlink:href="#aA"/><use transform="matrix(0.008680555555555556,0,0,0.008680555555555556,30.82465277777778,0)" xlink:href="#aC"/><use transform="matrix(0.008680555555555556,0,0,0.008680555555555556,35.642361111111114,0)" xlink:href="#aD"/><use transform="matrix(0.008680555555555556,0,0,0.008680555555555556,40.46006944444444,0)" xlink:href="#aA"/><use transform="matrix(0.008680555555555556,0,0,0.008680555555555556,50.78125000000001,0)" xlink:href="#aE"/><use transform="matrix(0.008680555555555556,0,0,0.008680555555555556,61.98784722222222,0)" xlink:href="#aD"/><use transform="matrix(0.008680555555555556,0,0,0.008680555555555556,66.80555555555556,0)" xlink:href="#aF"/></g><path fill="#333" d="M683-1118v229H474v562c0 71 29 104 102 104 23 0 73-7 95-13l43 225C647 9 580 16 520 16 296 16 174-96 174-301v-588H20v-229h154v-266h300v266h209" id="aY"/><path fill="#333" d="M975 0v231H0V0h975" id="aZ"/><path fill="#333" d="M128 418v-1536h295v188h14c41-89 129-202 319-202 248 0 453 193 453 575 0 372-197 576-455 576-183 0-275-108-317-198h-9v597H128zm534-640c156 0 240-139 240-336 0-196-83-334-240-334-154 0-241 131-241 334 0 202 88 336 241 336" id="ba"/><path fill="#333" d="M628 22C291 22 81-210 81-554c0-346 210-578 547-578 336 0 547 232 547 578 0 344-211 576-547 576zm0-236c160 0 242-146 242-341 0-197-82-341-242-341S387-753 387-555c0 195 81 341 241 341" id="bb"/><path fill="#333" d="M428-647V0H128v-1118h283l4 231c63-156 176-245 348-245 232 0 384 159 384 421V0H847v-659c0-139-76-222-202-222-128 0-217 86-217 234" id="bc"/><path fill="#333" d="M513 14c-232 0-385-159-385-421v-711h300v659c0 139 76 222 202 222 127 0 217-86 217-234v-647h301V0H864l-4-232C797-74 683 14 513 14" id="bd"/><g id="w"><use transform="matrix(0.008680555555555556,0,0,0.008680555555555556,0,0)" xlink:href="#aP"/><use transform="matrix(0.008680555555555556,0,0,0.008680555555555556,9.956597222222223,0)" xlink:href="#aF"/><use transform="matrix(0.008680555555555556,0,0,0.008680555555555556,20.546875,0)" xlink:href="#aY"/><use transform="matrix(0.008680555555555556,0,0,0.008680555555555556,27.057291666666668,0)" xlink:href="#aZ"/><use transform="matrix(0.008680555555555556,0,0,0.008680555555555556,34.114583333333336,0)" xlink:href="#aB"/><use transform="matrix(0.008680555555555556,0,0,0.008680555555555556,44.60069444444445,0)" xlink:href="#aA"/><use transform="matrix(0.008680555555555556,0,0,0.008680555555555556,54.921875,0)" xlink:href="#aD"/><use transform="matrix(0.008680555555555556,0,0,0.008680555555555556,59.921875,0)" xlink:href="#aB"/><use transform="matrix(0.008680555555555556,0,0,0.008680555555555556,70.26041666666667,0)" xlink:href="#aF"/><use transform="matrix(0.008680555555555556,0,0,0.008680555555555556,80.85069444444446,0)" xlink:href="#aZ"/><use transform="matrix(0.008680555555555556,0,0,0.008680555555555556,89.91319444444447,0)" xlink:href="#ba"/><use transform="matrix(0.008680555555555556,0,0,0.008680555555555556,101.11979166666669,0)" xlink:href="#bb"/><use transform="matrix(0.008680555555555556,0,0,0.008680555555555556,112.02256944444444,0)" xlink:href="#aP"/><use transform="matrix(0.008680555555555556,0,0,0.008680555555555556,121.97916666666669,0)" xlink:href="#aC"/><use transform="matrix(0.008680555555555556,0,0,0.008680555555555556,126.79687500000003,0)" xlink:href="#aY"/><use transform="matrix(0.008680555555555556,0,0,0.008680555555555556,133.30729166666669,0)" xlink:href="#aC"/><use transform="matrix(0.008680555555555556,0,0,0.008680555555555556,138.12500000000003,0)" xlink:href="#bb"/><use transform="matrix(0.008680555555555556,0,0,0.008680555555555556,149.02777777777777,0)" xlink:href="#bc"/><use transform="matrix(0.008680555555555556,0,0,0.008680555555555556,160.09548611111114,0)" xlink:href="#aR"/><use transform="matrix(0.008680555555555556,0,0,0.008680555555555556,166.79687500000003,0)" xlink:href="#aB"/><use transform="matrix(0.008680555555555556,0,0,0.008680555555555556,177.28298611111114,0)" xlink:href="#aA"/><use transform="matrix(0.008680555555555556,0,0,0.008680555555555556,187.60416666666669,0)" xlink:href="#aD"/><use transform="matrix(0.008680555555555556,0,0,0.008680555555555556,192.60416666666669,0)" xlink:href="#aB"/><use transform="matrix(0.008680555555555556,0,0,0.008680555555555556,202.94270833333337,0)" xlink:href="#aF"/><use transform="matrix(0.008680555555555556,0,0,0.008680555555555556,213.53298611111114,0)" xlink:href="#aZ"/><use transform="matrix(0.008680555555555556,0,0,0.008680555555555556,221.9965277777778,0)" xlink:href="#ax"/><use transform="matrix(0.008680555555555556,0,0,0.008680555555555556,232.45659722222226,0)" xlink:href="#ay"/><use transform="matrix(0.008680555555555556,0,0,0.008680555555555556,248.6805555555556,0)" xlink:href="#az"/><use transform="matrix(0.008680555555555556,0,0,0.008680555555555556,259.8871527777778,0)" xlink:href="#aO"/><use transform="matrix(0.008680555555555556,0,0,0.008680555555555556,265.8246527777778,0)" xlink:href="#aB"/><use transform="matrix(0.008680555555555556,0,0,0.008680555555555556,276.31076388888897,0)" xlink:href="#aA"/><use transform="matrix(0.008680555555555556,0,0,0.008680555555555556,286.6319444444445,0)" xlink:href="#aD"/><use transform="matrix(0.008680555555555556,0,0,0.008680555555555556,291.4496527777778,0)" xlink:href="#bd"/><use transform="matrix(0.008680555555555556,0,0,0.008680555555555556,302.51736111111114,0)" xlink:href="#aF"/><use transform="matrix(0.008680555555555556,0,0,0.008680555555555556,312.88194444444446,0)" xlink:href="#aT"/></g><g id="x"><use transform="matrix(0.008680555555555556,0,0,0.008680555555555556,0,0)" xlink:href="#aD"/><use transform="matrix(0.008680555555555556,0,0,0.008680555555555556,4.817708333333334,0)" xlink:href="#ax"/><use transform="matrix(0.008680555555555556,0,0,0.008680555555555556,15.277777777777779,0)" xlink:href="#az"/><use transform="matrix(0.008680555555555556,0,0,0.008680555555555556,26.484375,0)" xlink:href="#aO"/><use transform="matrix(0.008680555555555556,0,0,0.008680555555555556,32.421875,0)" xlink:href="#ay"/><use transform="matrix(0.008680555555555556,0,0,0.008680555555555556,48.645833333333336,0)" xlink:href="#aP"/><use transform="matrix(0.008680555555555556,0,0,0.008680555555555556,58.60243055555556,0)" xlink:href="#aQ"/><use transform="matrix(0.008680555555555556,0,0,0.008680555555555556,69.83506944444444,0)" xlink:href="#aR"/><use transform="matrix(0.008680555555555556,0,0,0.008680555555555556,76.53645833333331,0)" xlink:href="#aS"/><use transform="matrix(0.008680555555555556,0,0,0.008680555555555556,84.93923611111111,0)" xlink:href="#aI"/><use transform="matrix(0.008680555555555556,0,0,0.008680555555555556,97.86458333333333,0)" xlink:href="#aK"/><use transform="matrix(0.008680555555555556,0,0,0.008680555555555556,110.87673611111111,0)" xlink:href="#aU"/><use transform="matrix(0.008680555555555556,0,0,0.008680555555555556,122.17881944444444,0)" xlink:href="#aV"/><use transform="matrix(0.008680555555555556,0,0,0.008680555555555556,135.87673611111111,0)" xlink:href="#aH"/><use transform="matrix(0.008680555555555556,0,0,0.008680555555555556,152.43923611111111,0)" xlink:href="#aI"/><use transform="matrix(0.008680555555555556,0,0,0.008680555555555556,164.13194444444446,0)" xlink:href="#aU"/><use transform="matrix(0.008680555555555556,0,0,0.008680555555555556,175.9982638888889,0)" xlink:href="#aW"/><use transform="matrix(0.008680555555555556,0,0,0.008680555555555556,180.98958333333337,0)" xlink:href="#aX"/><use transform="matrix(0.008680555555555556,0,0,0.008680555555555556,194.14062500000003,0)" xlink:href="#aS"/><use transform="matrix(0.008680555555555556,0,0,0.008680555555555556,203.9496527777778,0)" xlink:href="#aT"/></g><path fill="#333" d="M135 0v-1490h997v253H440v360h640v249H440v375h694V0H135" id="be"/><path fill="#333" d="M659 0H135v-1490h529c448 0 721 280 721 744 0 466-273 746-726 746zM440-263h204c287 0 437-148 437-483 0-333-150-481-435-481H440v964" id="bf"/><g id="y"><use transform="matrix(0.008680555555555556,0,0,0.008680555555555556,0,0)" xlink:href="#aG"/><use transform="matrix(0.008680555555555556,0,0,0.008680555555555556,6.701388888888889,0)" xlink:href="#aK"/><use transform="matrix(0.008680555555555556,0,0,0.008680555555555556,19.713541666666668,0)" xlink:href="#aJ"/><use transform="matrix(0.008680555555555556,0,0,0.008680555555555556,33.26388888888889,0)" xlink:href="#aX"/><use transform="matrix(0.008680555555555556,0,0,0.008680555555555556,46.41493055555556,0)" xlink:href="#aV"/><use transform="matrix(0.008680555555555556,0,0,0.008680555555555556,60.11284722222222,0)" xlink:href="#aJ"/><use transform="matrix(0.008680555555555556,0,0,0.008680555555555556,73.66319444444446,0)" xlink:href="#aJ"/><use transform="matrix(0.008680555555555556,0,0,0.008680555555555556,87.21354166666669,0)" xlink:href="#be"/><use transform="matrix(0.008680555555555556,0,0,0.008680555555555556,98.0121527777778,0)" xlink:href="#aX"/><use transform="matrix(0.008680555555555556,0,0,0.008680555555555556,111.16319444444447,0)" xlink:href="#aU"/><use transform="matrix(0.008680555555555556,0,0,0.008680555555555556,123.02951388888891,0)" xlink:href="#be"/><use transform="matrix(0.008680555555555556,0,0,0.008680555555555556,133.82812500000003,0)" xlink:href="#bf"/><use transform="matrix(0.008680555555555556,0,0,0.008680555555555556,146.66666666666669,0)" xlink:href="#aM"/></g><g id="z"><use transform="matrix(0.008680555555555556,0,0,0.008680555555555556,0,0)" xlink:href="#aD"/><use transform="matrix(0.008680555555555556,0,0,0.008680555555555556,4.817708333333334,0)" xlink:href="#ax"/><use transform="matrix(0.008680555555555556,0,0,0.008680555555555556,15.277777777777779,0)" xlink:href="#az"/><use transform="matrix(0.008680555555555556,0,0,0.008680555555555556,26.484375,0)" xlink:href="#aO"/><use transform="matrix(0.008680555555555556,0,0,0.008680555555555556,32.421875,0)" xlink:href="#ay"/><use transform="matrix(0.008680555555555556,0,0,0.008680555555555556,48.645833333333336,0)" xlink:href="#aP"/><use transform="matrix(0.008680555555555556,0,0,0.008680555555555556,58.60243055555556,0)" xlink:href="#aQ"/><use transform="matrix(0.008680555555555556,0,0,0.008680555555555556,69.83506944444444,0)" xlink:href="#aR"/><use transform="matrix(0.008680555555555556,0,0,0.008680555555555556,76.53645833333331,0)" xlink:href="#aS"/><use transform="matrix(0.008680555555555556,0,0,0.008680555555555556,86.34548611111111,0)" xlink:href="#aK"/><use transform="matrix(0.008680555555555556,0,0,0.008680555555555556,99.3576388888889,0)" xlink:href="#aJ"/><use transform="matrix(0.008680555555555556,0,0,0.008680555555555556,112.90798611111111,0)" xlink:href="#aX"/><use transform="matrix(0.008680555555555556,0,0,0.008680555555555556,126.05902777777779,0)" xlink:href="#aV"/><use transform="matrix(0.008680555555555556,0,0,0.008680555555555556,139.75694444444446,0)" xlink:href="#aJ"/><use transform="matrix(0.008680555555555556,0,0,0.008680555555555556,153.30729166666669,0)" xlink:href="#aJ"/><use transform="matrix(0.008680555555555556,0,0,0.008680555555555556,166.8576388888889,0)" xlink:href="#be"/><use transform="matrix(0.008680555555555556,0,0,0.008680555555555556,177.65625000000003,0)" xlink:href="#aX"/><use transform="matrix(0.008680555555555556,0,0,0.008680555555555556,190.80729166666669,0)" xlink:href="#aU"/><use transform="matrix(0.008680555555555556,0,0,0.008680555555555556,202.67361111111114,0)" xlink:href="#be"/><use transform="matrix(0.008680555555555556,0,0,0.008680555555555556,213.47222222222226,0)" xlink:href="#bf"/><use transform="matrix(0.008680555555555556,0,0,0.008680555555555556,226.31076388888889,0)" xlink:href="#aS"/><use transform="matrix(0.008680555555555556,0,0,0.008680555555555556,236.11979166666669,0)" xlink:href="#aT"/></g><g id="A"><use transform="matrix(0.008680555555555556,0,0,0.008680555555555556,0,0)" xlink:href="#aD"/><use transform="matrix(0.008680555555555556,0,0,0.008680555555555556,4.817708333333334,0)" xlink:href="#ax"/><use transform="matrix(0.008680555555555556,0,0,0.008680555555555556,15.277777777777779,0)" xlink:href="#az"/><use transform="matrix(0.008680555555555556,0,0,0.008680555555555556,26.484375,0)" xlink:href="#aO"/><use transform="matrix(0.008680555555555556,0,0,0.008680555555555556,32.421875,0)" xlink:href="#ay"/><use transform="matrix(0.008680555555555556,0,0,0.008680555555555556,48.645833333333336,0)" xlink:href="#aP"/><use transform="matrix(0.008680555555555556,0,0,0.008680555555555556,58.60243055555556,0)" xlink:href="#aQ"/><use transform="matrix(0.008680555555555556,0,0,0.008680555555555556,69.83506944444444,0)" xlink:href="#aR"/><use transform="matrix(0.008680555555555556,0,0,0.008680555555555556,76.53645833333331,0)" xlink:href="#aS"/><use transform="matrix(0.008680555555555556,0,0,0.008680555555555556,86.34548611111111,0)" xlink:href="#aH"/><use transform="matrix(0.008680555555555556,0,0,0.008680555555555556,102.90798611111111,0)" xlink:href="#aI"/><use transform="matrix(0.008680555555555556,0,0,0.008680555555555556,116.18055555555556,0)" xlink:href="#aJ"/><use transform="matrix(0.008680555555555556,0,0,0.008680555555555556,129.73090277777777,0)" xlink:href="#aK"/><use transform="matrix(0.008680555555555556,0,0,0.008680555555555556,142.39583333333331,0)" xlink:href="#aI"/><use transform="matrix(0.008680555555555556,0,0,0.008680555555555556,155.66840277777777,0)" xlink:href="#aL"/><use transform="matrix(0.008680555555555556,0,0,0.008680555555555556,164.10590277777777,0)" xlink:href="#aS"/><use transform="matrix(0.008680555555555556,0,0,0.008680555555555556,173.91493055555554,0)" xlink:href="#aT"/></g><g id="B"><use transform="matrix(0.008680555555555556,0,0,0.008680555555555556,0,0)" xlink:href="#ax"/><use transform="matrix(0.008680555555555556,0,0,0.008680555555555556,10.460069444444445,0)" xlink:href="#bb"/><use transform="matrix(0.008680555555555556,0,0,0.008680555555555556,21.36284722222222,0)" xlink:href="#bc"/><use transform="matrix(0.008680555555555556,0,0,0.008680555555555556,32.43055555555556,0)" xlink:href="#bc"/><use transform="matrix(0.008680555555555556,0,0,0.008680555555555556,43.49826388888889,0)" xlink:href="#aF"/><use transform="matrix(0.008680555555555556,0,0,0.008680555555555556,54.08854166666667,0)" xlink:href="#ax"/><use transform="matrix(0.008680555555555556,0,0,0.008680555555555556,64.54861111111111,0)" xlink:href="#aY"/><use transform="matrix(0.008680555555555556,0,0,0.008680555555555556,71.05902777777779,0)" xlink:href="#aC"/><use transform="matrix(0.008680555555555556,0,0,0.008680555555555556,75.87673611111111,0)" xlink:href="#bb"/><use transform="matrix(0.008680555555555556,0,0,0.008680555555555556,86.77951388888889,0)" xlink:href="#bc"/></g><g id="C"><use transform="matrix(0.008680555555555556,0,0,0.008680555555555556,0,0)" xlink:href="#aY"/><use transform="matrix(0.008680555555555556,0,0,0.008680555555555556,6.510416666666667,0)" xlink:href="#aC"/><use transform="matrix(0.008680555555555556,0,0,0.008680555555555556,11.328125,0)" xlink:href="#ay"/><use transform="matrix(0.008680555555555556,0,0,0.008680555555555556,27.552083333333336,0)" xlink:href="#aF"/><use transform="matrix(0.008680555555555556,0,0,0.008680555555555556,38.142361111111114,0)" xlink:href="#bb"/><use transform="matrix(0.008680555555555556,0,0,0.008680555555555556,49.04513888888889,0)" xlink:href="#bd"/><use transform="matrix(0.008680555555555556,0,0,0.008680555555555556,60.11284722222222,0)" xlink:href="#aY"/></g><path d="M180 0v-1490h901v168H370v510h643v168H370V0H180" id="bg"/><path d="M52 0l541-1490h220L1361 0h-200l-149-416H398L254 0H52zm404-582h497c-103-290-145-390-251-756-108 377-145 460-246 756" id="bh"/><path d="M180 0v-1490h190v1322h690V0H180" id="bi"/><g id="D"><use transform="matrix(0.010850694444444444,0,0,0.010850694444444444,0,0)" xlink:href="#ae"/><use transform="matrix(0.010850694444444444,0,0,0.010850694444444444,16.03732638888889,0)" xlink:href="#Y"/><use transform="matrix(0.010850694444444444,0,0,0.010850694444444444,29.39453125,0)" xlink:href="#bg"/><use transform="matrix(0.010850694444444444,0,0,0.010850694444444444,40.494791666666664,0)" xlink:href="#bh"/><use transform="matrix(0.010850694444444444,0,0,0.010850694444444444,55.392795138888886,0)" xlink:href="#aa"/><use transform="matrix(0.010850694444444444,0,0,0.010850694444444444,71.92925347222221,0)" xlink:href="#bi"/><use transform="matrix(0.010850694444444444,0,0,0.010850694444444444,82.35677083333333,0)" xlink:href="#U"/></g><g id="E"><use transform="matrix(0.010850694444444444,0,0,0.010850694444444444,0,0)" xlink:href="#Q"/><use transform="matrix(0.010850694444444444,0,0,0.010850694444444444,11.729600694444445,0)" xlink:href="#S"/><use transform="matrix(0.010850694444444444,0,0,0.010850694444444444,24.68532986111111,0)" xlink:href="#R"/></g><path d="M677 24c-213 0-288-135-325-197h-20V0H158v-1490h180v551h14c37-59 106-193 324-193 279 0 474 222 474 576 0 356-194 580-473 580zm-27-161c209 0 317-186 317-421 0-232-105-413-317-413-206 0-314 166-314 413 0 249 111 421 314 421" id="bj"/><g id="F"><use transform="matrix(0.010850694444444444,0,0,0.010850694444444444,0,0)" xlink:href="#bj"/><use transform="matrix(0.010850694444444444,0,0,0.010850694444444444,13.606770833333332,0)" xlink:href="#aw"/><use transform="matrix(0.010850694444444444,0,0,0.010850694444444444,26.746961805555554,0)" xlink:href="#R"/><use transform="matrix(0.010850694444444444,0,0,0.010850694444444444,33.47439236111111,0)" xlink:href="#R"/><use transform="matrix(0.010850694444444444,0,0,0.010850694444444444,40.52734375,0)" xlink:href="#aq"/><use transform="matrix(0.010850694444444444,0,0,0.010850694444444444,53.85199652777778,0)" xlink:href="#af"/></g><path d="M128 359l88-567h206L266 359H128zM323-796c-75 0-135-60-135-135s60-135 135-135 135 60 135 135-60 135-135 135" id="bk"/><g id="G"><use transform="matrix(0.010850694444444444,0,0,0.010850694444444444,0,0)" xlink:href="#as"/><use transform="matrix(0.010850694444444444,0,0,0.010850694444444444,12.38064236111111,0)" xlink:href="#V"/><use transform="matrix(0.010850694444444444,0,0,0.010850694444444444,24.85894097222222,0)" xlink:href="#ai"/><use transform="matrix(0.010850694444444444,0,0,0.010850694444444444,30.240885416666664,0)" xlink:href="#aw"/><use transform="matrix(0.010850694444444444,0,0,0.010850694444444444,43.381076388888886,0)" xlink:href="#S"/><use transform="matrix(0.010850694444444444,0,0,0.010850694444444444,56.33680555555555,0)" xlink:href="#bk"/></g><g id="H"><use transform="matrix(0.010850694444444444,0,0,0.010850694444444444,0,0)" xlink:href="#at"/><use transform="matrix(0.010850694444444444,0,0,0.010850694444444444,13.606770833333332,0)" xlink:href="#aq"/><use transform="matrix(0.010850694444444444,0,0,0.010850694444444444,26.931423611111104,0)" xlink:href="#R"/></g><g id="I"><use transform="matrix(0.010850694444444444,0,0,0.010850694444444444,0,0)" xlink:href="#T"/><use transform="matrix(0.010850694444444444,0,0,0.010850694444444444,19.466145833333332,0)" xlink:href="#Q"/><use transform="matrix(0.010850694444444444,0,0,0.010850694444444444,31.195746527777775,0)" xlink:href="#am"/></g><path d="M409 0L70-1118h191c89 329 165 560 243 925 75-353 154-601 240-925h192c85 325 161 564 235 922 77-354 157-598 244-922h191L1267 0h-179c-86-307-176-590-250-913C763-588 675-308 588 0H409" id="bl"/><g id="J"><use transform="matrix(0.010850694444444444,0,0,0.010850694444444444,0,0)" xlink:href="#Q"/><use transform="matrix(0.010850694444444444,0,0,0.010850694444444444,11.729600694444445,0)" xlink:href="#S"/><use transform="matrix(0.010850694444444444,0,0,0.010850694444444444,24.68532986111111,0)" xlink:href="#af"/><use transform="matrix(0.010850694444444444,0,0,0.010850694444444444,37.814670138888886,0)" xlink:href="#ak"/><use transform="matrix(0.010850694444444444,0,0,0.010850694444444444,51.42144097222221,0)" xlink:href="#S"/><use transform="matrix(0.010850694444444444,0,0,0.010850694444444444,64.37717013888889,0)" xlink:href="#ag"/><use transform="matrix(0.010850694444444444,0,0,0.010850694444444444,72.74305555555556,0)" xlink:href="#an"/><use transform="matrix(0.010850694444444444,0,0,0.010850694444444444,80.84852430555556,0)" xlink:href="#ao"/><use transform="matrix(0.010850694444444444,0,0,0.010850694444444444,91.20008680555556,0)" xlink:href="#bl"/><use transform="matrix(0.010850694444444444,0,0,0.010850694444444444,108.984375,0)" xlink:href="#aj"/><use transform="matrix(0.010850694444444444,0,0,0.010850694444444444,121.6796875,0)" xlink:href="#Q"/><use transform="matrix(0.010850694444444444,0,0,0.010850694444444444,133.40928819444446,0)" xlink:href="#ao"/><use transform="matrix(0.010850694444444444,0,0,0.010850694444444444,143.76085069444446,0)" xlink:href="#ap"/><use transform="matrix(0.010850694444444444,0,0,0.010850694444444444,151.86631944444446,0)" xlink:href="#bk"/></g><g id="K"><use transform="matrix(0.010850694444444444,0,0,0.010850694444444444,0,0)" xlink:href="#ai"/><use transform="matrix(0.010850694444444444,0,0,0.010850694444444444,5.381944444444445,0)" xlink:href="#aj"/><use transform="matrix(0.010850694444444444,0,0,0.010850694444444444,18.077256944444443,0)" xlink:href="#ak"/><use transform="matrix(0.010850694444444444,0,0,0.010850694444444444,31.684027777777775,0)" xlink:href="#al"/><use transform="matrix(0.010850694444444444,0,0,0.010850694444444444,38.0859375,0)" xlink:href="#T"/><use transform="matrix(0.010850694444444444,0,0,0.010850694444444444,57.55208333333333,0)" xlink:href="#Q"/><use transform="matrix(0.010850694444444444,0,0,0.010850694444444444,69.28168402777777,0)" xlink:href="#am"/><use transform="matrix(0.010850694444444444,0,0,0.010850694444444444,82.91015625,0)" xlink:href="#an"/><use transform="matrix(0.010850694444444444,0,0,0.010850694444444444,91.015625,0)" xlink:href="#ao"/><use transform="matrix(0.010850694444444444,0,0,0.010850694444444444,101.3671875,0)" xlink:href="#av"/><use transform="matrix(0.010850694444444444,0,0,0.010850694444444444,115.57074652777777,0)" xlink:href="#V"/><use transform="matrix(0.010850694444444444,0,0,0.010850694444444444,128.04904513888889,0)" xlink:href="#ai"/><use transform="matrix(0.010850694444444444,0,0,0.010850694444444444,133.5394965277778,0)" xlink:href="#as"/><use transform="matrix(0.010850694444444444,0,0,0.010850694444444444,145.59461805555557,0)" xlink:href="#S"/><use transform="matrix(0.010850694444444444,0,0,0.010850694444444444,158.22482638888889,0)" xlink:href="#ao"/></g><path d="M593-100v-404H195v-159h398v-403h169v403h398v159H762v404H593" id="bm"/><use transform="matrix(0.010850694444444444,0,0,0.010850694444444444,0,0)" xlink:href="#bm" id="L"/><g id="M"><use transform="matrix(0.010850694444444444,0,0,0.010850694444444444,0,0)" xlink:href="#as"/><use transform="matrix(0.010850694444444444,0,0,0.010850694444444444,12.38064236111111,0)" xlink:href="#V"/><use transform="matrix(0.010850694444444444,0,0,0.010850694444444444,24.85894097222222,0)" xlink:href="#ai"/><use transform="matrix(0.010850694444444444,0,0,0.010850694444444444,30.349392361111104,0)" xlink:href="#as"/><use transform="matrix(0.010850694444444444,0,0,0.010850694444444444,42.404513888888886,0)" xlink:href="#S"/></g><g id="N"><use transform="matrix(0.010850694444444444,0,0,0.010850694444444444,0,0)" xlink:href="#as"/><use transform="matrix(0.010850694444444444,0,0,0.010850694444444444,12.38064236111111,0)" xlink:href="#V"/><use transform="matrix(0.010850694444444444,0,0,0.010850694444444444,24.85894097222222,0)" xlink:href="#ai"/><use transform="matrix(0.010850694444444444,0,0,0.010850694444444444,30.240885416666664,0)" xlink:href="#aw"/><use transform="matrix(0.010850694444444444,0,0,0.010850694444444444,43.381076388888886,0)" xlink:href="#S"/><use transform="matrix(0.010850694444444444,0,0,0.010850694444444444,56.08723958333333,0)" xlink:href="#ap"/></g></defs></g></svg>