<svg xmlns="http://www.w3.org/2000/svg" xmlns:xlink="http://www.w3.org/1999/xlink" xmlns:lucid="lucid" width="840.41" height="324.86"><g transform="translate(721.1647481028906 11560)" lucid:page-tab-id="0_0"><path d="M-2500-13500h7500v2500h-7500z" fill="#fff"/><path d="M-677.04-11473.08c-2 10.86-12.43 18.05-23.3 16.04-10.85-2-18.04-12.43-16.03-23.3 2-10.85 12.43-18.04 23.3-16.03 10.85 2 18.04 12.43 16.03 23.3z" stroke="#000" stroke-width="2"/><path d="M-492.08-11406.32l15.32 5.24 13.54 4 12.72 3.2 12.4 2.54 12.37 2.02 12.64 1.52 13.14 1 9.54.35-.04.95-9.55-.34h-.02l-13.15-1.02h-.02l-12.65-1.52h-.02l-12.4-2.02h-.02l-12.4-2.56h-.02l-12.74-3.2h-.02l-13.56-4v-.02h-.02l-15.34-5.25h-.02l-13.73-5.85h2.42zm-166.93-63.55l16.78 4.2h.02l17.18 5.08v.02h.02l18.6 6.36h.02l22.9 8.94 29.3 12.5h-2.43l-27.24-11.62-22.87-8.92-18.6-6.36-17.16-5.07-16.75-4.2-16.45-3.38.2-.93z" stroke="#3a414a" stroke-width=".05" fill="#3a414a"/><path d="M-675.45-11473.26l-.2.93-.54-.1.14-.42.08-.52z" fill="#3a414a"/><path stroke="#3a414a" stroke-width=".05" fill="#3a414a"/><path d="M-381.05-11385.78l-18.24 10.04-.45-.83 15.97-8.8-6.73-.13v-.95l6.74.14-15.6-9.44.5-.82z" stroke="#3a414a" stroke-width=".05" fill="#3a414a"/><use xlink:href="#a" transform="matrix(1,0,0,1,-616.506667242711,-11432.794665192298) translate(0 17.22222222222222)"/><use xlink:href="#b" transform="matrix(1,0,0,1,-616.506667242711,-11432.794665192298) translate(138.47222222222226 17.22222222222222)"/><use xlink:href="#c" transform="matrix(1,0,0,1,-616.506667242711,-11432.794665192298) translate(160.6857638888889 17.22222222222222)"/><path d="M-720-11554a6 6 0 0 1 6-6h228a6 6 0 0 1 6 6v48a6 6 0 0 1-6 6h-228a6 6 0 0 1-6-6z" fill="none"/><use xlink:href="#d" transform="matrix(1,0,0,1,-720,-11560) translate(67.71592881944444 38.083767361111114)"/><path d="M-224.6-11507.84l-7.46 2.6-6.78 2.67-6.13 2.73-5.55 2.76-5.02 2.75-4.54 2.75-4.12 2.74-3.74 2.7-3.4 2.7-3.08 2.67-2.8 2.63-2.58 2.62-2.34 2.6-2.13 2.58-1.95 2.57-1.78 2.56-1.63 2.55-1.48 2.56-1.35 2.57-1.2 2.6-1.1 2.6-.98 2.6-.87 2.67-.75 2.7-.65 2.76-.53 2.8-.43 2.88-.3 2.95-.2 3.04-.06 2.66-.94-.02.05-2.66v-.02l.18-3.06v-.02l.32-2.97v-.02l.43-2.9.54-2.84.66-2.78v-.02l.76-2.72v-.02l.87-2.68v-.02l1-2.64v-.02l1.1-2.62v-.02l1.23-2.6v-.02l1.36-2.58v-.02l1.5-2.58 1.64-2.6 1.8-2.58v-.02l1.98-2.58v-.02l2.16-2.6 2.36-2.62h.02v-.02l2.58-2.63v-.02l2.84-2.66 3.1-2.7h.02l3.42-2.7 3.77-2.74 4.15-2.75h.02l4.56-2.77 5.05-2.78h.02l5.57-2.77 6.17-2.74 6.8-2.7h.02l7.5-2.6 1.25-.4h3.3zm163.06-.05v.02h.02l8.24 2.87h.02l7.5 2.96 6.8 3.03h.02l6.14 3.04h.02l5.55 3.06 5.03 3.05 4.55 3.02 4.12 3 3.73 2.95h.02l3.37 2.92 3.06 2.88v.02h.02l2.78 2.83v.02l2.54 2.8 2.3 2.8h.02l2.1 2.76v.02l1.9 2.73v.02h.02l1.73 2.73v.02l1.57 2.72 1.43 2.72 1.3 2.73v.02l1.14 2.72h.02l1.02 2.76.9 2.78v.02l.8 2.8v.02l.66 2.83v.02l.56 2.9v.02l.4 2.77-.93.15-.4-2.76-.55-2.88-.66-2.82-.78-2.78-.9-2.74-1-2.73-1.14-2.7-1.27-2.7-1.4-2.7-1.57-2.7-1.72-2.7-1.9-2.72-2.07-2.74-2.28-2.77-2.53-2.8-2.77-2.82-3.04-2.85-3.36-2.9-3.7-2.93-4.08-2.97-4.52-3-5-3.02-5.53-3.04-6.13-3.05-6.77-3-7.47-2.97-8.22-2.86-7.12-2.15h3.3z" stroke="#3a414a" stroke-width=".05" fill="#3a414a"/><path d="M-299.5-11427.3l-.02.52h-.96l.02-.53z" fill="#3a414a"/><path stroke="#3a414a" stroke-width=".05" fill="#3a414a"/><path d="M29.24-11439.7l-9.24 18.65-11.54-17.34.8-.5 10.1 15.16-.44-6.7.95-.07.43 6.7 8.1-16.33z" stroke="#3a414a" stroke-width=".05" fill="#3a414a"/><use xlink:href="#e" transform="matrix(1,0,0,1,-397.15955859501844,-11530.636854962548) translate(0 17.22222222222222)"/><use xlink:href="#f" transform="matrix(1,0,0,1,-397.15955859501844,-11530.636854962548) translate(147.32638888888894 17.22222222222222)"/><use xlink:href="#g" transform="matrix(1,0,0,1,-397.15955859501844,-11530.636854962548) translate(169.60937500000006 17.22222222222222)"/><use xlink:href="#h" transform="matrix(1,0,0,1,-397.15955859501844,-11530.636854962548) translate(395.529513888889 17.22222222222222)"/><use xlink:href="#i" transform="matrix(1,0,0,1,-397.15955859501844,-11530.636854962548) translate(406.6406250000001 17.22222222222222)"/><use xlink:href="#j" transform="matrix(1,0,0,1,-397.15955859501844,-11530.636854962548) translate(451.8229166666668 17.22222222222222)"/><path d="M20.46-11338.5l-.05 2.68v.02l-.18 3.06v.02l-.32 2.97v.02l-.43 2.9-.54 2.84v.02l-.66 2.78v.02l-.76 2.72v.02l-.87 2.68v.02l-1 2.65v.02l-1.1 2.62v.02l-1.23 2.6v.02l-1.36 2.58v.02l-1.5 2.58-1.64 2.6-1.8 2.58v.02l-1.98 2.58v.02l-2.16 2.6-2.36 2.62H.47v.02l-2.58 2.63-2.84 2.66-3.1 2.68h-.02v.02l-3.42 2.7-3.77 2.74-4.15 2.75h-.02l-4.56 2.76H-24l-5.03 2.78h-.02l-5.57 2.77v.02h-.02l-6.15 2.74-6.8 2.7h-.02l-7.5 2.6-2.78.85v-.45h-1.76l4.25-1.3 7.46-2.58 6.78-2.68 6.13-2.74 5.55-2.76 5.02-2.75 4.54-2.75 4.12-2.74 3.74-2.7 3.4-2.7 3.08-2.66 2.8-2.64 2.58-2.62 2.34-2.6 2.13-2.58 1.95-2.57 1.78-2.57 1.63-2.56 1.47-2.56 1.35-2.55 1.2-2.58 1.1-2.6.98-2.63.87-2.66.75-2.7.65-2.76.53-2.8.43-2.88.3-2.95.2-3.05.05-2.66zm-318.98 5.83l.54 2.87.66 2.82.78 2.77.9 2.74 1 2.73 1.14 2.7 1.27 2.7 1.4 2.7 1.57 2.7 1.72 2.7 1.9 2.72 2.07 2.73 2.28 2.77 2.53 2.8 2.76 2.8 3.04 2.87 3.36 2.9 3.7 2.93 4.08 2.97 4.52 3 5 3.02 5.53 3.03 6.13 3.04 6.77 3 7.47 2.97 8.22 2.86 7.12 2.15h-3.3l-4.1-1.24h-.02l-8.24-2.87h-.02l-7.5-2.97-6.8-3.03h-.02l-6.14-3.05h-.02l-5.54-3.06h-.02l-5.02-3.05-4.55-3.02-4.12-3-3.73-2.95h-.02l-3.37-2.92-3.06-2.88v-.02h-.02l-2.78-2.84-2.54-2.82-2.3-2.8h-.02l-2.1-2.76v-.02l-1.9-2.73h-.02l-1.73-2.73v-.02l-1.57-2.72-1.43-2.73-1.3-2.73v-.02l-1.14-2.72h-.02v-.02l-1.02-2.74v-.02l-.9-2.76v-.02l-.8-2.8v-.02l-.66-2.83-.56-2.9v-.02l-.4-2.77.93-.13z" stroke="#3a414a" stroke-width=".05" fill="#3a414a"/><path d="M20.46-11338.47l-.95-.02.02-.5h.96z" fill="#3a414a"/><path stroke="#3a414a" stroke-width=".05" fill="#3a414a"/><path d="M-288.46-11327.4l-.8.53-10.1-15.17.44 6.7-.95.07-.43-6.7-8.1 16.32-.84-.42 9.24-18.66z" stroke="#3a414a" stroke-width=".05" fill="#3a414a"/><g><use xlink:href="#k" transform="matrix(1,0,0,1,-224.1859275160909,-11256.653621682959) translate(0 17.22222222222222)"/><use xlink:href="#l" transform="matrix(1,0,0,1,-224.1859275160909,-11256.653621682959) translate(47.97743055555556 17.22222222222222)"/><use xlink:href="#h" transform="matrix(1,0,0,1,-224.1859275160909,-11256.653621682959) translate(116.77083333333334 17.22222222222222)"/><use xlink:href="#m" transform="matrix(1,0,0,1,-224.1859275160909,-11256.653621682959) translate(127.88194444444446 17.22222222222222)"/></g><path d="M-364-11425.78c-8.84 0-16 7.16-16 16v48c0 8.84 7.16 16 16 16h128c8.84 0 16-7.16 16-16v-48c0-8.84-7.16-16-16-16z" stroke="#000" stroke-width="2" fill="#fff"/><g><use xlink:href="#n" transform="matrix(1,0,0,1,-372,-11417.780059978837) translate(48.03624131944444 40.083767361111114)"/></g><path d="M-44-11420c-8.84 0-16 7.16-16 16v48c0 8.84 7.16 16 16 16H84c8.84 0 16-7.16 16-16v-48c0-8.84-7.16-16-16-16z" stroke="#000" stroke-width="2" fill="#fff"/><g><use xlink:href="#o" transform="matrix(1,0,0,1,-52,-11412) translate(26.530164930555557 40.083767361111114)"/></g><defs><path fill="#333" d="M628 22C291 22 81-210 81-554c0-346 210-578 547-578 265 0 455 142 497 372l-279 52c-25-116-99-188-215-188-160 0-244 139-244 341 0 200 84 341 244 341 116 0 193-74 217-195l279 51C1085-123 896 22 628 22" id="p"/><path fill="#333" d="M513 14c-232 0-385-159-385-421v-711h300v659c0 139 76 222 202 222 127 0 217-86 217-234v-647h301V0H864l-4-232C797-74 683 14 513 14" id="q"/><path fill="#333" d="M128 0v-1118h290v195h12c54-169 184-238 367-200v268c-27-8-86-15-130-15-138 0-239 95-239 234V0H128" id="r"/><path fill="#333" d="M633 22C291 22 81-200 81-553c0-345 210-579 537-579 292 0 525 185 525 567v84H378c7 183 109 277 260 277 105 0 184-46 216-132l272 51C1071-99 893 22 633 22zM380-669h474c-15-146-94-237-233-237-143 0-229 99-241 237" id="s"/><path fill="#333" d="M428-647V0H128v-1118h283l4 231c63-156 176-245 348-245 232 0 384 159 384 421V0H847v-659c0-139-76-222-202-222-128 0-217 86-217 234" id="t"/><path fill="#333" d="M683-1118v229H474v562c0 71 29 104 102 104 23 0 73-7 95-13l43 225C647 9 580 16 520 16 296 16 174-96 174-301v-588H20v-229h154v-266h300v266h209" id="u"/><path fill="#333" d="M135 0v-1490h581c339 0 533 210 533 503 0 295-197 500-540 500H440V0H135zm305-733h220c186 0 274-104 274-254s-88-251-275-251H440v505" id="v"/><path fill="#333" d="M628 22C291 22 81-210 81-554c0-346 210-578 547-578 336 0 547 232 547 578 0 344-211 576-547 576zm0-236c160 0 242-146 242-341 0-197-82-341-242-341S387-753 387-555c0 195 81 341 241 341" id="w"/><path fill="#333" d="M572 22C302 22 117-98 78-306l279-48c29 105 101 156 224 156 114 0 185-48 185-115 0-118-228-130-337-155-215-49-322-150-322-317 0-215 187-347 470-347 265 0 424 116 466 298l-266 47c-24-76-87-130-196-130-98 0-174 46-174 113 0 56 38 95 144 117l201 40c216 44 320 143 320 302 0 220-207 367-500 367" id="x"/><path fill="#333" d="M128 0v-1118h300V0H128zm150-1264c-91 0-165-68-165-154 0-85 74-154 165-154 90 0 165 69 165 154 0 86-75 154-165 154" id="y"/><g id="a"><use transform="matrix(0.008680555555555556,0,0,0.008680555555555556,0,0)" xlink:href="#p"/><use transform="matrix(0.008680555555555556,0,0,0.008680555555555556,10.460069444444445,0)" xlink:href="#q"/><use transform="matrix(0.008680555555555556,0,0,0.008680555555555556,21.52777777777778,0)" xlink:href="#r"/><use transform="matrix(0.008680555555555556,0,0,0.008680555555555556,28.897569444444443,0)" xlink:href="#r"/><use transform="matrix(0.008680555555555556,0,0,0.008680555555555556,35.703125,0)" xlink:href="#s"/><use transform="matrix(0.008680555555555556,0,0,0.008680555555555556,46.29340277777778,0)" xlink:href="#t"/><use transform="matrix(0.008680555555555556,0,0,0.008680555555555556,57.361111111111114,0)" xlink:href="#u"/><use transform="matrix(0.008680555555555556,0,0,0.008680555555555556,63.91493055555556,0)" xlink:href="#v"/><use transform="matrix(0.008680555555555556,0,0,0.008680555555555556,75.28645833333334,0)" xlink:href="#w"/><use transform="matrix(0.008680555555555556,0,0,0.008680555555555556,86.18923611111111,0)" xlink:href="#x"/><use transform="matrix(0.008680555555555556,0,0,0.008680555555555556,96.14583333333334,0)" xlink:href="#y"/><use transform="matrix(0.008680555555555556,0,0,0.008680555555555556,100.96354166666667,0)" xlink:href="#u"/><use transform="matrix(0.008680555555555556,0,0,0.008680555555555556,107.47395833333334,0)" xlink:href="#y"/><use transform="matrix(0.008680555555555556,0,0,0.008680555555555556,112.29166666666667,0)" xlink:href="#w"/><use transform="matrix(0.008680555555555556,0,0,0.008680555555555556,123.19444444444444,0)" xlink:href="#t"/></g><path fill="#333" d="M342-723c-98 0-173-75-173-172s75-172 173-172 173 75 173 172-75 172-173 172zm0 742c-98 0-173-75-173-172s75-172 173-172 173 75 173 172S440 19 342 19" id="z"/><path fill="#333" d="M197-230v-252h997v252H197zm0-479v-251h997v251H197" id="A"/><g id="b"><use transform="matrix(0.008680555555555556,0,0,0.008680555555555556,0,0)" xlink:href="#z"/><use transform="matrix(0.008680555555555556,0,0,0.008680555555555556,5.9375,0)" xlink:href="#A"/></g><path fill="#333" d="M690 20C314 20 94-261 94-744c0-482 221-766 596-766 376 0 597 284 597 766 0 483-219 764-597 764zm0-253c184 0 286-184 286-511 0-328-102-514-286-514-183 0-285 187-285 514s101 511 285 511" id="B"/><use transform="matrix(0.008680555555555556,0,0,0.008680555555555556,0,0)" xlink:href="#B" id="c"/><path d="M600 0L52-1490h200c166 485 304 806 458 1336 156-533 285-846 449-1336h202L819 0H600" id="C"/><path d="M471 26C259 26 90-98 90-318c0-256 228-303 435-329 202-27 287-16 287-108 0-139-79-219-234-219-161 0-248 86-283 164l-173-57c86-203 278-265 451-265 150 0 419 46 419 395V0H815v-152h-12C765-73 660 26 471 26zm31-159c199 0 310-134 310-271v-155c-30 35-226 55-295 64-131 17-246 59-246 186 0 116 97 176 231 176" id="D"/><path d="M338-1490V0H158v-1490h180" id="E"/><path d="M481 0L54-1118h197c107 314 236 620 325 951 87-331 217-637 324-951h197L670 0H481" id="F"/><path d="M628 24c-324 0-524-230-524-574 0-343 198-582 503-582 237 0 487 146 487 559v75H286c9 234 145 362 343 362 132 0 231-58 273-172l174 48C1024-91 857 24 628 24zM287-650h624c-17-190-120-322-304-322-192 0-309 151-320 322" id="G"/><path d="M98-1322v-168h1126v168H757V0H567v-1322H98" id="H"/><path d="M538 24C308 24 148-78 108-271l171-41c32 123 123 178 257 178 156 0 256-77 256-169 0-77-54-128-164-154l-186-44c-203-48-300-148-300-305 0-192 176-326 414-326 230 0 351 112 402 269l-163 42c-31-80-94-158-238-158-133 0-233 69-233 162 0 83 57 129 188 160l169 40c203 48 298 149 298 302 0 196-179 339-441 339" id="I"/><path d="M158 0v-1490h180v865h22l478-493h223L593-638 1096 0H865L456-523 338-412V0H158" id="J"/><g id="d"><use transform="matrix(0.010850694444444444,0,0,0.010850694444444444,0,0)" xlink:href="#C"/><use transform="matrix(0.010850694444444444,0,0,0.010850694444444444,14.20355902777778,0)" xlink:href="#D"/><use transform="matrix(0.010850694444444444,0,0,0.010850694444444444,26.68185763888889,0)" xlink:href="#E"/><use transform="matrix(0.010850694444444444,0,0,0.010850694444444444,32.17230902777778,0)" xlink:href="#F"/><use transform="matrix(0.010850694444444444,0,0,0.010850694444444444,44.22743055555556,0)" xlink:href="#G"/><use transform="matrix(0.010850694444444444,0,0,0.010850694444444444,55.44704861111111,0)" xlink:href="#H"/><use transform="matrix(0.010850694444444444,0,0,0.010850694444444444,68.1640625,0)" xlink:href="#D"/><use transform="matrix(0.010850694444444444,0,0,0.010850694444444444,80.64236111111111,0)" xlink:href="#I"/><use transform="matrix(0.010850694444444444,0,0,0.010850694444444444,92.37196180555556,0)" xlink:href="#J"/></g><path fill="#333" d="M975 0v231H0V0h975" id="K"/><path fill="#333" d="M128 418v-1536h295v188h14c41-89 129-202 319-202 248 0 453 193 453 575 0 372-197 576-455 576-183 0-275-108-317-198h-9v597H128zm534-640c156 0 240-139 240-336 0-196-83-334-240-334-154 0-241 131-241 334 0 202 88 336 241 336" id="L"/><g id="e"><use transform="matrix(0.008680555555555556,0,0,0.008680555555555556,0,0)" xlink:href="#p"/><use transform="matrix(0.008680555555555556,0,0,0.008680555555555556,10.460069444444445,0)" xlink:href="#q"/><use transform="matrix(0.008680555555555556,0,0,0.008680555555555556,21.52777777777778,0)" xlink:href="#r"/><use transform="matrix(0.008680555555555556,0,0,0.008680555555555556,28.897569444444443,0)" xlink:href="#r"/><use transform="matrix(0.008680555555555556,0,0,0.008680555555555556,35.703125,0)" xlink:href="#s"/><use transform="matrix(0.008680555555555556,0,0,0.008680555555555556,46.29340277777778,0)" xlink:href="#t"/><use transform="matrix(0.008680555555555556,0,0,0.008680555555555556,57.361111111111114,0)" xlink:href="#u"/><use transform="matrix(0.008680555555555556,0,0,0.008680555555555556,63.87152777777778,0)" xlink:href="#K"/><use transform="matrix(0.008680555555555556,0,0,0.008680555555555556,72.93402777777779,0)" xlink:href="#L"/><use transform="matrix(0.008680555555555556,0,0,0.008680555555555556,84.14062500000001,0)" xlink:href="#w"/><use transform="matrix(0.008680555555555556,0,0,0.008680555555555556,95.0434027777778,0)" xlink:href="#x"/><use transform="matrix(0.008680555555555556,0,0,0.008680555555555556,105.00000000000004,0)" xlink:href="#y"/><use transform="matrix(0.008680555555555556,0,0,0.008680555555555556,109.81770833333336,0)" xlink:href="#u"/><use transform="matrix(0.008680555555555556,0,0,0.008680555555555556,116.32812500000001,0)" xlink:href="#y"/><use transform="matrix(0.008680555555555556,0,0,0.008680555555555556,121.14583333333336,0)" xlink:href="#w"/><use transform="matrix(0.008680555555555556,0,0,0.008680555555555556,132.04861111111114,0)" xlink:href="#t"/></g><path fill="#333" d="M206-472l-22-1018h323L485-472H206zM346 19c-104 0-177-69-177-169 0-101 73-170 177-170 105 0 178 69 178 170 0 100-73 169-178 169" id="M"/><g id="f"><use transform="matrix(0.008680555555555556,0,0,0.008680555555555556,0,0)" xlink:href="#M"/><use transform="matrix(0.008680555555555556,0,0,0.008680555555555556,6.006944444444445,0)" xlink:href="#A"/></g><path fill="#333" d="M1163 418H863v-597h-10C812-89 719 19 537 19 279 19 81-185 81-557c0-382 206-575 454-575 190 0 278 113 318 202h15v-188h295V418zM629-222c153 0 240-134 240-336 0-203-86-334-240-334-158 0-240 138-240 334 0 197 84 336 240 336" id="N"/><path fill="#333" d="M537 19C279 19 81-185 81-557c0-382 206-575 454-575 190 0 278 113 318 202h10v-560h300V0H868v-179h-15C812-89 719 19 537 19zm92-241c153 0 240-134 240-336 0-203-86-334-240-334-158 0-240 138-240 334 0 197 84 336 240 336" id="O"/><path fill="#333" d="M443 0L31-1118h319c90 293 199 572 268 885 66-313 175-593 264-885h315L784 0H443" id="P"/><path fill="#333" d="M440 22C227 22 68-92 68-313c0-250 202-322 422-343 195-21 271-24 271-105 0-95-63-149-175-149-116 0-187 57-211 129l-275-46c57-194 237-305 487-305 240 0 474 108 474 379V0H777v-155h-10C713-51 605 22 440 22zm85-211c140 0 238-93 238-211v-121c-37 26-156 42-222 51-111 16-185 59-185 149 0 87 70 132 169 132" id="Q"/><path fill="#333" d="M428-1490V0H128v-1490h300" id="R"/><g id="g"><use transform="matrix(0.008680555555555556,0,0,0.008680555555555556,0,0)" xlink:href="#r"/><use transform="matrix(0.008680555555555556,0,0,0.008680555555555556,6.805555555555556,0)" xlink:href="#s"/><use transform="matrix(0.008680555555555556,0,0,0.008680555555555556,17.395833333333336,0)" xlink:href="#N"/><use transform="matrix(0.008680555555555556,0,0,0.008680555555555556,28.602430555555557,0)" xlink:href="#q"/><use transform="matrix(0.008680555555555556,0,0,0.008680555555555556,39.67013888888889,0)" xlink:href="#s"/><use transform="matrix(0.008680555555555556,0,0,0.008680555555555556,50.26041666666667,0)" xlink:href="#x"/><use transform="matrix(0.008680555555555556,0,0,0.008680555555555556,60.21701388888889,0)" xlink:href="#u"/><use transform="matrix(0.008680555555555556,0,0,0.008680555555555556,66.55381944444444,0)" xlink:href="#s"/><use transform="matrix(0.008680555555555556,0,0,0.008680555555555556,77.14409722222223,0)" xlink:href="#O"/><use transform="matrix(0.008680555555555556,0,0,0.008680555555555556,88.67187500000001,0)" xlink:href="#K"/><use transform="matrix(0.008680555555555556,0,0,0.008680555555555556,95.72916666666669,0)" xlink:href="#P"/><use transform="matrix(0.008680555555555556,0,0,0.008680555555555556,106.2152777777778,0)" xlink:href="#Q"/><use transform="matrix(0.008680555555555556,0,0,0.008680555555555556,116.53645833333336,0)" xlink:href="#R"/><use transform="matrix(0.008680555555555556,0,0,0.008680555555555556,121.53645833333336,0)" xlink:href="#P"/><use transform="matrix(0.008680555555555556,0,0,0.008680555555555556,131.87500000000003,0)" xlink:href="#s"/><use transform="matrix(0.008680555555555556,0,0,0.008680555555555556,142.46527777777777,0)" xlink:href="#K"/><use transform="matrix(0.008680555555555556,0,0,0.008680555555555556,151.52777777777777,0)" xlink:href="#L"/><use transform="matrix(0.008680555555555556,0,0,0.008680555555555556,162.73437500000003,0)" xlink:href="#w"/><use transform="matrix(0.008680555555555556,0,0,0.008680555555555556,173.63715277777777,0)" xlink:href="#x"/><use transform="matrix(0.008680555555555556,0,0,0.008680555555555556,183.59375000000003,0)" xlink:href="#y"/><use transform="matrix(0.008680555555555556,0,0,0.008680555555555556,188.41145833333337,0)" xlink:href="#u"/><use transform="matrix(0.008680555555555556,0,0,0.008680555555555556,194.92187500000003,0)" xlink:href="#y"/><use transform="matrix(0.008680555555555556,0,0,0.008680555555555556,199.73958333333337,0)" xlink:href="#w"/><use transform="matrix(0.008680555555555556,0,0,0.008680555555555556,210.64236111111114,0)" xlink:href="#t"/></g><path fill="#333" d="M768-1560L288 224H28l480-1784h260" id="S"/><use transform="matrix(0.008680555555555556,0,0,0.008680555555555556,0,0)" xlink:href="#S" id="h"/><g id="i"><use transform="matrix(0.008680555555555556,0,0,0.008680555555555556,0,0)" xlink:href="#x"/><use transform="matrix(0.008680555555555556,0,0,0.008680555555555556,9.956597222222223,0)" xlink:href="#u"/><use transform="matrix(0.008680555555555556,0,0,0.008680555555555556,16.553819444444446,0)" xlink:href="#Q"/><use transform="matrix(0.008680555555555556,0,0,0.008680555555555556,26.875,0)" xlink:href="#r"/><use transform="matrix(0.008680555555555556,0,0,0.008680555555555556,34.46180555555556,0)" xlink:href="#u"/></g><path fill="#333" d="M128 0v-1118h278l12 217c60-163 185-234 319-234 143 0 236 81 288 251 63-172 205-251 359-251 205 0 357 138 357 381V0h-301v-697c0-126-76-187-177-187-114 0-184 79-184 196V0H789v-705c0-109-72-179-174-179-106 0-187 74-187 208V0H128" id="T"/><path fill="#333" d="M625 442c-280 0-454-114-503-274l258-72c28 63 97 128 243 128 153 0 246-69 246-216v-206h-23C805-108 717-16 536-16 284-16 81-191 81-561c0-378 208-571 456-571 188 0 280 113 321 202h13v-188h295V-9c0 303-226 451-541 451zm5-686c153 0 240-119 240-319 0-198-86-329-240-329-158 0-241 137-241 329 0 195 85 319 241 319" id="U"/><g id="j"><use transform="matrix(0.008680555555555556,0,0,0.008680555555555556,0,0)" xlink:href="#T"/><use transform="matrix(0.008680555555555556,0,0,0.008680555555555556,16.223958333333336,0)" xlink:href="#w"/><use transform="matrix(0.008680555555555556,0,0,0.008680555555555556,26.805555555555557,0)" xlink:href="#P"/><use transform="matrix(0.008680555555555556,0,0,0.008680555555555556,37.46527777777778,0)" xlink:href="#y"/><use transform="matrix(0.008680555555555556,0,0,0.008680555555555556,42.282986111111114,0)" xlink:href="#t"/><use transform="matrix(0.008680555555555556,0,0,0.008680555555555556,53.35069444444445,0)" xlink:href="#U"/></g><g id="k"><use transform="matrix(0.008680555555555556,0,0,0.008680555555555556,0,0)" xlink:href="#O"/><use transform="matrix(0.008680555555555556,0,0,0.008680555555555556,11.206597222222223,0)" xlink:href="#w"/><use transform="matrix(0.008680555555555556,0,0,0.008680555555555556,22.109375,0)" xlink:href="#t"/><use transform="matrix(0.008680555555555556,0,0,0.008680555555555556,33.177083333333336,0)" xlink:href="#s"/></g><g id="l"><use transform="matrix(0.008680555555555556,0,0,0.008680555555555556,0,0)" xlink:href="#T"/><use transform="matrix(0.008680555555555556,0,0,0.008680555555555556,16.223958333333336,0)" xlink:href="#w"/><use transform="matrix(0.008680555555555556,0,0,0.008680555555555556,26.805555555555557,0)" xlink:href="#P"/><use transform="matrix(0.008680555555555556,0,0,0.008680555555555556,37.46527777777778,0)" xlink:href="#y"/><use transform="matrix(0.008680555555555556,0,0,0.008680555555555556,42.282986111111114,0)" xlink:href="#t"/><use transform="matrix(0.008680555555555556,0,0,0.008680555555555556,53.35069444444445,0)" xlink:href="#U"/></g><g id="m"><use transform="matrix(0.008680555555555556,0,0,0.008680555555555556,0,0)" xlink:href="#x"/><use transform="matrix(0.008680555555555556,0,0,0.008680555555555556,9.956597222222223,0)" xlink:href="#u"/><use transform="matrix(0.008680555555555556,0,0,0.008680555555555556,16.29340277777778,0)" xlink:href="#w"/><use transform="matrix(0.008680555555555556,0,0,0.008680555555555556,27.196180555555557,0)" xlink:href="#L"/></g><path d="M370-1490V0H180v-1490h190" id="V"/><path d="M645 0H180v-1490h484c435 0 692 280 692 742 0 466-257 748-711 748zM370-168h263c363 0 539-218 539-580 0-358-176-574-521-574H370v1154" id="W"/><path d="M180 0v-1490h190v1322h690V0H180" id="X"/><path d="M180 0v-1490h908v168H370v486h669v168H370v500h727V0H180" id="Y"/><g id="n"><use transform="matrix(0.010850694444444444,0,0,0.010850694444444444,0,0)" xlink:href="#V"/><use transform="matrix(0.010850694444444444,0,0,0.010850694444444444,5.967881944444445,0)" xlink:href="#W"/><use transform="matrix(0.010850694444444444,0,0,0.010850694444444444,22.005208333333336,0)" xlink:href="#X"/><use transform="matrix(0.010850694444444444,0,0,0.010850694444444444,34.5703125,0)" xlink:href="#Y"/></g><path d="M180 0v-1490h270l367 940c28 72 75 218 110 339 35-117 81-264 110-339l362-940h271V0h-187c2-448-5-837 7-1287-157 497-311 829-483 1287H842C666-458 514-784 354-1284c12 438 5 843 7 1284H180" id="Z"/><path d="M784 20c-382 0-662-292-662-764 0-473 280-766 662-766s660 293 660 766c0 472-278 764-660 764zm0-176c266 0 475-207 475-588 0-383-209-590-475-590-268 0-477 208-477 590 0 380 209 588 477 588" id="aa"/><path d="M180 0v-1490h224l606 953c40 63 108 177 176 312-27-437-7-821-13-1265h190V0h-226C860-448 622-778 356-1262c27 476 11 792 15 1262H180" id="ab"/><path d="M789 20c-398 0-667-293-667-764 0-473 273-766 655-766 315 0 558 198 612 487h-196c-61-191-204-311-415-311-262 0-471 207-471 590 0 380 208 588 482 588 249 0 420-165 425-427H828v-166h572v163c0 370-256 606-611 606" id="ac"/><g id="o"><use transform="matrix(0.010850694444444444,0,0,0.010850694444444444,0,0)" xlink:href="#Z"/><use transform="matrix(0.010850694444444444,0,0,0.010850694444444444,20.07378472222222,0)" xlink:href="#aa"/><use transform="matrix(0.010850694444444444,0,0,0.010850694444444444,36.31727430555556,0)" xlink:href="#C"/><use transform="matrix(0.010850694444444444,0,0,0.010850694444444444,51.64930555555556,0)" xlink:href="#V"/><use transform="matrix(0.010850694444444444,0,0,0.010850694444444444,57.6171875,0)" xlink:href="#ab"/><use transform="matrix(0.010850694444444444,0,0,0.010850694444444444,74.35980902777777,0)" xlink:href="#ac"/></g></defs></g></svg>