<svg xmlns="http://www.w3.org/2000/svg" xmlns:xlink="http://www.w3.org/1999/xlink" xmlns:lucid="lucid" width="3362" height="1912.95"><g transform="translate(-359 10806)" lucid:page-tab-id="0_0"><path d="M-2500-13500h7500v5000h-7500z" fill="#fff"/><path d="M1100-9861.08a6 6 0 0 1 6-6h308a6 6 0 0 1 6 6v200a6 6 0 0 1-6 6h-308a6 6 0 0 1-6-6z" stroke="#000" stroke-width="2" fill="#fff"/><use xlink:href="#a" transform="matrix(1,0,0,1,1108,-9859.077510596646) translate(83.57552083333333 89.95095486111111)"/><use xlink:href="#b" transform="matrix(1,0,0,1,1108,-9859.077510596646) translate(95.44075520833333 122.21657986111111)"/><path d="M360-9845.08a6 6 0 0 1 6-6h308a6 6 0 0 1 6 6v168a6 6 0 0 1-6 6H366a6 6 0 0 1-6-6z" stroke="#000" stroke-width="2" fill="#fff"/><use xlink:href="#c" transform="matrix(1,0,0,1,368,-9843.077510596646) translate(100.66536458333334 90.08376736111111)"/><path d="M853.7-9760.6H681.5v-.95h172.2zm214.92 0h-142.3v-.95h142.3z" stroke="#3a414a" stroke-width=".05" fill="#3a414a"/><path d="M681.52-9760.6H681v-.95h.52z" fill="#3a414a"/><path stroke="#3a414a" stroke-width=".05" fill="#3a414a"/><path d="M1098.3-9761.08l-14.86 14.85-14.85-14.85 14.84-14.85z" fill="#fff"/><path d="M1098.96-9761.08l-15.52 15.52-15.52-15.52 15.52-15.52zm-29.7 0l14.18 14.18 14.18-14.18-14.18-14.17z" stroke="#3a414a" stroke-width=".05" fill="#3a414a"/><use xlink:href="#d" transform="matrix(1,0,0,1,693.1978442601921,-9757.077510596644) translate(0 16.216875)"/><use xlink:href="#e" transform="matrix(1,0,0,1,1070.916494140625,-9800.832256690395) translate(0 16.216875)"/><use xlink:href="#f" transform="matrix(1,0,0,1,853.6967113575392,-9771.83271892998) translate(0 17.22222222222222)"/><path d="M520-9431.08a6 6 0 0 1 6-6h308a6 6 0 0 1 6 6v168a6 6 0 0 1-6 6H526a6 6 0 0 1-6-6z" stroke="#000" stroke-width="2" fill="#fff"/><use xlink:href="#g" transform="matrix(1,0,0,1,528,-9429.077510596646) translate(80.24435763888889 90.08376736111111)"/><path d="M920-9431.08a6 6 0 0 1 6-6h308a6 6 0 0 1 6 6v168a6 6 0 0 1-6 6H926a6 6 0 0 1-6-6z" stroke="#000" stroke-width="2" fill="#fff"/><use xlink:href="#h" transform="matrix(1,0,0,1,928,-9429.077510596646) translate(77.11393229166667 90.08376736111111)"/><path d="M1320-9431.08a6 6 0 0 1 6-6h308a6 6 0 0 1 6 6v168a6 6 0 0 1-6 6h-308a6 6 0 0 1-6-6z" stroke="#000" stroke-width="2" fill="#fff"/><use xlink:href="#i" transform="matrix(1,0,0,1,1328,-9429.077510596646) translate(79.60416666666667 90.08376736111111)"/><path d="M1740-9431.08a6 6 0 0 1 6-6h308a6 6 0 0 1 6 6v168a6 6 0 0 1-6 6h-308a6 6 0 0 1-6-6z" stroke="#000" stroke-width="2" fill="#fff"/><use xlink:href="#j" transform="matrix(1,0,0,1,1748,-9429.077510596646) translate(84.16145833333333 90.08376736111111)"/><path d="M1080.3-9438.48l150.44-197.2" stroke="#3a414a" fill="none"/><path d="M1080.7-9438.2l-.1.12h-1.2l.53-.7z" stroke="#3a414a" stroke-width=".05" fill="#3a414a"/><path d="M1244.17-9653.28l-3.2 24.8-19.87-15.17z" stroke="#3a414a" fill="#fff"/><path d="M680.46-9438.27l499.2-206.94" stroke="#3a414a" fill="none"/><path d="M680.55-9438.08h-1.8l1.54-.63z" stroke="#3a414a" stroke-width=".05" fill="#3a414a"/><path d="M1200.12-9653.7l-15.2 19.84-9.6-23.1z" stroke="#3a414a" fill="#fff"/><path d="M1479.67-9438.46l-170.5-198.07" stroke="#3a414a" fill="none"/><path d="M1480.63-9438.08h-1.26l-.06-.08.73-.62z" stroke="#3a414a" stroke-width=".05" fill="#3a414a"/><path d="M1294.7-9653.32l23.6 8.25-18.93 16.3z" stroke="#3a414a" fill="#fff"/><path d="M1899.54-9438.26l-528.64-207.36" stroke="#3a414a" fill="none"/><path d="M1901.3-9438.08h-1.85l.25-.63z" stroke="#3a414a" stroke-width=".05" fill="#3a414a"/><path d="M1350.28-9653.7l24.7-3.74-9.12 23.27z" stroke="#3a414a" fill="#fff"/><path d="M541-9566.08h1458" stroke="#000" stroke-width="2" stroke-linecap="round" fill="none"/><path d="M1600-9601.08a6 6 0 0 1 6-6h228a6 6 0 0 1 6 6v48a6 6 0 0 1-6 6h-228a6 6 0 0 1-6-6z" fill="none"/><use xlink:href="#k" transform="matrix(1,0,0,1,1600,-9607.077510596646) translate(98.25520833333334 38.083767361111114)"/><path d="M2560-9447.08a6 6 0 0 1 6-6h308a6 6 0 0 1 6 6v200a6 6 0 0 1-6 6h-308a6 6 0 0 1-6-6z" stroke="#000" stroke-width="2" fill="#fff"/><use xlink:href="#l" transform="matrix(1,0,0,1,2568,-9445.077510596646) translate(55.2497829861111 89.95095486111111)"/><use xlink:href="#b" transform="matrix(1,0,0,1,2568,-9445.077510596646) translate(95.44075520833333 122.21657986111111)"/><path d="M2091.38-9347.08h467.12" stroke="#3a414a" stroke-linejoin="round" fill="none"/><path d="M2061.72-9347.08l14.84 14.85 14.85-14.85-14.84-14.85z" stroke="#3a414a" fill="#3a414a"/><path d="M2559-9346.6h-.5v-.95h.5z" stroke="#3a414a" stroke-width=".05" fill="#3a414a"/><use xlink:href="#d" transform="matrix(1,0,0,1,2073.3956005859377,-9327.577510596648) translate(0 16.216875)"/><use xlink:href="#d" transform="matrix(1,0,0,1,2542.995600585937,-9371.332256690395) translate(0 16.216875)"/><path d="M3400-9156.04a6 6 0 0 1 6-6h308a6 6 0 0 1 6 6v168a6 6 0 0 1-6 6h-308a6 6 0 0 1-6-6z" stroke="#000" stroke-width="2" fill="#fff"/><use xlink:href="#m" transform="matrix(1,0,0,1,3408,-9154.037701312041) translate(50.594835069444414 90.08376736111111)"/><path d="M3400-9447.08a6 6 0 0 1 6-6h308a6 6 0 0 1 6 6v168a6 6 0 0 1-6 6h-308a6 6 0 0 1-6-6z" stroke="#000" stroke-width="2" fill="#fff"/><use xlink:href="#n" transform="matrix(1,0,0,1,3408,-9445.077510596646) translate(83.47243923611111 90.08376736111111)"/><path d="M3400-9738.12a6 6 0 0 1 6-6h308a6 6 0 0 1 6 6v168a6 6 0 0 1-6 6h-308a6 6 0 0 1-6-6z" stroke="#000" stroke-width="2" fill="#fff"/><use xlink:href="#o" transform="matrix(1,0,0,1,3408,-9736.11731988125) translate(26.4683159722222 90.08376736111111)"/><path d="M3398.53-9072.22l-495.96-193.45" stroke="#3a414a" fill="none"/><path d="M3399-9072.55v1.02l-.65-.25.35-.9z" stroke="#3a414a" stroke-width=".05" fill="#3a414a"/><path d="M2881.93-9273.7l24.72-3.8-9.1 23.3z" stroke="#3a414a" fill="#fff"/><path d="M3398.5-9360l-494.35 9.42" stroke="#3a414a" fill="none"/><path d="M3399-9359.54h-.5l-.02-.94h.52z" stroke="#3a414a" stroke-width=".05" fill="#3a414a"/><path d="M2882-9350.16l21.4-12.9.5 24.98z" stroke="#3a414a" fill="#fff"/><path d="M3398.54-9653.9l-496.38 220.48" stroke="#3a414a" fill="none"/><path d="M3399-9653.6l-.28.13-.38-.87.66-.3z" stroke="#3a414a" stroke-width=".05" fill="#3a414a"/><path d="M2881.9-9424.43l14.73-20.2 10.14 22.83z" stroke="#3a414a" fill="#fff"/><path d="M3101-8997v-638" stroke="#000" stroke-width="2" stroke-linecap="round" fill="none"/><path d="M2940-9130a6 6 0 0 1 6-6h228a6 6 0 0 1 6 6v48a6 6 0 0 1-6 6h-228a6 6 0 0 1-6-6z" fill="none"/><use xlink:href="#k" transform="matrix(1,0,0,1,2940,-9136) translate(98.25520833333334 38.083767361111114)"/><path d="M3400-10394a6 6 0 0 1 6-6h308a6 6 0 0 1 6 6v200a6 6 0 0 1-6 6h-308a6 6 0 0 1-6-6z" stroke="#000" stroke-width="2" fill="#fff"/><use xlink:href="#p" transform="matrix(1,0,0,1,3408,-10392) translate(18.10785590277777 89.95095486111111)"/><use xlink:href="#b" transform="matrix(1,0,0,1,3408,-10392) translate(95.44075520833333 122.21657986111111)"/><path d="M3560-9775.5v-411" stroke="#3a414a" stroke-linejoin="round" fill="none"/><path d="M3560-9745.83l14.85-14.85-14.85-14.85-14.85 14.85z" stroke="#3a414a" fill="#3a414a"/><path d="M3560.47-10186.5h-.94v-.5h.94z" stroke="#3a414a" stroke-width=".05" fill="#3a414a"/><use xlink:href="#d" transform="matrix(1,0,0,1,3583.5000000000005,-9773.851982768294) translate(0 16.216875)"/><use xlink:href="#d" transform="matrix(1,0,0,1,3545.191201171875,-10178.017744883335) translate(0 16.216875)"/><path d="M2380-10799a6 6 0 0 1 6-6h308a6 6 0 0 1 6 6v168a6 6 0 0 1-6 6h-308a6 6 0 0 1-6-6z" stroke="#000" stroke-width="2" fill="#fff"/><use xlink:href="#q" transform="matrix(1,0,0,1,2388,-10797) translate(62.88324652777776 90.08376736111111)"/><path d="M2380-10529a6 6 0 0 1 6-6h308a6 6 0 0 1 6 6v168a6 6 0 0 1-6 6h-308a6 6 0 0 1-6-6z" stroke="#000" stroke-width="2" fill="#fff"/><use xlink:href="#r" transform="matrix(1,0,0,1,2388,-10527) translate(4.631293402777828 90.08376736111111)"/><path d="M2380-10259a6 6 0 0 1 6-6h308a6 6 0 0 1 6 6v168a6 6 0 0 1-6 6h-308a6 6 0 0 1-6-6z" stroke="#000" stroke-width="2" fill="#fff"/><use xlink:href="#s" transform="matrix(1,0,0,1,2388,-10257) translate(52.173611111111086 90.08376736111111)"/><path d="M2380-9989a6 6 0 0 1 6-6h308a6 6 0 0 1 6 6v168a6 6 0 0 1-6 6h-308a6 6 0 0 1-6-6z" stroke="#000" stroke-width="2" fill="#fff"/><use xlink:href="#t" transform="matrix(1,0,0,1,2388,-9987) translate(69.87109374999999 90.08376736111111)"/><path d="M2701.45-10714.8l676.6 316.9" stroke="#3a414a" fill="none"/><path d="M2701.67-10715.2l-.4.85-.27-.13v-1.05z" stroke="#3a414a" stroke-width=".05" fill="#3a414a"/><path d="M3398.1-10388.5l-24.9 2.12 10.6-22.64z" stroke="#3a414a" fill="#fff"/><path d="M2701.5-10444.92l674.63 105.28" stroke="#3a414a" fill="none"/><path d="M2701.58-10445.4l-.15.95-.43-.07v-.96z" stroke="#3a414a" stroke-width=".05" fill="#3a414a"/><path d="M3398-10336.22l-23.3 9 3.85-24.7z" stroke="#3a414a" fill="#fff"/><path d="M2701.5-10175.08l674.68-115.03" stroke="#3a414a" fill="none"/><path d="M2701.6-10174.62l-.6.1v-.96l.43-.07z" stroke="#3a414a" stroke-width=".05" fill="#3a414a"/><path d="M3398-10293.83l-19.23 15.96-4.2-24.64z" stroke="#3a414a" fill="#fff"/><path d="M2701.47-9966.58l675.9-259" stroke="#3a414a" fill="none"/><path d="M2701.65-9966.14l-.65.25v-1l.3-.13z" stroke="#3a414a" stroke-width=".05" fill="#3a414a"/><path d="M3398.07-10233.5l-15.75 19.43-8.94-23.35z" stroke="#3a414a" fill="#fff"/><path d="M3181-10559v588" stroke="#000" stroke-width="2" stroke-linecap="round" fill="none"/><path d="M3102-10094a6 6 0 0 1 6-6h228a6 6 0 0 1 6 6v48a6 6 0 0 1-6 6h-228a6 6 0 0 1-6-6z" fill="none"/><use xlink:href="#k" transform="matrix(1,0,0,1,3102,-10100) translate(98.25520833333334 38.083767361111114)"/><path d="M500-9060h326.8l33.2 33.2v132.75H500z" stroke="#000" stroke-width="2" fill="#fff"/><path d="M826.8-9059.05v32.24h32.25" stroke="#000" stroke-width="2" fill="#fff"/><use xlink:href="#u" transform="matrix(1,0,0,1,505,-9055) translate(0 55.65277777777778)"/><use xlink:href="#v" transform="matrix(1,0,0,1,505,-9055) translate(62.73871527777778 55.65277777777778)"/><use xlink:href="#w" transform="matrix(1,0,0,1,505,-9055) translate(105.23003472222223 55.65277777777778)"/><use xlink:href="#x" transform="matrix(1,0,0,1,505,-9055) translate(0 87.91840277777777)"/><use xlink:href="#y" transform="matrix(1,0,0,1,505,-9055) translate(95.08463541666667 87.91840277777777)"/><use xlink:href="#z" transform="matrix(1,0,0,1,505,-9055) translate(126.94227430555556 87.91840277777777)"/><use xlink:href="#A" transform="matrix(1,0,0,1,505,-9055) translate(192.58897569444446 87.91840277777777)"/><use xlink:href="#B" transform="matrix(1,0,0,1,505,-9055) translate(291.2434895833333 87.91840277777777)"/><use xlink:href="#C" transform="matrix(1,0,0,1,505,-9055) translate(0 120.18402777777777)"/><use xlink:href="#D" transform="matrix(1,0,0,1,505,-9055) translate(112.92317708333334 120.18402777777777)"/><use xlink:href="#E" transform="matrix(1,0,0,1,505,-9055) translate(137.68446180555557 120.18402777777777)"/><use xlink:href="#F" transform="matrix(1,0,0,1,505,-9055) translate(222.15711805555557 120.18402777777777)"/><path d="M680-9061.5v-4.98m0-4.98v-9.95m0-4.98v-9.96m0-4.97v-9.97m0-4.97v-9.95m0-4.97v-9.95m0-4.98v-9.95m0-4.98v-9.95m0-4.98v-9.95m0-5v-9.94m0-4.98v-9.95m0-4.97v-9.96m0-4.97v-9.95m0-4.98v-4.98" stroke="#3a414a" stroke-linejoin="round" fill="none"/><path d="M680.48-9061h-.96v-.52h.96zM680.48-9255.57h-.96v-.5h.96z" stroke="#3a414a" stroke-width=".05" fill="#3a414a"/><path d="M1300-9060h326.8l33.2 33.2v132.75h-360z" stroke="#000" stroke-width="2" fill="#fff"/><path d="M1626.8-9059.05v32.24h32.25" stroke="#000" stroke-width="2" fill="#fff"/><g><use xlink:href="#G" transform="matrix(1,0,0,1,1305,-9055) translate(0 55.65277777777778)"/><use xlink:href="#H" transform="matrix(1,0,0,1,1305,-9055) translate(67.20920138888889 55.65277777777778)"/><use xlink:href="#I" transform="matrix(1,0,0,1,1305,-9055) translate(0 87.91840277777777)"/><use xlink:href="#J" transform="matrix(1,0,0,1,1305,-9055) translate(145.20399305555557 87.91840277777777)"/><use xlink:href="#K" transform="matrix(1,0,0,1,1305,-9055) translate(212.1310763888889 87.91840277777777)"/><use xlink:href="#L" transform="matrix(1,0,0,1,1305,-9055) translate(257.59548611111114 87.91840277777777)"/><use xlink:href="#M" transform="matrix(1,0,0,1,1305,-9055) translate(0 120.18402777777777)"/><use xlink:href="#N" transform="matrix(1,0,0,1,1305,-9055) translate(32.70399305555556 120.18402777777777)"/><use xlink:href="#F" transform="matrix(1,0,0,1,1305,-9055) translate(96.88585069444444 120.18402777777777)"/></g><path d="M1480-9061.5v-4.98m0-4.98v-9.95m0-4.98v-9.96m0-4.97v-9.97m0-4.97v-9.95m0-4.97v-9.95m0-4.98v-9.95m0-4.98v-9.95m0-4.98v-9.95m0-5v-9.94m0-4.98v-9.95m0-4.97v-9.96m0-4.97v-9.95m0-4.98v-4.98" stroke="#3a414a" stroke-linejoin="round" fill="none"/><path d="M1480.47-9061h-.94v-.52h.94zM1480.47-9255.57h-.94v-.5h.94z" stroke="#3a414a" stroke-width=".05" fill="#3a414a"/><path d="M900-9060h326.8l33.2 33.2v132.75H900z" stroke="#000" stroke-width="2" fill="#fff"/><path d="M1226.8-9059.05v32.24h32.25" stroke="#000" stroke-width="2" fill="#fff"/><g><use xlink:href="#O" transform="matrix(1,0,0,1,905,-9055) translate(0 55.65277777777778)"/><use xlink:href="#P" transform="matrix(1,0,0,1,905,-9055) translate(55.46875000000001 55.65277777777778)"/><use xlink:href="#w" transform="matrix(1,0,0,1,905,-9055) translate(121.06119791666666 55.65277777777778)"/><use xlink:href="#Q" transform="matrix(1,0,0,1,905,-9055) translate(0 87.05729166666667)"/><use xlink:href="#R" transform="matrix(1,0,0,1,905,-9055) translate(110.05208333333336 87.05729166666667)"/><use xlink:href="#S" transform="matrix(1,0,0,1,905,-9055) translate(178.54166666666669 87.05729166666667)"/><use xlink:href="#T" transform="matrix(1,0,0,1,905,-9055) translate(286.9479166666667 87.05729166666667)"/><use xlink:href="#U" transform="matrix(1,0,0,1,905,-9055) translate(0 118.03229166666667)"/><use xlink:href="#V" transform="matrix(1,0,0,1,905,-9055) translate(100.25 118.03229166666667)"/><use xlink:href="#W" transform="matrix(1,0,0,1,905,-9055) translate(172.91666666666669 118.03229166666667)"/><use xlink:href="#X" transform="matrix(1,0,0,1,905,-9055) translate(216.56250000000003 118.03229166666667)"/><use xlink:href="#Y" transform="matrix(1,0,0,1,905,-9055) translate(264.34375 118.03229166666667)"/></g><path d="M1080-9061.5v-4.98m0-4.98v-9.95m0-4.98v-9.96m0-4.97v-9.97m0-4.97v-9.95m0-4.97v-9.95m0-4.98v-9.95m0-4.98v-9.95m0-4.98v-9.95m0-5v-9.94m0-4.98v-9.95m0-4.97v-9.96m0-4.97v-9.95m0-4.98v-4.98" stroke="#3a414a" stroke-linejoin="round" fill="none"/><path d="M1080.47-9061h-.94v-.52h.94zM1080.47-9255.57h-.94v-.5h.94z" stroke="#3a414a" stroke-width=".05" fill="#3a414a"/><defs><path d="M42 0l247-1490h583c327 0 472 170 434 400-27 167-165 271-324 306v12c166 8 304 151 266 380C1211-164 1016 0 681 0H42zm347-251h256c181 0 281-87 300-209 19-118-59-195-209-195H456zm102-613h232c130 0 250-82 272-213 16-99-43-164-187-164H553" id="Z"/><path d="M441 19C184 19 19-186 81-558c63-382 303-574 550-574 189 0 259 113 285 202h10l31-188h299L1071 0H776l29-179h-14C733-87 623 19 441 19zm133-241c154 0 263-135 296-336 34-204-31-334-185-334-159 0-264 139-296 334-33 197 29 336 185 336" id="aa"/><path d="M490 22C212 20 43-104 37-315l281-29c11 104 65 146 186 146 109 0 214-47 222-128 5-51-29-84-119-104l-186-40c-195-42-289-149-277-303 14-232 242-359 510-359 274 2 415 119 430 308l-267 27c-11-76-56-120-162-120-98 0-203 45-211 128-6 50 24 83 118 104l194 40c196 41 291 138 279 289-15 238-265 378-545 378" id="ab"/><path d="M552 24C254 24 71-146 71-432c0-377 264-705 643-705 236 0 413 123 413 326 0 251-270 329-766 342-10 155 35 265 213 267 113 0 207-50 245-134l269 36C1015-105 814 24 552 24zM392-650c368-7 456-43 456-146 0-71-63-115-165-115-165 0-251 126-291 261" id="ac"/><path d="M605 22C247 22 24-145 68-462h297c-14 151 94 226 259 226 162 0 283-76 302-190 17-102-68-149-225-189l-158-41c-235-59-372-183-336-404 43-269 290-450 614-450 328 0 536 182 498 445h-294c8-119-76-188-229-188-156 0-256 72-273 172-30 154 195 185 336 221 239 61 415 185 374 436-45 271-266 446-628 446" id="ad"/><path d="M36 0l185-1118h290l-31 195h12c83-166 210-238 399-200l-45 268c-197-55-375 37-405 219L336 0H36" id="ae"/><path d="M351 0L124-1118h306c41 293 105 569 122 885 117-311 274-592 410-885h328L692 0H351" id="af"/><path d="M36 0l185-1118h300L336 0H36zm359-1264c-91 0-153-69-139-154 14-84 99-154 190-154 89 0 153 67 139 154-14 86-100 154-190 154" id="ag"/><path d="M548 22C250 22 73-164 73-448c0-345 220-684 633-684 269 0 447 145 451 374l-285 48c-6-116-55-186-169-186-226 0-328 261-328 457 0 135 55 225 182 225 119 0 222-77 266-198l271 56C1013-122 815 22 548 22" id="ah"/><g id="a"><use transform="matrix(0.010850694444444444,0,0,0.010850694444444444,0,0)" xlink:href="#Z"/><use transform="matrix(0.010850694444444444,0,0,0.010850694444444444,14.702690972222221,0)" xlink:href="#aa"/><use transform="matrix(0.010850694444444444,0,0,0.010850694444444444,28.721788194444443,0)" xlink:href="#ab"/><use transform="matrix(0.010850694444444444,0,0,0.010850694444444444,41.15668402777777,0)" xlink:href="#ac"/><use transform="matrix(0.010850694444444444,0,0,0.010850694444444444,54.26432291666666,0)" xlink:href="#ad"/><use transform="matrix(0.010850694444444444,0,0,0.010850694444444444,68.80425347222221,0)" xlink:href="#ac"/><use transform="matrix(0.010850694444444444,0,0,0.010850694444444444,81.9118923611111,0)" xlink:href="#ae"/><use transform="matrix(0.010850694444444444,0,0,0.010850694444444444,91.31944444444444,0)" xlink:href="#af"/><use transform="matrix(0.010850694444444444,0,0,0.010850694444444444,104.64409722222221,0)" xlink:href="#ag"/><use transform="matrix(0.010850694444444444,0,0,0.010850694444444444,110.67708333333333,0)" xlink:href="#ah"/><use transform="matrix(0.010850694444444444,0,0,0.010850694444444444,123.74131944444444,0)" xlink:href="#ac"/></g><path d="M134-515c14-91 30-182 45-272 164 1 232-63 257-212l30-175c58-352 268-407 562-407l-37 227c-173 0-226 66-252 209-46 253-12 401-315 483l-4 23c288 80 185 264 155 482C556-13 586 53 758 53l-38 226c-293 0-487-53-428-407l29-174c27-149-26-214-187-213" id="ai"/><path d="M675 19C485 19 405-93 377-185h-16L330 0H35l247-1490h300l-95 560h12c57-95 153-202 335-202 221 0 385 151 385 442 0 320-177 709-544 709zm-85-241c223 0 323-269 323-451 0-133-57-219-180-219-214 0-324 244-324 448 0 137 61 222 181 222" id="aj"/><path d="M776-1118l-37 229H530l-93 562c-12 72 14 104 85 104 23 0 74-7 97-13l5 225C555 8 488 16 426 16 201 16 99-97 132-301l98-588H76l37-229h155l44-266h300l-44 266h208" id="ak"/><path d="M-37 279L1 53c172 0 225-67 252-210 47-252 12-401 314-483l4-22c-290-80-183-265-154-483 19-144-10-209-183-209l37-227c294 0 488 55 429 407l-30 175c-25 149 22 213 187 213l-44 270c-168 1-234 66-258 214l-28 174C469 223 258 279-37 279" id="al"/><g id="b"><use transform="matrix(0.010850694444444444,0,0,0.010850694444444444,0,0)" xlink:href="#ai"/><use transform="matrix(0.010850694444444444,0,0,0.010850694444444444,10.308159722222221,0)" xlink:href="#aa"/><use transform="matrix(0.010850694444444444,0,0,0.010850694444444444,24.327256944444443,0)" xlink:href="#aj"/><use transform="matrix(0.010850694444444444,0,0,0.010850694444444444,38.33550347222222,0)" xlink:href="#ab"/><use transform="matrix(0.010850694444444444,0,0,0.010850694444444444,50.77039930555556,0)" xlink:href="#ak"/><use transform="matrix(0.010850694444444444,0,0,0.010850694444444444,58.93012152777778,0)" xlink:href="#ae"/><use transform="matrix(0.010850694444444444,0,0,0.010850694444444444,67.44791666666667,0)" xlink:href="#aa"/><use transform="matrix(0.010850694444444444,0,0,0.010850694444444444,81.46701388888889,0)" xlink:href="#ah"/><use transform="matrix(0.010850694444444444,0,0,0.010850694444444444,94.53125,0)" xlink:href="#ak"/><use transform="matrix(0.010850694444444444,0,0,0.010850694444444444,102.69097222222224,0)" xlink:href="#al"/></g><path d="M135 0v-1490h997v253H440v360h640v249H440v375h694V0H135" id="am"/><path d="M443 0L31-1118h319c90 293 199 572 268 885 66-313 175-593 264-885h315L784 0H443" id="an"/><path d="M633 22C291 22 81-200 81-553c0-345 210-579 537-579 292 0 525 185 525 567v84H378c7 183 109 277 260 277 105 0 184-46 216-132l272 51C1071-99 893 22 633 22zM380-669h474c-15-146-94-237-233-237-143 0-229 99-241 237" id="ao"/><path d="M428-647V0H128v-1118h283l4 231c63-156 176-245 348-245 232 0 384 159 384 421V0H847v-659c0-139-76-222-202-222-128 0-217 86-217 234" id="ap"/><path d="M683-1118v229H474v562c0 71 29 104 102 104 23 0 73-7 95-13l43 225C647 9 580 16 520 16 296 16 174-96 174-301v-588H20v-229h154v-266h300v266h209" id="aq"/><path d="M135 0v-1490h591c327 0 492 160 492 383 0 177-115 286-268 320v15c168 8 326 140 326 361 0 236-176 411-512 411H135zm305-251h264c179 0 258-76 258-189 0-125-97-215-250-215H440v404zm0-613h241c131 0 228-74 228-194 0-109-79-183-222-183H440v377" id="ar"/><path d="M513 14c-232 0-385-159-385-421v-711h300v659c0 139 76 222 202 222 127 0 217-86 217-234v-647h301V0H864l-4-232C797-74 683 14 513 14" id="as"/><path d="M572 22C302 22 117-98 78-306l279-48c29 105 101 156 224 156 114 0 185-48 185-115 0-118-228-130-337-155-215-49-322-150-322-317 0-215 187-347 470-347 265 0 424 116 466 298l-266 47c-24-76-87-130-196-130-98 0-174 46-174 113 0 56 38 95 144 117l201 40c216 44 320 143 320 302 0 220-207 367-500 367" id="at"/><g id="c"><use transform="matrix(0.010850694444444444,0,0,0.010850694444444444,0,0)" xlink:href="#am"/><use transform="matrix(0.010850694444444444,0,0,0.010850694444444444,13.49826388888889,0)" xlink:href="#an"/><use transform="matrix(0.010850694444444444,0,0,0.010850694444444444,26.42144097222222,0)" xlink:href="#ao"/><use transform="matrix(0.010850694444444444,0,0,0.010850694444444444,39.65928819444444,0)" xlink:href="#ap"/><use transform="matrix(0.010850694444444444,0,0,0.010850694444444444,53.49392361111111,0)" xlink:href="#aq"/><use transform="matrix(0.010850694444444444,0,0,0.010850694444444444,61.686197916666664,0)" xlink:href="#ar"/><use transform="matrix(0.010850694444444444,0,0,0.010850694444444444,76.38888888888889,0)" xlink:href="#as"/><use transform="matrix(0.010850694444444444,0,0,0.010850694444444444,90.22352430555556,0)" xlink:href="#at"/></g><path d="M653-1490V0H466v-1314h-10L96-1047v-204l324-239h233" id="au"/><use transform="matrix(0.008173828125000001,0,0,0.008173828125000001,0,0)" xlink:href="#au" id="d"/><path d="M646 20c-332 0-524-278-524-764 0-483 194-766 524-766s524 283 524 766c0 485-191 764-524 764zm0-166c218 0 341-220 341-598 0-380-123-601-341-601s-341 222-341 601c0 378 123 598 341 598" id="av"/><path d="M295 13c-75 0-135-60-135-135s60-135 135-135 135 60 135 135S370 13 295 13" id="aw"/><path d="M441-652l13-317-268 171-72-126 282-146-282-146 72-128 268 171-13-317h144l-12 317 267-171 72 128-282 146 282 146-72 126-267-171 12 317H441" id="ax"/><g id="e"><use transform="matrix(0.008173828125000001,0,0,0.008173828125000001,0,0)" xlink:href="#av"/><use transform="matrix(0.008173828125000001,0,0,0.008173828125000001,10.135546875000001,0)" xlink:href="#aw"/><use transform="matrix(0.008173828125000001,0,0,0.008173828125000001,14.958105468750002,0)" xlink:href="#aw"/><use transform="matrix(0.008173828125000001,0,0,0.008173828125000001,19.7806640625,0)" xlink:href="#ax"/></g><path fill="#333" d="M128 418v-1536h295v188h14c41-89 129-202 319-202 248 0 453 193 453 575 0 372-197 576-455 576-183 0-275-108-317-198h-9v597H128zm534-640c156 0 240-139 240-336 0-196-83-334-240-334-154 0-241 131-241 334 0 202 88 336 241 336" id="ay"/><path fill="#333" d="M513 14c-232 0-385-159-385-421v-711h300v659c0 139 76 222 202 222 127 0 217-86 217-234v-647h301V0H864l-4-232C797-74 683 14 513 14" id="az"/><path fill="#333" d="M754 19C571 19 479-89 437-179h-14V0H128v-1490h300v560h9c41-89 129-202 319-202 248 0 453 193 453 575 0 372-197 576-455 576zm-92-241c156 0 240-139 240-336 0-196-83-334-240-334-154 0-241 131-241 334 0 202 88 336 241 336" id="aA"/><path fill="#333" d="M768-1560L288 224H28l480-1784h260" id="aB"/><path fill="#333" d="M572 22C302 22 117-98 78-306l279-48c29 105 101 156 224 156 114 0 185-48 185-115 0-118-228-130-337-155-215-49-322-150-322-317 0-215 187-347 470-347 265 0 424 116 466 298l-266 47c-24-76-87-130-196-130-98 0-174 46-174 113 0 56 38 95 144 117l201 40c216 44 320 143 320 302 0 220-207 367-500 367" id="aC"/><g id="f"><use transform="matrix(0.008680555555555556,0,0,0.008680555555555556,0,0)" xlink:href="#ay"/><use transform="matrix(0.008680555555555556,0,0,0.008680555555555556,11.206597222222223,0)" xlink:href="#az"/><use transform="matrix(0.008680555555555556,0,0,0.008680555555555556,22.274305555555557,0)" xlink:href="#aA"/><use transform="matrix(0.008680555555555556,0,0,0.008680555555555556,33.48090277777778,0)" xlink:href="#aB"/><use transform="matrix(0.008680555555555556,0,0,0.008680555555555556,40.38194444444444,0)" xlink:href="#aC"/><use transform="matrix(0.008680555555555556,0,0,0.008680555555555556,50.338541666666664,0)" xlink:href="#az"/><use transform="matrix(0.008680555555555556,0,0,0.008680555555555556,61.40625,0)" xlink:href="#aA"/></g><path d="M135 0v-1490h305v602h649v-602h306V0h-306v-635H440V0H135" id="aD"/><path d="M75-1237v-253h1217v253H837V0H531v-1237H75" id="aE"/><path d="M135 0v-1490h581c339 0 533 210 533 503 0 295-197 500-540 500H440V0H135zm305-733h220c186 0 274-104 274-254s-88-251-275-251H440v505" id="aF"/><path d="M681 22C323 22 94-145 85-462h297c10 151 131 226 296 226 163 0 271-77 271-190 0-102-95-149-257-189l-164-41c-252-61-403-188-403-405 0-269 236-449 560-449 330 0 546 183 551 445H941c-11-119-106-188-259-188-156 0-244 72-244 172-3 156 226 185 373 221 250 61 445 186 445 436 0 271-213 446-575 446" id="aG"/><path d="M128 0v-1118h290v195h12c54-169 184-238 367-200v268c-27-8-86-15-130-15-138 0-239 95-239 234V0H128" id="aH"/><path d="M128 0v-1118h300V0H128zm150-1264c-91 0-165-68-165-154 0-85 74-154 165-154 90 0 165 69 165 154 0 86-75 154-165 154" id="aI"/><path d="M628 22C291 22 81-210 81-554c0-346 210-578 547-578 265 0 455 142 497 372l-279 52c-25-116-99-188-215-188-160 0-244 139-244 341 0 200 84 341 244 341 116 0 193-74 217-195l279 51C1085-123 896 22 628 22" id="aJ"/><g id="g"><use transform="matrix(0.010850694444444444,0,0,0.010850694444444444,0,0)" xlink:href="#aD"/><use transform="matrix(0.010850694444444444,0,0,0.010850694444444444,16.6015625,0)" xlink:href="#aE"/><use transform="matrix(0.010850694444444444,0,0,0.010850694444444444,31.43446180555556,0)" xlink:href="#aE"/><use transform="matrix(0.010850694444444444,0,0,0.010850694444444444,46.26736111111111,0)" xlink:href="#aF"/><use transform="matrix(0.010850694444444444,0,0,0.010850694444444444,60.6662326388889,0)" xlink:href="#aG"/><use transform="matrix(0.010850694444444444,0,0,0.010850694444444444,75.21701388888889,0)" xlink:href="#ao"/><use transform="matrix(0.010850694444444444,0,0,0.010850694444444444,88.45486111111111,0)" xlink:href="#aH"/><use transform="matrix(0.010850694444444444,0,0,0.010850694444444444,97.85156250000001,0)" xlink:href="#an"/><use transform="matrix(0.010850694444444444,0,0,0.010850694444444444,111.1762152777778,0)" xlink:href="#aI"/><use transform="matrix(0.010850694444444444,0,0,0.010850694444444444,117.19835069444446,0)" xlink:href="#aJ"/><use transform="matrix(0.010850694444444444,0,0,0.010850694444444444,130.2734375,0)" xlink:href="#ao"/></g><path d="M135 0v-1490h468l242 684c30 94 76 293 111 455 34-161 80-360 110-455l238-684h470V0h-307c0-447-3-765 11-1227-122 503-246 788-395 1227H826C676-435 552-717 427-1215c15 453 11 775 11 1215H135" id="aK"/><path d="M789 20C394 20 94-260 94-744c0-487 300-766 695-766s695 279 695 766c0 264-89 467-233 597l215 271h-285L1058-29C976 3 886 20 789 20zm-94-532h261l108 139c70-83 110-208 110-371 0-321-154-495-385-495s-385 175-385 495c0 356 184 537 481 482" id="aL"/><g id="h"><use transform="matrix(0.010850694444444444,0,0,0.010850694444444444,0,0)" xlink:href="#aK"/><use transform="matrix(0.010850694444444444,0,0,0.010850694444444444,20.703125,0)" xlink:href="#aL"/><use transform="matrix(0.010850694444444444,0,0,0.010850694444444444,37.26128472222222,0)" xlink:href="#aE"/><use transform="matrix(0.010850694444444444,0,0,0.010850694444444444,52.09418402777778,0)" xlink:href="#aE"/><use transform="matrix(0.010850694444444444,0,0,0.010850694444444444,66.92708333333333,0)" xlink:href="#aG"/><use transform="matrix(0.010850694444444444,0,0,0.010850694444444444,81.47786458333333,0)" xlink:href="#ao"/><use transform="matrix(0.010850694444444444,0,0,0.010850694444444444,94.71571180555556,0)" xlink:href="#aH"/><use transform="matrix(0.010850694444444444,0,0,0.010850694444444444,104.11241319444444,0)" xlink:href="#an"/><use transform="matrix(0.010850694444444444,0,0,0.010850694444444444,117.43706597222221,0)" xlink:href="#aI"/><use transform="matrix(0.010850694444444444,0,0,0.010850694444444444,123.45920138888889,0)" xlink:href="#aJ"/><use transform="matrix(0.010850694444444444,0,0,0.010850694444444444,136.53428819444443,0)" xlink:href="#ao"/></g><path d="M440 22C227 22 68-92 68-313c0-250 202-322 422-343 195-21 271-24 271-105 0-95-63-149-175-149-116 0-187 57-211 129l-275-46c57-194 237-305 487-305 240 0 474 108 474 379V0H777v-155h-10C713-51 605 22 440 22zm85-211c140 0 238-93 238-211v-121c-37 26-156 42-222 51-111 16-185 59-185 149 0 87 70 132 169 132" id="aM"/><path d="M428-1490V0H128v-1490h300" id="aN"/><g id="i"><use transform="matrix(0.010850694444444444,0,0,0.010850694444444444,0,0)" xlink:href="#aG"/><use transform="matrix(0.010850694444444444,0,0,0.010850694444444444,14.55078125,0)" xlink:href="#ao"/><use transform="matrix(0.010850694444444444,0,0,0.010850694444444444,27.78862847222222,0)" xlink:href="#aH"/><use transform="matrix(0.010850694444444444,0,0,0.010850694444444444,37.00086805555556,0)" xlink:href="#aI"/><use transform="matrix(0.010850694444444444,0,0,0.010850694444444444,43.02300347222222,0)" xlink:href="#aM"/><use transform="matrix(0.010850694444444444,0,0,0.010850694444444444,55.924479166666664,0)" xlink:href="#aN"/><use transform="matrix(0.010850694444444444,0,0,0.010850694444444444,61.94661458333333,0)" xlink:href="#aG"/><use transform="matrix(0.010850694444444444,0,0,0.010850694444444444,76.49739583333333,0)" xlink:href="#ao"/><use transform="matrix(0.010850694444444444,0,0,0.010850694444444444,89.73524305555556,0)" xlink:href="#aH"/><use transform="matrix(0.010850694444444444,0,0,0.010850694444444444,99.13194444444444,0)" xlink:href="#an"/><use transform="matrix(0.010850694444444444,0,0,0.010850694444444444,112.45659722222221,0)" xlink:href="#aI"/><use transform="matrix(0.010850694444444444,0,0,0.010850694444444444,118.47873263888889,0)" xlink:href="#aJ"/><use transform="matrix(0.010850694444444444,0,0,0.010850694444444444,131.55381944444443,0)" xlink:href="#ao"/></g><path d="M128 0v-1490h300v802h17l366-430h347L740-633 1179 0H826L514-456l-86 97V0H128" id="aO"/><g id="j"><use transform="matrix(0.010850694444444444,0,0,0.010850694444444444,0,0)" xlink:href="#aE"/><use transform="matrix(0.010850694444444444,0,0,0.010850694444444444,13.20529513888889,0)" xlink:href="#aM"/><use transform="matrix(0.010850694444444444,0,0,0.010850694444444444,26.106770833333336,0)" xlink:href="#ap"/><use transform="matrix(0.010850694444444444,0,0,0.010850694444444444,39.94140625,0)" xlink:href="#aO"/><use transform="matrix(0.010850694444444444,0,0,0.010850694444444444,52.83203125,0)" xlink:href="#aG"/><use transform="matrix(0.010850694444444444,0,0,0.010850694444444444,67.3828125,0)" xlink:href="#ao"/><use transform="matrix(0.010850694444444444,0,0,0.010850694444444444,80.62065972222223,0)" xlink:href="#aH"/><use transform="matrix(0.010850694444444444,0,0,0.010850694444444444,90.01736111111113,0)" xlink:href="#an"/><use transform="matrix(0.010850694444444444,0,0,0.010850694444444444,103.3420138888889,0)" xlink:href="#aI"/><use transform="matrix(0.010850694444444444,0,0,0.010850694444444444,109.36414930555557,0)" xlink:href="#aJ"/><use transform="matrix(0.010850694444444444,0,0,0.010850694444444444,122.43923611111113,0)" xlink:href="#ao"/></g><path d="M218-607c0-325 108-727 258-974h175c-155 315-250 682-250 974 0 265 78 531 250 886H476C306-10 218-315 218-607" id="aP"/><path d="M598-1118v154H368v674c0 100 37 144 132 144 23 0 62-6 92-12L629-6c-37 13-88 20-134 20-193 0-307-107-307-290v-688H20v-154h168v-266h180v266h230" id="aQ"/><path d="M128 359l88-567h206L266 359H128" id="aR"/><path d="M577 24c-279 0-473-224-473-580 0-354 195-576 474-576 218 0 287 134 324 193h14v-551h180V0H922v-173h-20C865-111 790 24 577 24zm27-161c203 0 314-172 314-421 0-247-108-413-314-413-212 0-317 181-317 413 0 235 108 421 317 421" id="aS"/><path d="M96 279C273-86 346-350 346-607c0-292-95-659-250-974h175c150 246 258 650 258 974 0 297-91 602-258 886H96" id="aT"/><g id="k"><use transform="matrix(0.010850694444444444,0,0,0.010850694444444444,0,0)" xlink:href="#aP"/><use transform="matrix(0.010850694444444444,0,0,0.010850694444444444,8.10546875,0)" xlink:href="#aQ"/><use transform="matrix(0.010850694444444444,0,0,0.010850694444444444,15.37543402777778,0)" xlink:href="#aR"/><use transform="matrix(0.010850694444444444,0,0,0.010850694444444444,21.77734375,0)" xlink:href="#aS"/><use transform="matrix(0.010850694444444444,0,0,0.010850694444444444,35.38411458333333,0)" xlink:href="#aT"/></g><path d="M-37 396L69 170c124 42 243 19 271-107l19-60-235-1121h310c39 287 107 555 115 872 123-306 281-582 422-872h323L612 132c-98 180-235 294-460 294-77 0-149-13-189-30" id="aU"/><path d="M35 0l186-1118h278l-23 203c87-158 215-220 340-220 150 0 232 87 258 250 89-176 240-250 390-250 212 0 348 148 307 391L1648 0h-301l118-707c21-127-40-177-131-177-124 0-216 90-235 206L986 0H696l119-715c18-110-37-169-130-169-113 0-217 83-240 218L335 0H35" id="aV"/><g id="l"><use transform="matrix(0.010850694444444444,0,0,0.010850694444444444,0,0)" xlink:href="#ad"/><use transform="matrix(0.010850694444444444,0,0,0.010850694444444444,14.539930555555555,0)" xlink:href="#aU"/><use transform="matrix(0.010850694444444444,0,0,0.010850694444444444,27.91883680555556,0)" xlink:href="#ab"/><use transform="matrix(0.010850694444444444,0,0,0.010850694444444444,40.353732638888886,0)" xlink:href="#ak"/><use transform="matrix(0.010850694444444444,0,0,0.010850694444444444,48.29644097222222,0)" xlink:href="#ac"/><use transform="matrix(0.010850694444444444,0,0,0.010850694444444444,61.40407986111112,0)" xlink:href="#aV"/><use transform="matrix(0.010850694444444444,0,0,0.010850694444444444,81.68402777777777,0)" xlink:href="#Z"/><use transform="matrix(0.010850694444444444,0,0,0.010850694444444444,96.38671875,0)" xlink:href="#aa"/><use transform="matrix(0.010850694444444444,0,0,0.010850694444444444,110.40581597222224,0)" xlink:href="#ab"/><use transform="matrix(0.010850694444444444,0,0,0.010850694444444444,122.84071180555556,0)" xlink:href="#ac"/><use transform="matrix(0.010850694444444444,0,0,0.010850694444444444,135.94835069444446,0)" xlink:href="#ad"/><use transform="matrix(0.010850694444444444,0,0,0.010850694444444444,150.48828125,0)" xlink:href="#ak"/><use transform="matrix(0.010850694444444444,0,0,0.010850694444444444,158.43098958333334,0)" xlink:href="#aa"/><use transform="matrix(0.010850694444444444,0,0,0.010850694444444444,172.45008680555557,0)" xlink:href="#ak"/><use transform="matrix(0.010850694444444444,0,0,0.010850694444444444,180.3927951388889,0)" xlink:href="#ac"/></g><path d="M750 21c-371 0-615-218-615-544v-967h305v942c0 174 123 299 310 299s309-125 309-299v-942h306v967c0 326-247 544-615 544" id="aW"/><path d="M628 22C291 22 81-210 81-554c0-346 210-578 547-578 336 0 547 232 547 578 0 344-211 576-547 576zm0-236c160 0 242-146 242-341 0-197-82-341-242-341S387-753 387-555c0 195 81 341 241 341" id="aX"/><path d="M537 19C279 19 81-185 81-557c0-382 206-575 454-575 190 0 278 113 318 202h10v-560h300V0H868v-179h-15C812-89 719 19 537 19zm92-241c153 0 240-134 240-336 0-203-86-334-240-334-158 0-240 138-240 334 0 197 84 336 240 336" id="aY"/><g id="m"><use transform="matrix(0.010850694444444444,0,0,0.010850694444444444,0,0)" xlink:href="#aW"/><use transform="matrix(0.010850694444444444,0,0,0.010850694444444444,16.26519097222222,0)" xlink:href="#ap"/><use transform="matrix(0.010850694444444444,0,0,0.010850694444444444,30.09982638888889,0)" xlink:href="#aJ"/><use transform="matrix(0.010850694444444444,0,0,0.010850694444444444,43.17491319444444,0)" xlink:href="#aX"/><use transform="matrix(0.010850694444444444,0,0,0.010850694444444444,56.803385416666664,0)" xlink:href="#ap"/><use transform="matrix(0.010850694444444444,0,0,0.010850694444444444,70.63802083333333,0)" xlink:href="#ap"/><use transform="matrix(0.010850694444444444,0,0,0.010850694444444444,84.47265625,0)" xlink:href="#ao"/><use transform="matrix(0.010850694444444444,0,0,0.010850694444444444,97.71050347222221,0)" xlink:href="#aJ"/><use transform="matrix(0.010850694444444444,0,0,0.010850694444444444,110.7855902777778,0)" xlink:href="#aq"/><use transform="matrix(0.010850694444444444,0,0,0.010850694444444444,118.70659722222224,0)" xlink:href="#ao"/><use transform="matrix(0.010850694444444444,0,0,0.010850694444444444,131.94444444444446,0)" xlink:href="#aY"/><use transform="matrix(0.010850694444444444,0,0,0.010850694444444444,145.95269097222223,0)" xlink:href="#aG"/><use transform="matrix(0.010850694444444444,0,0,0.010850694444444444,160.50347222222223,0)" xlink:href="#aq"/><use transform="matrix(0.010850694444444444,0,0,0.010850694444444444,168.75000000000003,0)" xlink:href="#aM"/><use transform="matrix(0.010850694444444444,0,0,0.010850694444444444,181.65147569444449,0)" xlink:href="#aq"/><use transform="matrix(0.010850694444444444,0,0,0.010850694444444444,189.57248263888897,0)" xlink:href="#ao"/></g><g id="n"><use transform="matrix(0.010850694444444444,0,0,0.010850694444444444,0,0)" xlink:href="#aK"/><use transform="matrix(0.010850694444444444,0,0,0.010850694444444444,20.703125,0)" xlink:href="#aM"/><use transform="matrix(0.010850694444444444,0,0,0.010850694444444444,33.60460069444444,0)" xlink:href="#ap"/><use transform="matrix(0.010850694444444444,0,0,0.010850694444444444,47.43923611111111,0)" xlink:href="#as"/><use transform="matrix(0.010850694444444444,0,0,0.010850694444444444,61.27387152777778,0)" xlink:href="#aM"/><use transform="matrix(0.010850694444444444,0,0,0.010850694444444444,74.17534722222221,0)" xlink:href="#aN"/><use transform="matrix(0.010850694444444444,0,0,0.010850694444444444,80.19748263888889,0)" xlink:href="#aG"/><use transform="matrix(0.010850694444444444,0,0,0.010850694444444444,94.74826388888889,0)" xlink:href="#aq"/><use transform="matrix(0.010850694444444444,0,0,0.010850694444444444,102.99479166666666,0)" xlink:href="#aM"/><use transform="matrix(0.010850694444444444,0,0,0.010850694444444444,115.8962673611111,0)" xlink:href="#aq"/><use transform="matrix(0.010850694444444444,0,0,0.010850694444444444,123.81727430555556,0)" xlink:href="#ao"/></g><path d="M49 0l509-1490h400L1480 0h-339l-115-346H497L386 0H49zm524-585h374c-75-213-124-402-192-666-66 268-110 453-182 666" id="aZ"/><path d="M128 0v-1118h278l12 217c60-163 185-234 319-234 143 0 236 81 288 251 63-172 205-251 359-251 205 0 357 138 357 381V0h-301v-697c0-126-76-187-177-187-114 0-184 79-184 196V0H789v-705c0-109-72-179-174-179-106 0-187 74-187 208V0H128" id="ba"/><path d="M120 396l69-226c123 42 245 23 254-107l8-60L31-1118h319c87 288 199 559 259 872 72-308 185-583 277-872h315L726 132c-68 181-186 294-410 294-79 0-153-13-196-30" id="bb"/><g id="o"><use transform="matrix(0.010850694444444444,0,0,0.010850694444444444,0,0)" xlink:href="#aZ"/><use transform="matrix(0.010850694444444444,0,0,0.010850694444444444,16.590711805555554,0)" xlink:href="#as"/><use transform="matrix(0.010850694444444444,0,0,0.010850694444444444,30.42534722222222,0)" xlink:href="#aq"/><use transform="matrix(0.010850694444444444,0,0,0.010850694444444444,38.346354166666664,0)" xlink:href="#aX"/><use transform="matrix(0.010850694444444444,0,0,0.010850694444444444,51.974826388888886,0)" xlink:href="#ba"/><use transform="matrix(0.010850694444444444,0,0,0.010850694444444444,72.25477430555554,0)" xlink:href="#aM"/><use transform="matrix(0.010850694444444444,0,0,0.010850694444444444,85.15624999999999,0)" xlink:href="#aq"/><use transform="matrix(0.010850694444444444,0,0,0.010850694444444444,93.29427083333331,0)" xlink:href="#aI"/><use transform="matrix(0.010850694444444444,0,0,0.010850694444444444,99.31640624999997,0)" xlink:href="#aJ"/><use transform="matrix(0.010850694444444444,0,0,0.010850694444444444,112.39149305555556,0)" xlink:href="#aG"/><use transform="matrix(0.010850694444444444,0,0,0.010850694444444444,126.94227430555556,0)" xlink:href="#bb"/><use transform="matrix(0.010850694444444444,0,0,0.010850694444444444,140.32118055555554,0)" xlink:href="#at"/><use transform="matrix(0.010850694444444444,0,0,0.010850694444444444,152.76692708333331,0)" xlink:href="#aq"/><use transform="matrix(0.010850694444444444,0,0,0.010850694444444444,160.68793402777777,0)" xlink:href="#ao"/><use transform="matrix(0.010850694444444444,0,0,0.010850694444444444,173.92578125,0)" xlink:href="#ba"/><use transform="matrix(0.010850694444444444,0,0,0.010850694444444444,194.20572916666666,0)" xlink:href="#aG"/><use transform="matrix(0.010850694444444444,0,0,0.010850694444444444,208.75651041666666,0)" xlink:href="#aq"/><use transform="matrix(0.010850694444444444,0,0,0.010850694444444444,217.00303819444449,0)" xlink:href="#aM"/><use transform="matrix(0.010850694444444444,0,0,0.010850694444444444,229.9045138888889,0)" xlink:href="#aq"/><use transform="matrix(0.010850694444444444,0,0,0.010850694444444444,237.82552083333337,0)" xlink:href="#ao"/></g><path d="M-44 0l756-1490h400L1387 0h-327l-57-346H473L305 0H-44zm634-585h373c-37-212-56-397-81-666-107 262-185 453-292 666" id="bc"/><path d="M419 14C188 14 60-144 103-407l118-711h300L412-459c-23 138 39 222 166 222 125 0 231-84 255-234l107-647h301L1056 0H772l35-232C717-74 589 14 419 14" id="bd"/><path d="M549 22C246 22 73-162 73-445c0-359 234-687 634-687 301 0 475 184 475 467 0 360-234 687-633 687zm10-236c223 0 322-274 322-459 0-134-61-223-185-223-223 0-322 271-322 458 0 133 61 224 185 224" id="be"/><g id="p"><use transform="matrix(0.010850694444444444,0,0,0.010850694444444444,0,0)" xlink:href="#bc"/><use transform="matrix(0.010850694444444444,0,0,0.010850694444444444,16.590711805555554,0)" xlink:href="#bd"/><use transform="matrix(0.010850694444444444,0,0,0.010850694444444444,30.436197916666664,0)" xlink:href="#ak"/><use transform="matrix(0.010850694444444444,0,0,0.010850694444444444,38.37890625,0)" xlink:href="#be"/><use transform="matrix(0.010850694444444444,0,0,0.010850694444444444,52.018229166666664,0)" xlink:href="#aV"/><use transform="matrix(0.010850694444444444,0,0,0.010850694444444444,72.29817708333333,0)" xlink:href="#aa"/><use transform="matrix(0.010850694444444444,0,0,0.010850694444444444,86.31727430555554,0)" xlink:href="#ak"/><use transform="matrix(0.010850694444444444,0,0,0.010850694444444444,94.47699652777777,0)" xlink:href="#ag"/><use transform="matrix(0.010850694444444444,0,0,0.010850694444444444,100.50998263888889,0)" xlink:href="#ah"/><use transform="matrix(0.010850694444444444,0,0,0.010850694444444444,113.57421875,0)" xlink:href="#ad"/><use transform="matrix(0.010850694444444444,0,0,0.010850694444444444,128.11414930555554,0)" xlink:href="#bd"/><use transform="matrix(0.010850694444444444,0,0,0.010850694444444444,141.95963541666666,0)" xlink:href="#aj"/><use transform="matrix(0.010850694444444444,0,0,0.010850694444444444,155.96788194444443,0)" xlink:href="#ad"/><use transform="matrix(0.010850694444444444,0,0,0.010850694444444444,170.50781249999997,0)" xlink:href="#ak"/><use transform="matrix(0.010850694444444444,0,0,0.010850694444444444,178.45052083333331,0)" xlink:href="#aa"/><use transform="matrix(0.010850694444444444,0,0,0.010850694444444444,192.46961805555554,0)" xlink:href="#ak"/><use transform="matrix(0.010850694444444444,0,0,0.010850694444444444,200.41232638888889,0)" xlink:href="#ac"/><use transform="matrix(0.010850694444444444,0,0,0.010850694444444444,213.51996527777777,0)" xlink:href="#Z"/><use transform="matrix(0.010850694444444444,0,0,0.010850694444444444,228.22265625,0)" xlink:href="#aa"/><use transform="matrix(0.010850694444444444,0,0,0.010850694444444444,242.2417534722222,0)" xlink:href="#ab"/><use transform="matrix(0.010850694444444444,0,0,0.010850694444444444,254.6766493055556,0)" xlink:href="#ac"/></g><path d="M135 0v-1490h340l471 754c59 97 122 210 187 365-32-387-14-721-19-1119h312V0h-341C855-382 627-689 427-1113c32 420 16 695 20 1113H135" id="bf"/><path d="M754 19C571 19 479-89 437-179h-14V0H128v-1490h300v560h9c41-89 129-202 319-202 248 0 453 193 453 575 0 372-197 576-455 576zm-92-241c156 0 240-139 240-336 0-196-83-334-240-334-154 0-241 131-241 334 0 202 88 336 241 336" id="bg"/><g id="q"><use transform="matrix(0.010850694444444444,0,0,0.010850694444444444,0,0)" xlink:href="#bf"/><use transform="matrix(0.010850694444444444,0,0,0.010850694444444444,16.93793402777778,0)" xlink:href="#aX"/><use transform="matrix(0.010850694444444444,0,0,0.010850694444444444,30.56640625,0)" xlink:href="#aH"/><use transform="matrix(0.010850694444444444,0,0,0.010850694444444444,39.778645833333336,0)" xlink:href="#ba"/><use transform="matrix(0.010850694444444444,0,0,0.010850694444444444,60.05859375,0)" xlink:href="#aM"/><use transform="matrix(0.010850694444444444,0,0,0.010850694444444444,72.96006944444444,0)" xlink:href="#aN"/><use transform="matrix(0.010850694444444444,0,0,0.010850694444444444,78.98220486111111,0)" xlink:href="#aG"/><use transform="matrix(0.010850694444444444,0,0,0.010850694444444444,93.53298611111111,0)" xlink:href="#as"/><use transform="matrix(0.010850694444444444,0,0,0.010850694444444444,107.3676215277778,0)" xlink:href="#bg"/><use transform="matrix(0.010850694444444444,0,0,0.010850694444444444,121.37586805555556,0)" xlink:href="#aG"/><use transform="matrix(0.010850694444444444,0,0,0.010850694444444444,135.92664930555554,0)" xlink:href="#aq"/><use transform="matrix(0.010850694444444444,0,0,0.010850694444444444,144.17317708333334,0)" xlink:href="#aM"/><use transform="matrix(0.010850694444444444,0,0,0.010850694444444444,157.0746527777778,0)" xlink:href="#aq"/><use transform="matrix(0.010850694444444444,0,0,0.010850694444444444,164.99565972222226,0)" xlink:href="#ao"/></g><path d="M625 442c-280 0-454-114-503-274l258-72c28 63 97 128 243 128 153 0 246-69 246-216v-206h-23C805-108 717-16 536-16 284-16 81-191 81-561c0-378 208-571 456-571 188 0 280 113 321 202h13v-188h295V-9c0 303-226 451-541 451zm5-686c153 0 240-119 240-319 0-198-86-329-240-329-158 0-241 137-241 329 0 195 85 319 241 319" id="bh"/><g id="r"><use transform="matrix(0.010850694444444444,0,0,0.010850694444444444,0,0)" xlink:href="#aE"/><use transform="matrix(0.010850694444444444,0,0,0.010850694444444444,13.57421875,0)" xlink:href="#aH"/><use transform="matrix(0.010850694444444444,0,0,0.010850694444444444,22.31987847222222,0)" xlink:href="#aM"/><use transform="matrix(0.010850694444444444,0,0,0.010850694444444444,35.221354166666664,0)" xlink:href="#aJ"/><use transform="matrix(0.010850694444444444,0,0,0.010850694444444444,48.29644097222222,0)" xlink:href="#aO"/><use transform="matrix(0.010850694444444444,0,0,0.010850694444444444,61.18706597222222,0)" xlink:href="#aI"/><use transform="matrix(0.010850694444444444,0,0,0.010850694444444444,67.20920138888889,0)" xlink:href="#ap"/><use transform="matrix(0.010850694444444444,0,0,0.010850694444444444,81.04383680555556,0)" xlink:href="#bh"/><use transform="matrix(0.010850694444444444,0,0,0.010850694444444444,95.08463541666666,0)" xlink:href="#aF"/><use transform="matrix(0.010850694444444444,0,0,0.010850694444444444,109.48350694444444,0)" xlink:href="#aH"/><use transform="matrix(0.010850694444444444,0,0,0.010850694444444444,117.99045138888889,0)" xlink:href="#ao"/><use transform="matrix(0.010850694444444444,0,0,0.010850694444444444,130.47960069444443,0)" xlink:href="#aZ"/><use transform="matrix(0.010850694444444444,0,0,0.010850694444444444,147.07031249999997,0)" xlink:href="#aN"/><use transform="matrix(0.010850694444444444,0,0,0.010850694444444444,153.09244791666663,0)" xlink:href="#aM"/><use transform="matrix(0.010850694444444444,0,0,0.010850694444444444,165.9939236111111,0)" xlink:href="#aH"/><use transform="matrix(0.010850694444444444,0,0,0.010850694444444444,175.2061631944444,0)" xlink:href="#ba"/><use transform="matrix(0.010850694444444444,0,0,0.010850694444444444,195.48611111111106,0)" xlink:href="#aG"/><use transform="matrix(0.010850694444444444,0,0,0.010850694444444444,210.03689236111106,0)" xlink:href="#as"/><use transform="matrix(0.010850694444444444,0,0,0.010850694444444444,223.87152777777774,0)" xlink:href="#bg"/><use transform="matrix(0.010850694444444444,0,0,0.010850694444444444,237.87977430555546,0)" xlink:href="#aG"/><use transform="matrix(0.010850694444444444,0,0,0.010850694444444444,252.43055555555546,0)" xlink:href="#aq"/><use transform="matrix(0.010850694444444444,0,0,0.010850694444444444,260.67708333333326,0)" xlink:href="#aM"/><use transform="matrix(0.010850694444444444,0,0,0.010850694444444444,273.5785590277777,0)" xlink:href="#aq"/><use transform="matrix(0.010850694444444444,0,0,0.010850694444444444,281.4995659722221,0)" xlink:href="#ao"/></g><g id="s"><use transform="matrix(0.010850694444444444,0,0,0.010850694444444444,0,0)" xlink:href="#aF"/><use transform="matrix(0.010850694444444444,0,0,0.010850694444444444,14.398871527777777,0)" xlink:href="#aH"/><use transform="matrix(0.010850694444444444,0,0,0.010850694444444444,22.90581597222222,0)" xlink:href="#ao"/><use transform="matrix(0.010850694444444444,0,0,0.010850694444444444,35.39496527777777,0)" xlink:href="#aZ"/><use transform="matrix(0.010850694444444444,0,0,0.010850694444444444,51.98567708333333,0)" xlink:href="#aN"/><use transform="matrix(0.010850694444444444,0,0,0.010850694444444444,58.007812499999986,0)" xlink:href="#aM"/><use transform="matrix(0.010850694444444444,0,0,0.010850694444444444,70.90928819444444,0)" xlink:href="#aH"/><use transform="matrix(0.010850694444444444,0,0,0.010850694444444444,80.12152777777779,0)" xlink:href="#ba"/><use transform="matrix(0.010850694444444444,0,0,0.010850694444444444,100.40147569444446,0)" xlink:href="#aG"/><use transform="matrix(0.010850694444444444,0,0,0.010850694444444444,114.95225694444446,0)" xlink:href="#as"/><use transform="matrix(0.010850694444444444,0,0,0.010850694444444444,128.78689236111111,0)" xlink:href="#bg"/><use transform="matrix(0.010850694444444444,0,0,0.010850694444444444,142.79513888888889,0)" xlink:href="#aG"/><use transform="matrix(0.010850694444444444,0,0,0.010850694444444444,157.34592013888889,0)" xlink:href="#aq"/><use transform="matrix(0.010850694444444444,0,0,0.010850694444444444,165.59244791666669,0)" xlink:href="#aM"/><use transform="matrix(0.010850694444444444,0,0,0.010850694444444444,178.49392361111114,0)" xlink:href="#aq"/><use transform="matrix(0.010850694444444444,0,0,0.010850694444444444,186.4149305555556,0)" xlink:href="#ao"/></g><g id="t"><use transform="matrix(0.010850694444444444,0,0,0.010850694444444444,0,0)" xlink:href="#aZ"/><use transform="matrix(0.010850694444444444,0,0,0.010850694444444444,16.590711805555554,0)" xlink:href="#aN"/><use transform="matrix(0.010850694444444444,0,0,0.010850694444444444,22.61284722222222,0)" xlink:href="#aM"/><use transform="matrix(0.010850694444444444,0,0,0.010850694444444444,35.514322916666664,0)" xlink:href="#aH"/><use transform="matrix(0.010850694444444444,0,0,0.010850694444444444,44.726562499999986,0)" xlink:href="#ba"/><use transform="matrix(0.010850694444444444,0,0,0.010850694444444444,65.00651041666666,0)" xlink:href="#aG"/><use transform="matrix(0.010850694444444444,0,0,0.010850694444444444,79.55729166666666,0)" xlink:href="#as"/><use transform="matrix(0.010850694444444444,0,0,0.010850694444444444,93.39192708333333,0)" xlink:href="#bg"/><use transform="matrix(0.010850694444444444,0,0,0.010850694444444444,107.40017361111111,0)" xlink:href="#aG"/><use transform="matrix(0.010850694444444444,0,0,0.010850694444444444,121.9509548611111,0)" xlink:href="#aq"/><use transform="matrix(0.010850694444444444,0,0,0.010850694444444444,130.19748263888889,0)" xlink:href="#aM"/><use transform="matrix(0.010850694444444444,0,0,0.010850694444444444,143.09895833333334,0)" xlink:href="#aq"/><use transform="matrix(0.010850694444444444,0,0,0.010850694444444444,151.0199652777778,0)" xlink:href="#ao"/></g><path d="M135 0v-1490h581c339 0 533 192 533 485 0 204-94 351-264 424L1302 0H964L680-532H440V0H135zm305-779h220c186 0 274-77 274-226 0-150-88-233-275-233H440v459" id="bi"/><g id="u"><use transform="matrix(0.010850694444444444,0,0,0.010850694444444444,0,0)" xlink:href="#bi"/><use transform="matrix(0.010850694444444444,0,0,0.010850694444444444,14.594184027777777,0)" xlink:href="#am"/><use transform="matrix(0.010850694444444444,0,0,0.010850694444444444,28.092447916666664,0)" xlink:href="#aG"/><use transform="matrix(0.010850694444444444,0,0,0.010850694444444444,42.643229166666664,0)" xlink:href="#aE"/></g><path d="M440-1490V0H135v-1490h305" id="bj"/><g id="v"><use transform="matrix(0.010850694444444444,0,0,0.010850694444444444,0,0)" xlink:href="#aZ"/><use transform="matrix(0.010850694444444444,0,0,0.010850694444444444,16.590711805555554,0)" xlink:href="#aF"/><use transform="matrix(0.010850694444444444,0,0,0.010850694444444444,30.98958333333333,0)" xlink:href="#bj"/></g><path d="M128 418v-1536h295v188h14c41-89 129-202 319-202 248 0 453 193 453 575 0 372-197 576-455 576-183 0-275-108-317-198h-9v597H128zm534-640c156 0 240-139 240-336 0-196-83-334-240-334-154 0-241 131-241 334 0 202 88 336 241 336" id="bk"/><g id="w"><use transform="matrix(0.010850694444444444,0,0,0.010850694444444444,0,0)" xlink:href="#aZ"/><use transform="matrix(0.010850694444444444,0,0,0.010850694444444444,16.080729166666664,0)" xlink:href="#aY"/><use transform="matrix(0.010850694444444444,0,0,0.010850694444444444,30.088975694444443,0)" xlink:href="#aM"/><use transform="matrix(0.010850694444444444,0,0,0.010850694444444444,42.990451388888886,0)" xlink:href="#bk"/><use transform="matrix(0.010850694444444444,0,0,0.010850694444444444,56.998697916666664,0)" xlink:href="#aq"/><use transform="matrix(0.010850694444444444,0,0,0.010850694444444444,64.91970486111111,0)" xlink:href="#ao"/><use transform="matrix(0.010850694444444444,0,0,0.010850694444444444,78.15755208333334,0)" xlink:href="#aH"/></g><path d="M180 0v-1490h908v168H370v486h669v168H370v500h727V0H180" id="bl"/><path d="M65 0l393-574-370-544h210c88 136 192 297 267 435 67-142 176-302 264-435h206L661-564 1053 0H844c-94-144-206-310-287-458C484-308 366-142 273 0H65" id="bm"/><path d="M158 418v-1536h174v179h20c37-59 106-193 324-193 279 0 474 222 474 576 0 356-194 580-473 580-213 0-288-135-325-197h-14v591H158zm492-555c209 0 317-186 317-421 0-232-105-413-317-413-206 0-314 166-314 413 0 249 111 421 314 421" id="bn"/><path d="M613 24c-304 0-509-231-509-576 0-350 205-580 509-580 305 0 511 230 511 580 0 345-206 576-511 576zm0-161c226 0 329-195 329-415 0-222-103-419-329-419-223 0-326 196-326 419 0 220 103 415 326 415" id="bo"/><path d="M538 24C308 24 148-78 108-271l171-41c32 123 123 178 257 178 156 0 256-77 256-169 0-77-54-128-164-154l-186-44c-203-48-300-148-300-305 0-192 176-326 414-326 230 0 351 112 402 269l-163 42c-31-80-94-158-238-158-133 0-233 69-233 162 0 83 57 129 188 160l169 40c203 48 298 149 298 302 0 196-179 339-441 339" id="bp"/><path d="M628 24c-324 0-524-230-524-574 0-343 198-582 503-582 237 0 487 146 487 559v75H286c9 234 145 362 343 362 132 0 231-58 273-172l174 48C1024-91 857 24 628 24zM287-650h624c-17-190-120-322-304-322-192 0-309 151-320 322" id="bq"/><g id="x"><use transform="matrix(0.010850694444444444,0,0,0.010850694444444444,0,0)" xlink:href="#bl"/><use transform="matrix(0.010850694444444444,0,0,0.010850694444444444,13.35720486111111,0)" xlink:href="#bm"/><use transform="matrix(0.010850694444444444,0,0,0.010850694444444444,25.48828125,0)" xlink:href="#bn"/><use transform="matrix(0.010850694444444444,0,0,0.010850694444444444,39.09505208333333,0)" xlink:href="#bo"/><use transform="matrix(0.010850694444444444,0,0,0.010850694444444444,52.41970486111111,0)" xlink:href="#bp"/><use transform="matrix(0.010850694444444444,0,0,0.010850694444444444,64.14930555555556,0)" xlink:href="#bq"/><use transform="matrix(0.010850694444444444,0,0,0.010850694444444444,77.10503472222223,0)" xlink:href="#bp"/></g><path d="M471 26C259 26 90-98 90-318c0-256 228-303 435-329 202-27 287-16 287-108 0-139-79-219-234-219-161 0-248 86-283 164l-173-57c86-203 278-265 451-265 150 0 419 46 419 395V0H815v-152h-12C765-73 660 26 471 26zm31-159c199 0 310-134 310-271v-155c-30 35-226 55-295 64-131 17-246 59-246 186 0 116 97 176 231 176" id="br"/><path d="M338-670V0H158v-1118h173l1 207c72-158 192-221 342-221 226 0 378 139 378 422V0H872v-695c0-172-96-275-252-275-161 0-282 109-282 300" id="bs"/><g id="y"><use transform="matrix(0.010850694444444444,0,0,0.010850694444444444,0,0)" xlink:href="#br"/><use transform="matrix(0.010850694444444444,0,0,0.010850694444444444,12.47829861111111,0)" xlink:href="#bs"/></g><path d="M180 0v-1490h190v644h782v-644h190V0h-190v-678H370V0H180" id="bt"/><path d="M98-1322v-168h1126v168H757V0H567v-1322H98" id="bu"/><path d="M180 0v-1490h510c348 0 508 209 508 474 0 266-160 477-507 477H370V0H180zm190-706h312c236 0 327-133 327-310 0-176-91-307-329-307H370v617" id="bv"/><g id="z"><use transform="matrix(0.010850694444444444,0,0,0.010850694444444444,0,0)" xlink:href="#bt"/><use transform="matrix(0.010850694444444444,0,0,0.010850694444444444,16.514756944444443,0)" xlink:href="#bu"/><use transform="matrix(0.010850694444444444,0,0,0.010850694444444444,30.859375,0)" xlink:href="#bu"/><use transform="matrix(0.010850694444444444,0,0,0.010850694444444444,45.20399305555556,0)" xlink:href="#bv"/></g><path d="M158 0v-1118h180V0H158zm91-1301c-68 0-125-53-125-119s57-119 125-119c69 0 126 53 126 119s-57 119-126 119" id="bw"/><g id="A"><use transform="matrix(0.010850694444444444,0,0,0.010850694444444444,0,0)" xlink:href="#bq"/><use transform="matrix(0.010850694444444444,0,0,0.010850694444444444,12.955729166666666,0)" xlink:href="#bs"/><use transform="matrix(0.010850694444444444,0,0,0.010850694444444444,26.085069444444443,0)" xlink:href="#aS"/><use transform="matrix(0.010850694444444444,0,0,0.010850694444444444,39.69184027777777,0)" xlink:href="#bn"/><use transform="matrix(0.010850694444444444,0,0,0.010850694444444444,53.2986111111111,0)" xlink:href="#bo"/><use transform="matrix(0.010850694444444444,0,0,0.010850694444444444,66.62326388888887,0)" xlink:href="#bw"/><use transform="matrix(0.010850694444444444,0,0,0.010850694444444444,72.00520833333331,0)" xlink:href="#bs"/><use transform="matrix(0.010850694444444444,0,0,0.010850694444444444,85.13454861111109,0)" xlink:href="#aQ"/></g><path d="M678-1118v154H420V0H240v-964H20v-154h220v-149c0-194 155-293 318-293 85 0 141 18 168 30l-50 154c-19-6-47-17-97-17-111 0-159 58-159 166v109h258" id="bx"/><path d="M158 0v-1118h174v172h12c41-113 157-188 290-188 26 0 70 2 91 3v181c-11-2-60-10-108-10-161 0-279 109-279 260V0H158" id="by"/><g id="B"><use transform="matrix(0.010850694444444444,0,0,0.010850694444444444,0,0)" xlink:href="#bx"/><use transform="matrix(0.010850694444444444,0,0,0.010850694444444444,7.573784722222222,0)" xlink:href="#bo"/><use transform="matrix(0.010850694444444444,0,0,0.010850694444444444,20.8984375,0)" xlink:href="#by"/></g><path d="M158 0v-1118h175l1 205c55-151 181-225 313-225 147 0 245 90 285 228 53-141 190-228 352-228 194 0 352 125 352 384V0h-181v-749c0-161-105-225-225-225-151 0-243 103-243 244V0H807v-767c0-124-93-207-219-207-131 0-250 92-250 270V0H158" id="bz"/><path d="M611 442c-248 0-391-105-460-228l146-94c47 65 117 165 314 165 178 0 307-82 307-266v-224h-17C863-141 792-18 576-18c-268 0-472-195-472-546 0-346 197-568 476-568 216 0 288 133 326 193h17v-179h175V29c0 289-215 413-487 413zm-5-620c203 0 314-146 314-390 0-237-108-403-314-403-213 0-319 180-319 403 0 230 109 390 319 390" id="bA"/><g id="C"><use transform="matrix(0.010850694444444444,0,0,0.010850694444444444,0,0)" xlink:href="#bz"/><use transform="matrix(0.010850694444444444,0,0,0.010850694444444444,19.466145833333332,0)" xlink:href="#bq"/><use transform="matrix(0.010850694444444444,0,0,0.010850694444444444,32.421875,0)" xlink:href="#bp"/><use transform="matrix(0.010850694444444444,0,0,0.010850694444444444,44.15147569444444,0)" xlink:href="#bp"/><use transform="matrix(0.010850694444444444,0,0,0.010850694444444444,55.881076388888886,0)" xlink:href="#br"/><use transform="matrix(0.010850694444444444,0,0,0.010850694444444444,68.359375,0)" xlink:href="#bA"/><use transform="matrix(0.010850694444444444,0,0,0.010850694444444444,81.98784722222223,0)" xlink:href="#bq"/><use transform="matrix(0.010850694444444444,0,0,0.010850694444444444,94.9435763888889,0)" xlink:href="#bp"/></g><g id="D"><use transform="matrix(0.010850694444444444,0,0,0.010850694444444444,0,0)" xlink:href="#bw"/><use transform="matrix(0.010850694444444444,0,0,0.010850694444444444,5.381944444444445,0)" xlink:href="#bs"/></g><path d="M338-1490V0H158v-1490h180" id="bB"/><g id="E"><use transform="matrix(0.010850694444444444,0,0,0.010850694444444444,0,0)" xlink:href="#bw"/><use transform="matrix(0.010850694444444444,0,0,0.010850694444444444,5.381944444444445,0)" xlink:href="#bs"/><use transform="matrix(0.010850694444444444,0,0,0.010850694444444444,18.51128472222222,0)" xlink:href="#aQ"/><use transform="matrix(0.010850694444444444,0,0,0.010850694444444444,25.56423611111111,0)" xlink:href="#bq"/><use transform="matrix(0.010850694444444444,0,0,0.010850694444444444,38.51996527777778,0)" xlink:href="#by"/><use transform="matrix(0.010850694444444444,0,0,0.010850694444444444,47.233072916666664,0)" xlink:href="#bs"/><use transform="matrix(0.010850694444444444,0,0,0.010850694444444444,60.36241319444444,0)" xlink:href="#br"/><use transform="matrix(0.010850694444444444,0,0,0.010850694444444444,72.84071180555556,0)" xlink:href="#bB"/></g><path d="M677 24c-213 0-288-135-325-197h-20V0H158v-1490h180v551h14c37-59 106-193 324-193 279 0 474 222 474 576 0 356-194 580-473 580zm-27-161c209 0 317-186 317-421 0-232-105-413-317-413-206 0-314 166-314 413 0 249 111 421 314 421" id="bC"/><path d="M537 14c-226 0-379-139-379-422v-710h180v695c0 172 97 275 253 275 160 0 281-109 281-300v-670h181V0H879v-209C806-46 684 14 537 14" id="bD"/><g id="F"><use transform="matrix(0.010850694444444444,0,0,0.010850694444444444,0,0)" xlink:href="#bC"/><use transform="matrix(0.010850694444444444,0,0,0.010850694444444444,13.606770833333332,0)" xlink:href="#bD"/><use transform="matrix(0.010850694444444444,0,0,0.010850694444444444,26.746961805555554,0)" xlink:href="#bp"/><use transform="matrix(0.010850694444444444,0,0,0.010850694444444444,38.4765625,0)" xlink:href="#aw"/></g><g id="G"><use transform="matrix(0.010850694444444444,0,0,0.010850694444444444,0,0)" xlink:href="#aG"/><use transform="matrix(0.010850694444444444,0,0,0.010850694444444444,14.55078125,0)" xlink:href="#ao"/><use transform="matrix(0.010850694444444444,0,0,0.010850694444444444,27.78862847222222,0)" xlink:href="#aH"/><use transform="matrix(0.010850694444444444,0,0,0.010850694444444444,37.00086805555556,0)" xlink:href="#aI"/><use transform="matrix(0.010850694444444444,0,0,0.010850694444444444,43.02300347222222,0)" xlink:href="#aM"/><use transform="matrix(0.010850694444444444,0,0,0.010850694444444444,55.924479166666664,0)" xlink:href="#aN"/></g><g id="H"><use transform="matrix(0.010850694444444444,0,0,0.010850694444444444,0,0)" xlink:href="#aZ"/><use transform="matrix(0.010850694444444444,0,0,0.010850694444444444,16.080729166666664,0)" xlink:href="#aY"/><use transform="matrix(0.010850694444444444,0,0,0.010850694444444444,30.088975694444443,0)" xlink:href="#aM"/><use transform="matrix(0.010850694444444444,0,0,0.010850694444444444,42.990451388888886,0)" xlink:href="#bk"/><use transform="matrix(0.010850694444444444,0,0,0.010850694444444444,56.998697916666664,0)" xlink:href="#aq"/><use transform="matrix(0.010850694444444444,0,0,0.010850694444444444,64.91970486111111,0)" xlink:href="#ao"/><use transform="matrix(0.010850694444444444,0,0,0.010850694444444444,78.15755208333334,0)" xlink:href="#aH"/></g><path d="M657 26c-323 0-524-166-541-416h195c15 169 171 246 346 246 202 0 356-106 356-265 5-203-294-238-475-293-239-73-380-191-380-389 0-252 224-419 512-419 294 0 499 171 508 396H992c-17-145-151-228-328-228-193 0-321 102-321 242 0 156 175 211 284 241l149 41c160 44 422 134 422 412 0 244-197 432-541 432" id="bE"/><path d="M692-1560L212 224H46l480-1784h166" id="bF"/><path d="M613 24c-304 0-509-231-509-576 0-350 205-580 509-580 216 0 392 114 453 309l-173 49c-33-115-133-197-280-197-223 0-326 196-326 419 0 220 103 415 326 415 150 0 252-85 285-206l172 49C1010-95 832 24 613 24" id="bG"/><path d="M481 0L54-1118h197c107 314 236 620 325 951 87-331 217-637 324-951h197L670 0H481" id="bH"/><g id="I"><use transform="matrix(0.010850694444444444,0,0,0.010850694444444444,0,0)" xlink:href="#bE"/><use transform="matrix(0.010850694444444444,0,0,0.010850694444444444,14.2578125,0)" xlink:href="#bq"/><use transform="matrix(0.010850694444444444,0,0,0.010850694444444444,27.213541666666664,0)" xlink:href="#bs"/><use transform="matrix(0.010850694444444444,0,0,0.010850694444444444,40.34288194444444,0)" xlink:href="#aS"/><use transform="matrix(0.010850694444444444,0,0,0.010850694444444444,53.94965277777778,0)" xlink:href="#bF"/><use transform="matrix(0.010850694444444444,0,0,0.010850694444444444,61.95746527777778,0)" xlink:href="#by"/><use transform="matrix(0.010850694444444444,0,0,0.010850694444444444,69.95442708333333,0)" xlink:href="#bq"/><use transform="matrix(0.010850694444444444,0,0,0.010850694444444444,82.91015625,0)" xlink:href="#bG"/><use transform="matrix(0.010850694444444444,0,0,0.010850694444444444,95.60546875,0)" xlink:href="#bq"/><use transform="matrix(0.010850694444444444,0,0,0.010850694444444444,108.56119791666666,0)" xlink:href="#bw"/><use transform="matrix(0.010850694444444444,0,0,0.010850694444444444,113.9431423611111,0)" xlink:href="#bH"/><use transform="matrix(0.010850694444444444,0,0,0.010850694444444444,125.9982638888889,0)" xlink:href="#bq"/></g><path d="M545 20c-263 0-445-160-445-446v-80h190v80c0 182 102 279 255 279 152 0 254-97 254-279v-1064h190v1064c0 286-181 446-444 446" id="bI"/><path d="M784 20c-382 0-662-292-662-764 0-473 280-766 662-766s660 293 660 766c0 472-278 764-660 764zm0-176c266 0 475-207 475-588 0-383-209-590-475-590-268 0-477 208-477 590 0 380 209 588 477 588" id="bJ"/><path d="M180 0v-1490h224l606 953c40 63 108 177 176 312-27-437-7-821-13-1265h190V0h-226C860-448 622-778 356-1262c27 476 11 792 15 1262H180" id="bK"/><g id="J"><use transform="matrix(0.010850694444444444,0,0,0.010850694444444444,0,0)" xlink:href="#bI"/><use transform="matrix(0.010850694444444444,0,0,0.010850694444444444,12.684461805555555,0)" xlink:href="#bE"/><use transform="matrix(0.010850694444444444,0,0,0.010850694444444444,26.94227430555556,0)" xlink:href="#bJ"/><use transform="matrix(0.010850694444444444,0,0,0.010850694444444444,43.93446180555556,0)" xlink:href="#bK"/></g><g id="K"><use transform="matrix(0.010850694444444444,0,0,0.010850694444444444,0,0)" xlink:href="#br"/><use transform="matrix(0.010850694444444444,0,0,0.010850694444444444,12.47829861111111,0)" xlink:href="#bs"/><use transform="matrix(0.010850694444444444,0,0,0.010850694444444444,25.60763888888889,0)" xlink:href="#aS"/></g><g id="L"><use transform="matrix(0.010850694444444444,0,0,0.010850694444444444,0,0)" xlink:href="#bp"/><use transform="matrix(0.010850694444444444,0,0,0.010850694444444444,11.729600694444445,0)" xlink:href="#bD"/><use transform="matrix(0.010850694444444444,0,0,0.010850694444444444,24.869791666666664,0)" xlink:href="#bC"/><use transform="matrix(0.010850694444444444,0,0,0.010850694444444444,38.4765625,0)" xlink:href="#bF"/><use transform="matrix(0.010850694444444444,0,0,0.010850694444444444,46.484375,0)" xlink:href="#bn"/><use transform="matrix(0.010850694444444444,0,0,0.010850694444444444,60.09114583333333,0)" xlink:href="#bD"/><use transform="matrix(0.010850694444444444,0,0,0.010850694444444444,73.23133680555554,0)" xlink:href="#bC"/></g><g id="M"><use transform="matrix(0.010850694444444444,0,0,0.010850694444444444,0,0)" xlink:href="#bo"/><use transform="matrix(0.010850694444444444,0,0,0.010850694444444444,13.324652777777777,0)" xlink:href="#bs"/></g><g id="N"><use transform="matrix(0.010850694444444444,0,0,0.010850694444444444,0,0)" xlink:href="#bq"/><use transform="matrix(0.010850694444444444,0,0,0.010850694444444444,12.52170138888889,0)" xlink:href="#bH"/><use transform="matrix(0.010850694444444444,0,0,0.010850694444444444,24.576822916666664,0)" xlink:href="#bq"/><use transform="matrix(0.010850694444444444,0,0,0.010850694444444444,37.53255208333333,0)" xlink:href="#bs"/><use transform="matrix(0.010850694444444444,0,0,0.010850694444444444,50.66189236111111,0)" xlink:href="#aQ"/></g><path d="M1163 418H863v-597h-10C812-89 719 19 537 19 279 19 81-185 81-557c0-382 206-575 454-575 190 0 278 113 318 202h15v-188h295V418zM629-222c153 0 240-134 240-336 0-203-86-334-240-334-158 0-240 138-240 334 0 197 84 336 240 336" id="bL"/><g id="O"><use transform="matrix(0.010850694444444444,0,0,0.010850694444444444,0,0)" xlink:href="#aK"/><use transform="matrix(0.010850694444444444,0,0,0.010850694444444444,20.703125,0)" xlink:href="#bL"/><use transform="matrix(0.010850694444444444,0,0,0.010850694444444444,34.71137152777778,0)" xlink:href="#aq"/><use transform="matrix(0.010850694444444444,0,0,0.010850694444444444,42.068142361111114,0)" xlink:href="#aq"/></g><g id="P"><use transform="matrix(0.010850694444444444,0,0,0.010850694444444444,0,0)" xlink:href="#aJ"/><use transform="matrix(0.010850694444444444,0,0,0.010850694444444444,13.075086805555555,0)" xlink:href="#aN"/><use transform="matrix(0.010850694444444444,0,0,0.010850694444444444,19.09722222222222,0)" xlink:href="#aI"/><use transform="matrix(0.010850694444444444,0,0,0.010850694444444444,25.11935763888889,0)" xlink:href="#ao"/><use transform="matrix(0.010850694444444444,0,0,0.010850694444444444,38.35720486111111,0)" xlink:href="#ap"/><use transform="matrix(0.010850694444444444,0,0,0.010850694444444444,52.19184027777778,0)" xlink:href="#aq"/></g><g id="Q"><use transform="matrix(0.010416666666666668,0,0,0.010416666666666668,0,0)" xlink:href="#bu"/><use transform="matrix(0.010416666666666668,0,0,0.010416666666666668,12.562500000000002,0)" xlink:href="#by"/><use transform="matrix(0.010416666666666668,0,0,0.010416666666666668,20.593750000000004,0)" xlink:href="#br"/><use transform="matrix(0.010416666666666668,0,0,0.010416666666666668,32.57291666666667,0)" xlink:href="#bs"/><use transform="matrix(0.010416666666666668,0,0,0.010416666666666668,45.177083333333336,0)" xlink:href="#bp"/><use transform="matrix(0.010416666666666668,0,0,0.010416666666666668,56.437500000000014,0)" xlink:href="#bB"/><use transform="matrix(0.010416666666666668,0,0,0.010416666666666668,61.604166666666686,0)" xlink:href="#br"/><use transform="matrix(0.010416666666666668,0,0,0.010416666666666668,73.58333333333334,0)" xlink:href="#aQ"/><use transform="matrix(0.010416666666666668,0,0,0.010416666666666668,80.35416666666669,0)" xlink:href="#bq"/><use transform="matrix(0.010416666666666668,0,0,0.010416666666666668,92.79166666666667,0)" xlink:href="#bp"/></g><path d="M180 0v-1490h270l367 940c28 72 75 218 110 339 35-117 81-264 110-339l362-940h271V0h-187c2-448-5-837 7-1287-157 497-311 829-483 1287H842C666-458 514-784 354-1284c12 438 5 843 7 1284H180" id="bM"/><path d="M784 20c-382 0-662-292-662-764 0-473 280-766 662-766s660 293 660 766c0 282-99 499-260 629l192 255h-198L1049-33C969 2 880 20 784 20zm-62-486h198l156 205c112-98 183-261 183-483 0-383-209-590-475-590-268 0-477 208-477 590 0 380 209 588 477 588 54 0 106-9 154-25" id="bN"/><g id="R"><use transform="matrix(0.010416666666666668,0,0,0.010416666666666668,0,0)" xlink:href="#bM"/><use transform="matrix(0.010416666666666668,0,0,0.010416666666666668,19.270833333333336,0)" xlink:href="#bN"/><use transform="matrix(0.010416666666666668,0,0,0.010416666666666668,34.94791666666667,0)" xlink:href="#bu"/><use transform="matrix(0.010416666666666668,0,0,0.010416666666666668,48.71875000000001,0)" xlink:href="#bu"/></g><g id="S"><use transform="matrix(0.010416666666666668,0,0,0.010416666666666668,0,0)" xlink:href="#bz"/><use transform="matrix(0.010416666666666668,0,0,0.010416666666666668,18.687500000000004,0)" xlink:href="#bq"/><use transform="matrix(0.010416666666666668,0,0,0.010416666666666668,31.125000000000007,0)" xlink:href="#bp"/><use transform="matrix(0.010416666666666668,0,0,0.010416666666666668,42.38541666666667,0)" xlink:href="#bp"/><use transform="matrix(0.010416666666666668,0,0,0.010416666666666668,53.64583333333334,0)" xlink:href="#br"/><use transform="matrix(0.010416666666666668,0,0,0.010416666666666668,65.62500000000001,0)" xlink:href="#bA"/><use transform="matrix(0.010416666666666668,0,0,0.010416666666666668,78.70833333333334,0)" xlink:href="#bq"/><use transform="matrix(0.010416666666666668,0,0,0.010416666666666668,91.14583333333334,0)" xlink:href="#bp"/></g><g id="T"><use transform="matrix(0.010416666666666668,0,0,0.010416666666666668,0,0)" xlink:href="#bw"/><use transform="matrix(0.010416666666666668,0,0,0.010416666666666668,5.166666666666667,0)" xlink:href="#bs"/><use transform="matrix(0.010416666666666668,0,0,0.010416666666666668,17.770833333333336,0)" xlink:href="#aQ"/><use transform="matrix(0.010416666666666668,0,0,0.010416666666666668,24.541666666666668,0)" xlink:href="#bo"/></g><path d="M180 0v-1490h528c311 0 458 177 458 395 0 191-114 278-244 313v14c139 9 302 137 302 371 0 225-148 397-499 397H180zm190-168h350c232 0 321-102 321-231 0-149-120-277-311-277H370v508zm0-668h328c160 0 286-101 286-255 0-129-87-231-280-231H370v486" id="bO"/><g id="U"><use transform="matrix(0.010416666666666668,0,0,0.010416666666666668,0,0)" xlink:href="#bl"/><use transform="matrix(0.010416666666666668,0,0,0.010416666666666668,12.822916666666668,0)" xlink:href="#bH"/><use transform="matrix(0.010416666666666668,0,0,0.010416666666666668,24.395833333333336,0)" xlink:href="#bq"/><use transform="matrix(0.010416666666666668,0,0,0.010416666666666668,36.833333333333336,0)" xlink:href="#bs"/><use transform="matrix(0.010416666666666668,0,0,0.010416666666666668,49.43749999999999,0)" xlink:href="#aQ"/><use transform="matrix(0.010416666666666668,0,0,0.010416666666666668,56.41666666666667,0)" xlink:href="#bO"/><use transform="matrix(0.010416666666666668,0,0,0.010416666666666668,70.375,0)" xlink:href="#bD"/><use transform="matrix(0.010416666666666668,0,0,0.010416666666666668,82.98958333333333,0)" xlink:href="#bp"/></g><g id="V"><use transform="matrix(0.010416666666666668,0,0,0.010416666666666668,0,0)" xlink:href="#bq"/><use transform="matrix(0.010416666666666668,0,0,0.010416666666666668,12.020833333333334,0)" xlink:href="#bH"/><use transform="matrix(0.010416666666666668,0,0,0.010416666666666668,23.593750000000004,0)" xlink:href="#bq"/><use transform="matrix(0.010416666666666668,0,0,0.010416666666666668,36.03125000000001,0)" xlink:href="#bs"/><use transform="matrix(0.010416666666666668,0,0,0.010416666666666668,48.63541666666667,0)" xlink:href="#aQ"/><use transform="matrix(0.010416666666666668,0,0,0.010416666666666668,55.40625,0)" xlink:href="#bp"/></g><g id="W"><use transform="matrix(0.010416666666666668,0,0,0.010416666666666668,0,0)" xlink:href="#br"/><use transform="matrix(0.010416666666666668,0,0,0.010416666666666668,11.979166666666668,0)" xlink:href="#bs"/><use transform="matrix(0.010416666666666668,0,0,0.010416666666666668,24.583333333333336,0)" xlink:href="#aS"/></g><g id="X"><use transform="matrix(0.010416666666666668,0,0,0.010416666666666668,0,0)" xlink:href="#bH"/><use transform="matrix(0.010416666666666668,0,0,0.010416666666666668,11.989583333333334,0)" xlink:href="#bw"/><use transform="matrix(0.010416666666666668,0,0,0.010416666666666668,17.15625,0)" xlink:href="#bG"/><use transform="matrix(0.010416666666666668,0,0,0.010416666666666668,29.34375,0)" xlink:href="#bq"/></g><g id="Y"><use transform="matrix(0.010416666666666668,0,0,0.010416666666666668,0,0)" xlink:href="#bH"/><use transform="matrix(0.010416666666666668,0,0,0.010416666666666668,11.572916666666668,0)" xlink:href="#bq"/><use transform="matrix(0.010416666666666668,0,0,0.010416666666666668,24.010416666666668,0)" xlink:href="#by"/><use transform="matrix(0.010416666666666668,0,0,0.010416666666666668,32.04166666666667,0)" xlink:href="#bp"/><use transform="matrix(0.010416666666666668,0,0,0.010416666666666668,43.302083333333336,0)" xlink:href="#br"/><use transform="matrix(0.010416666666666668,0,0,0.010416666666666668,55.281250000000014,0)" xlink:href="#aw"/></g></defs></g></svg>