<svg xmlns="http://www.w3.org/2000/svg" xmlns:xlink="http://www.w3.org/1999/xlink" xmlns:lucid="lucid" width="2662" height="1581"><g transform="translate(-1859 12940)" lucid:page-tab-id="0_0"><path d="M-2500-13500h7500v2500h-7500z" fill="#fff"/><path d="M2092-12520c-128.13 0-232 103.87-232 232v696c0 128.13 103.87 232 232 232h1096c128.13 0 232-103.87 232-232v-696c0-128.13-103.87-232-232-232z" stroke="#000" stroke-width="2" fill="#fff"/><path d="M1956.06-12476h1367.88" stroke="#000" stroke-width="2" fill="none"/><use xlink:href="#a" transform="matrix(1,0,0,1,2172,-12520) translate(401.9138454861111 30.08376736111111)"/><path d="M4048-12320c-37.55 0-68 30.44-68 68v204c0 37.56 30.45 68 68 68h404c37.56 0 68-30.44 68-68v-204c0-37.56-30.44-68-68-68z" stroke="#000" stroke-width="2" fill="#fff"/><path d="M3984.38-12276h531.24" stroke="#000" stroke-width="2" fill="none"/><use xlink:href="#b" transform="matrix(1,0,0,1,4088,-12320) translate(113.92599826388889 30.08376736111111)"/><use xlink:href="#c" transform="matrix(1,0,0,1,4034,-12260) translate(45.996744791666686 123.95095486111111)"/><use xlink:href="#d" transform="matrix(1,0,0,1,4034,-12260) translate(106.80403645833334 123.95095486111111)"/><use xlink:href="#e" transform="matrix(1,0,0,1,4034,-12260) translate(121.06184895833334 123.95095486111111)"/><use xlink:href="#f" transform="matrix(1,0,0,1,4034,-12260) translate(203.29926215277777 123.95095486111111)"/><use xlink:href="#g" transform="matrix(1,0,0,1,4034,-12260) translate(268.9025607638889 123.95095486111111)"/><use xlink:href="#h" transform="matrix(1,0,0,1,4034,-12260) translate(289.8552517361111 123.95095486111111)"/><use xlink:href="#i" transform="matrix(1,0,0,1,4034,-12260) translate(23.8504774305556 156.2165798611111)"/><use xlink:href="#j" transform="matrix(1,0,0,1,4034,-12260) translate(56.55447048611116 156.2165798611111)"/><use xlink:href="#k" transform="matrix(1,0,0,1,4034,-12260) translate(97.00585937500004 156.2165798611111)"/><use xlink:href="#d" transform="matrix(1,0,0,1,4034,-12260) translate(194.88997395833337 156.2165798611111)"/><use xlink:href="#e" transform="matrix(1,0,0,1,4034,-12260) translate(209.14778645833337 156.2165798611111)"/><use xlink:href="#l" transform="matrix(1,0,0,1,4034,-12260) translate(291.38519965277777 156.2165798611111)"/><use xlink:href="#g" transform="matrix(1,0,0,1,4034,-12260) translate(352.9954427083333 156.2165798611111)"/><use xlink:href="#m" transform="matrix(1,0,0,1,4034,-12260) translate(373.94813368055554 156.2165798611111)"/><path d="M3140-12860c0 11.05-8.95 20-20 20s-20-8.95-20-20 8.95-20 20-20 20 8.95 20 20z" stroke="#000" stroke-width="2"/><path d="M3403.03-12840c-23.77 0-43.03 19.26-43.03 43.02v129.08c0 23.76 19.26 43.02 43.03 43.02h313.94c23.77 0 43.03-19.26 43.03-43.02v-129.08c0-23.76-19.26-43.02-43.03-43.02z" stroke="#000" stroke-width="2" fill="#fff"/><path d="M3360-12796h400" stroke="#000" stroke-width="2" fill="none"/><use xlink:href="#n" transform="matrix(1,0,0,1,3440,-12840) translate(33.34092881944446 30.08376736111111)"/><use xlink:href="#c" transform="matrix(1,0,0,1,3400,-12780) translate(41.195746527777786 61.95095486111111)"/><use xlink:href="#d" transform="matrix(1,0,0,1,3400,-12780) translate(102.00303819444446 61.95095486111111)"/><use xlink:href="#e" transform="matrix(1,0,0,1,3400,-12780) translate(116.26085069444444 61.95095486111111)"/><use xlink:href="#f" transform="matrix(1,0,0,1,3400,-12780) translate(198.49826388888886 61.95095486111111)"/><use xlink:href="#o" transform="matrix(1,0,0,1,3400,-12780) translate(264.1015625 61.95095486111111)"/><use xlink:href="#p" transform="matrix(1,0,0,1,3400,-12780) translate(73.34092881944446 94.21657986111111)"/><path d="M2103.03-12440.9c-23.77 0-43.03 19.26-43.03 43.02v129.07c0 23.76 19.26 43.02 43.03 43.02h313.94c23.77 0 43.03-19.26 43.03-43.02v-129.08c0-23.76-19.26-43.02-43.03-43.02z" stroke="#000" stroke-width="2" fill="#fff"/><path d="M2060-12396.9h400" stroke="#000" stroke-width="2" fill="none"/><use xlink:href="#q" transform="matrix(1,0,0,1,2140,-12440.90298783863) translate(71.99652777777777 30.08376736111111)"/><use xlink:href="#c" transform="matrix(1,0,0,1,2100,-12380.90298783863) translate(33.05772569444446 78.08376736111111)"/><use xlink:href="#d" transform="matrix(1,0,0,1,2100,-12380.90298783863) translate(93.86501736111111 78.08376736111111)"/><use xlink:href="#e" transform="matrix(1,0,0,1,2100,-12380.90298783863) translate(108.12282986111111 78.08376736111111)"/><use xlink:href="#l" transform="matrix(1,0,0,1,2100,-12380.90298783863) translate(190.36024305555554 78.08376736111111)"/><use xlink:href="#g" transform="matrix(1,0,0,1,2100,-12380.90298783863) translate(251.9704861111111 78.08376736111111)"/><use xlink:href="#r" transform="matrix(1,0,0,1,2100,-12380.90298783863) translate(272.9231770833333 78.08376736111111)"/><path d="M2809.18-12725.07l-15.8 4.4-13.84 4.5-12.28 4.56-10.97 4.6-9.9 4.64-8.97 4.7-8.18 4.7-7.5 4.78-6.94 4.8-6.4 4.88-5.97 4.93-5.56 5-5.2 5.1-4.88 5.2-4.6 5.3-4.3 5.45-4.08 5.6-3.83 5.77-3.63 5.97-3.4 6.2-3.2 6.46-3.02 6.75-2.8 7.08-2.6 7.47-2.38 7.9-2.15 8.38-1.9 8.95-1.62 9.6-1.3 10.35-.95 11.23-.4 9.4-.94-.04.4-9.4v-.02l.95-11.26v-.02l1.3-10.37v-.02l1.64-9.62v-.02l1.9-8.96v-.02l2.15-8.4v-.02l2.4-7.9v-.02l2.6-7.5 2.82-7.1v-.02l3.02-6.77v-.02l3.2-6.5h.02l3.42-6.22v-.02l3.64-6 3.86-5.8 4.1-5.63 4.33-5.47 4.6-5.34.02-.02 4.9-5.2v-.02l5.22-5.1v-.02l5.58-5.02h.02v-.02l5.98-4.94 6.44-4.9h.02l6.94-4.83h.02l7.53-4.78 8.22-4.75h.02l8.97-4.7h.02l9.9-4.67 11-4.63h.02l12.3-4.57h.02l13.86-4.5h.02l13.8-3.86h3.8zm194.54-20l256.6 9.75 98.18 2.4-.02.94-98.2-2.4-256.57-9.73-52 1v-.94l52-1.02h.02z" stroke="#3a414a" stroke-width=".05" fill="#3a414a"/><path d="M3359-12732.9v.94l-.53-.02.02-.95z" fill="#3a414a"/><path stroke="#3a414a" stroke-width=".05" fill="#3a414a"/><path d="M2639.58-12523.78l.13-6.73h.96l-.13 6.74 9.42-15.6.82.5-10.77 17.8-10.05-18.23.83-.45z" stroke="#3a414a" stroke-width=".05" fill="#3a414a"/><use xlink:href="#s" transform="matrix(1,0,0,1,2777.158137938654,-12746.939639926455) translate(0 17.22222222222222)"/><use xlink:href="#t" transform="matrix(1,0,0,1,2777.158137938654,-12746.939639926455) translate(48.454861111111114 17.22222222222222)"/><use xlink:href="#u" transform="matrix(1,0,0,1,2777.158137938654,-12746.939639926455) translate(133.70659722222223 17.22222222222222)"/><path d="M4245.97-11970.5l-.53.63v.02l-1.9 2.12-2.77 2.88h-.02l-4.17 3.98v.02l-6.4 5.6h-.02l-9.9 7.96v.02l-14.98 11.05h-.02l-21.5 14.54h-.02v.02l-28.4 17.5-34.05 19.08h-.02l-37.5 19v.02h-.02l-38.8 17.66-38.44 15.62h-.02l-37.08 13.28h-.02l-35.2 10.97-33.1 8.8h-.02l-30.97 6.88-21.94 4.04h-.02l-34.53 5.1-39.07 4.08h-.02l-44.4 2.77-31.9.65v-.95l31.86-.65 44.38-2.77 39.05-4.08 34.5-5.08 21.9-4.04 30.96-6.86 33.07-8.8 35.18-10.96 37.07-13.27 38.42-15.58 38.76-17.66 37.48-19 34.02-19.06 28.37-17.48 21.5-14.52 14.95-11.03 9.87-7.94 6.4-5.6 4.14-3.95 2.74-2.85 1.87-2.1.53-.64zm-824.1 173.02h.02l2.04.14h.02l9.2 1.03 122.38 14.07 31.8 2.02v.94l-31.87-2.02h-.02l-122.4-14.08-9.18-1.03-2.02-.13h-.36v-.96z" stroke="#3a414a" stroke-width=".05" fill="#3a414a"/><path d="M3421.52-11797.5l-.02.96h-.5v-.96z" fill="#3a414a"/><path stroke="#3a414a" stroke-width=".05" fill="#3a414a"/><path d="M4250.6-11958.14l-.94.03-.56-18.23-3.18 5.92-.84-.46 3.2-5.92-15.5 9.58-.5-.8 17.7-10.96z" stroke="#3a414a" stroke-width=".05" fill="#3a414a"/><use xlink:href="#v" transform="matrix(1,0,0,1,3587.3463393036736,-11787.861162306937) translate(0 17.22222222222222)"/><use xlink:href="#w" transform="matrix(1,0,0,1,3587.3463393036736,-11787.861162306937) translate(26.180555555555557 17.22222222222222)"/><use xlink:href="#x" transform="matrix(1,0,0,1,3587.3463393036736,-11787.861162306937) translate(59.17534722222222 17.22222222222222)"/><use xlink:href="#y" transform="matrix(1,0,0,1,3587.3463393036736,-11787.861162306937) translate(75.45138888888889 17.22222222222222)"/><path d="M3488.17-11955.85h-.04l-22.86 7.5h-.02l-14.03 3.94h-.02l-9.38 2.2h-.02v.02l-6.66 1.27h-.02l-4.64.7-.14-.95 4.63-.7 6.64-1.27 9.37-2.2 14-3.94 22.85-7.47 223.48-94.62h2.43zm490.34-193.66l-1.87.03-2.94.18-3.77.4-4.9.74-6.64 1.28-9.37 2.2-14 3.94-22.86 7.48-43.45 16.3-104.18 44.1h-2.44l106.26-45 43.5-16.3 22.87-7.48h.02l14.03-3.95h.02l9.38-2.2h.02v-.02l6.66-1.27h.02l4.92-.73h.02l3.78-.4h.02l2.96-.2h.02l1.9-.03z" stroke="#3a414a" stroke-width=".05" fill="#3a414a"/><path d="M3979-12149.52h-.5l-.03-.94.53-.02z" fill="#3a414a"/><path stroke="#3a414a" stroke-width=".05" fill="#3a414a"/><path d="M3438.8-11950.9l-15.07 10.23 6.7-.5.08.96-6.7.47 16.4 7.95-.4.85-18.75-9.07 17.23-11.7z" stroke="#3a414a" stroke-width=".05" fill="#3a414a"/><use xlink:href="#v" transform="matrix(1,0,0,1,3682.489222756929,-12072.8620384004) translate(0 17.22222222222222)"/><use xlink:href="#w" transform="matrix(1,0,0,1,3682.489222756929,-12072.8620384004) translate(26.180555555555557 17.22222222222222)"/><use xlink:href="#x" transform="matrix(1,0,0,1,3682.489222756929,-12072.8620384004) translate(59.17534722222222 17.22222222222222)"/><use xlink:href="#y" transform="matrix(1,0,0,1,3682.489222756929,-12072.8620384004) translate(75.45138888888889 17.22222222222222)"/><path d="M3534.62-12483.8l-4.25 9.04-4.46 8.54v.02l-4.66 8.08v.02l-4.9 7.68v.02l-5.08 7.32v.02h-.02l-5.3 7-.02.02-5.55 6.72-5.82 6.47-6.1 6.23-6.4 6v.02l-6.7 5.8h-.02l-7.07 5.6v.02h-.02l-7.46 5.42-7.92 5.27v.02h-.02l-8.4 5.1-8.96 4.92h-.02l-9.58 4.77v.02h-.02l-10.28 4.58h-.02l-10.63 4.22-.35-.9 10.62-4.2 10.27-4.57 9.56-4.74 8.93-4.9 8.38-5.1 7.9-5.23 7.44-5.4 7.05-5.6 6.7-5.78 6.35-6 6.07-6.2 5.8-6.43 5.53-6.7 5.3-7 5.08-7.3 4.86-7.67 4.65-8.07 4.44-8.5 4.24-9.02 1.56-3.7h1.03zm25.66-130.63l-.22 10.93v.02l-1.15 18.45v.02l-1.73 16.66v.02l-2.23 15.16v.02l-2.64 13.87v.02l-3 12.76v.02l-3.28 11.82-1.7 5.26h-1l1.8-5.53 3.27-11.78 2.97-12.75 2.63-13.86 2.23-15.15 1.74-16.65 1.14-18.43.23-10.9z" stroke="#3a414a" stroke-width=".05" fill="#3a414a"/><path d="M3404.95-12364.9l-3.27 1.3-.35-.88 3.26-1.3zM3570.04-12605.6l-.83.47-8.78-15.97-.14 6.73-.95-.02.14-6.72-9.43 15.6-.82-.5 10.78-17.8z" stroke="#3a414a" stroke-width=".05" fill="#3a414a"/><use xlink:href="#z" transform="matrix(1,0,0,1,3442.9788409178386,-12509.401804342388) translate(0 17.22222222222222)"/><use xlink:href="#A" transform="matrix(1,0,0,1,3442.9788409178386,-12509.401804342388) translate(45.06944444444445 17.22222222222222)"/><use xlink:href="#B" transform="matrix(1,0,0,1,3442.9788409178386,-12509.401804342388) translate(72.34375 17.22222222222222)"/><use xlink:href="#C" transform="matrix(1,0,0,1,3442.9788409178386,-12509.401804342388) translate(117.56076388888889 17.22222222222222)"/><use xlink:href="#u" transform="matrix(1,0,0,1,3442.9788409178386,-12509.401804342388) translate(153.37673611111111 17.22222222222222)"/><path d="M2000-12420c0 11.05-8.95 20-20 20s-20-8.95-20-20 8.95-20 20-20 20 8.95 20 20z" stroke="#000" stroke-width="2"/><path d="M1980.02-12398.5l.1 3.63.38 3.94.6 3.77.83 3.64 1.03 3.52 1.24 3.42 1.45 3.33 1.67 3.24 1.9 3.17 2.13 3.1 2.38 3.05 2.66 2.98 2.93 2.9 3.25 2.84 3.58 2.74 3.92 2.62 4.28 2.5 4.65 2.3 5.02 2.12 5.37 1.88 5.68 1.6 6 1.27 6.2.92 2.3.18" stroke="#3a414a" stroke-linejoin="round" fill="none"/><path d="M1979.95-12399l.52-.02.02.52-.96.03-.02-.58z" stroke="#3a414a" stroke-width=".05" fill="#3a414a"/><path d="M2041.2-12344.26l16.8 10.87-17.8 9.1m17.8-9.1l-8.5-.43" stroke="#3a414a" fill="none"/><path d="M2223.03-12040c-23.77 0-43.03 19.26-43.03 43.02v129.08c0 23.76 19.26 43.02 43.03 43.02h313.94c23.77 0 43.03-19.26 43.03-43.02v-129.08c0-23.76-19.26-43.02-43.03-43.02z" stroke="#000" stroke-width="2" fill="#fff"/><path d="M2180-11996h400" stroke="#000" stroke-width="2" fill="none"/><use xlink:href="#D" transform="matrix(1,0,0,1,2260,-12040) translate(-7.072482638888886 30.08376736111111)"/><use xlink:href="#c" transform="matrix(1,0,0,1,2220,-11980) translate(33.05772569444446 78.08376736111111)"/><use xlink:href="#d" transform="matrix(1,0,0,1,2220,-11980) translate(93.86501736111111 78.08376736111111)"/><use xlink:href="#e" transform="matrix(1,0,0,1,2220,-11980) translate(108.12282986111111 78.08376736111111)"/><use xlink:href="#l" transform="matrix(1,0,0,1,2220,-11980) translate(190.36024305555554 78.08376736111111)"/><use xlink:href="#g" transform="matrix(1,0,0,1,2220,-11980) translate(251.9704861111111 78.08376736111111)"/><use xlink:href="#r" transform="matrix(1,0,0,1,2220,-11980) translate(272.9231770833333 78.08376736111111)"/><path d="M2085.8-12057.1l.98 14.4 1.3 11.93 1.55 10.08 1.7 8.66 1.78 7.5 1.9 6.6 1.9 5.83 1.98 5.2 2 4.7 2 4.23 2.05 3.85 2.06 3.53 2.07 3.25 2.1 3 2.12 2.75 2.14 2.57 2.18 2.4 2.2 2.24 2.27 2.1 2.3 1.97 2.34 1.85 2.42 1.73 2.48 1.64 2.57 1.52 2.66 1.44 2.76 1.36 2.87 1.26 3 1.17 3.14 1.08 3.3.98 3.52.9 3.73.76 3.96.65 4.27.53 2.18.17-.07.95-2.2-.18-4.3-.52-4-.65h-.02l-3.74-.78h-.02l-3.53-.9-3.34-1h-.02l-3.17-1.08h-.02l-3.02-1.18h-.02l-2.87-1.28h-.02l-2.77-1.37-2.68-1.45h-.02l-2.58-1.55h-.02l-2.5-1.66h-.02l-2.42-1.76h-.02l-2.37-1.87h-.02l-2.32-1.98-2.28-2.12h-.02v-.02l-2.22-2.25h-.02l-2.2-2.42-2.16-2.6h-.02l-2.13-2.8-2.1-3.02h-.02l-2.1-3.27-2.07-3.55v-.02l-2.05-3.87v-.02l-2.04-4.25v-.02l-2-4.7v-.02l-1.98-5.24v-.02l-1.94-5.86v-.02l-1.88-6.6v-.02l-1.8-7.53v-.02l-1.7-8.67v-.02l-1.55-10.1-1.3-11.96v-.02l-.98-14.42v-.02l-.36-14.17h.96zm12.2-167.53l-10.32 94.17-1.92 32.42-.1 5.3h-.94l.1-5.33h-.02v-.02l1.93-32.42v-.02l10.33-94.2z" stroke="#3a414a" stroke-width=".05" fill="#3a414a"/><path d="M2098.06-12225.13l-.06.5-.94-.1.05-.5z" fill="#3a414a"/><path stroke="#3a414a" stroke-width=".05" fill="#3a414a"/><path d="M2178.95-11932.44l-18.45 9.66-.44-.84 16.15-8.46-6.7-.28.03-.94 6.72.27-15.4-9.75.5-.8z" stroke="#3a414a" stroke-width=".05" fill="#3a414a"/><use xlink:href="#E" transform="matrix(1,0,0,1,1933.4763236451918,-12092.737395750499) translate(0 17.22222222222222)"/><use xlink:href="#F" transform="matrix(1,0,0,1,1933.4763236451918,-12092.737395750499) translate(53.767361111111114 17.22222222222222)"/><use xlink:href="#G" transform="matrix(1,0,0,1,1933.4763236451918,-12092.737395750499) translate(98.81076388888889 17.22222222222222)"/><use xlink:href="#H" transform="matrix(1,0,0,1,1933.4763236451918,-12092.737395750499) translate(115.08680555555556 17.22222222222222)"/><use xlink:href="#I" transform="matrix(1,0,0,1,1933.4763236451918,-12092.737395750499) translate(136.20659722222223 17.22222222222222)"/><use xlink:href="#J" transform="matrix(1,0,0,1,1933.4763236451918,-12092.737395750499) translate(164.30555555555557 17.22222222222222)"/><use xlink:href="#K" transform="matrix(1,0,0,1,1933.4763236451918,-12092.737395750499) translate(218.07291666666669 17.22222222222222)"/><use xlink:href="#L" transform="matrix(1,0,0,1,1933.4763236451918,-12092.737395750499) translate(265.53819444444446 17.22222222222222)"/><use xlink:href="#M" transform="matrix(1,0,0,1,1933.4763236451918,-12092.737395750499) translate(281.81423611111114 17.22222222222222)"/><path d="M2863.03-12040c-23.77 0-43.03 19.26-43.03 43.02v129.08c0 23.76 19.26 43.02 43.03 43.02h313.94c23.77 0 43.03-19.26 43.03-43.02v-129.08c0-23.76-19.26-43.02-43.03-43.02z" stroke="#000" stroke-width="2" fill="#fff"/><path d="M2820-11996h400" stroke="#000" stroke-width="2" fill="none"/><use xlink:href="#N" transform="matrix(1,0,0,1,2900,-12040) translate(55.205078125 30.08376736111111)"/><use xlink:href="#c" transform="matrix(1,0,0,1,2860,-11980) translate(26.3031684027778 78.08376736111111)"/><use xlink:href="#d" transform="matrix(1,0,0,1,2860,-11980) translate(87.11046006944446 78.08376736111111)"/><use xlink:href="#e" transform="matrix(1,0,0,1,2860,-11980) translate(101.36827256944446 78.08376736111111)"/><use xlink:href="#l" transform="matrix(1,0,0,1,2860,-11980) translate(183.60568576388889 78.08376736111111)"/><use xlink:href="#g" transform="matrix(1,0,0,1,2860,-11980) translate(245.21592881944443 78.08376736111111)"/><use xlink:href="#O" transform="matrix(1,0,0,1,2860,-11980) translate(266.16861979166663 78.08376736111111)"/><path d="M2843.03-12440.9c-23.77 0-43.03 19.26-43.03 43.02v129.07c0 23.76 19.26 43.02 43.03 43.02h313.94c23.77 0 43.03-19.26 43.03-43.02v-129.08c0-23.76-19.26-43.02-43.03-43.02z" stroke="#000" stroke-width="2" fill="#fff"/><path d="M2800-12396.9h400" stroke="#000" stroke-width="2" fill="none"/><use xlink:href="#P" transform="matrix(1,0,0,1,2880,-12440.90298783863) translate(81.19791666666667 30.08376736111111)"/><use xlink:href="#c" transform="matrix(1,0,0,1,2840,-12380.90298783863) translate(21.52886284722223 78.08376736111111)"/><use xlink:href="#d" transform="matrix(1,0,0,1,2840,-12380.90298783863) translate(82.33615451388889 78.08376736111111)"/><use xlink:href="#e" transform="matrix(1,0,0,1,2840,-12380.90298783863) translate(96.59396701388889 78.08376736111111)"/><use xlink:href="#l" transform="matrix(1,0,0,1,2840,-12380.90298783863) translate(178.83138020833331 78.08376736111111)"/><use xlink:href="#g" transform="matrix(1,0,0,1,2840,-12380.90298783863) translate(240.44162326388886 78.08376736111111)"/><use xlink:href="#Q" transform="matrix(1,0,0,1,2840,-12380.90298783863) translate(261.3943142361111 78.08376736111111)"/><path d="M2667.7-11931.96h-86.2v-.95h86.2zm141.86 0h-77.26v-.95h77.26z" stroke="#3a414a" stroke-width=".05" fill="#3a414a"/><path d="M2581.52-11931.96h-.52v-.95h.52z" fill="#3a414a"/><path stroke="#3a414a" stroke-width=".05" fill="#3a414a"/><path d="M2818.95-11932.44l-18.03 10.4-.48-.8 15.8-9.12h-6.74v-.95h6.73l-15.8-9.13.5-.82z" stroke="#3a414a" stroke-width=".05" fill="#3a414a"/><g><use xlink:href="#z" transform="matrix(1,0,0,1,2667.7014377599285,-11943.19374440344) translate(0 17.22222222222222)"/><use xlink:href="#R" transform="matrix(1,0,0,1,2667.7014377599285,-11943.19374440344) translate(45.06944444444445 17.22222222222222)"/></g><path d="M3020.47-12041.5h-.94v-58.18h.94zm0-79.7h-.94v-94.14h.94z" stroke="#3a414a" stroke-width=".05" fill="#3a414a"/><path d="M3020.47-12041h-.94v-.52h.94z" fill="#3a414a"/><path stroke="#3a414a" stroke-width=".05" fill="#3a414a"/><path d="M3030.4-12206.7l-.8.48-9.13-15.8v6.74h-.94v-6.73l-9.12 15.78-.8-.48 10.4-18.03z" stroke="#3a414a" stroke-width=".05" fill="#3a414a"/><g><use xlink:href="#E" transform="matrix(1,0,0,1,2951.8315972222226,-12121.193376718687) translate(0 17.22222222222222)"/><use xlink:href="#F" transform="matrix(1,0,0,1,2951.8315972222226,-12121.193376718687) translate(53.767361111111114 17.22222222222222)"/><use xlink:href="#G" transform="matrix(1,0,0,1,2951.8315972222226,-12121.193376718687) translate(98.81076388888889 17.22222222222222)"/><use xlink:href="#M" transform="matrix(1,0,0,1,2951.8315972222226,-12121.193376718687) translate(115.08680555555556 17.22222222222222)"/></g><path d="M2380.47-12041.5h-.94v-68.3h.94zm0-89.8h-.94v-84.04h.94z" stroke="#3a414a" stroke-width=".05" fill="#3a414a"/><path d="M2380.47-12041h-.94v-.52h.94z" fill="#3a414a"/><path stroke="#3a414a" stroke-width=".05" fill="#3a414a"/><path d="M2390.4-12206.7l-.8.48-9.13-15.8v6.74h-.94v-6.73l-9.12 15.78-.8-.48 10.4-18.03z" stroke="#3a414a" stroke-width=".05" fill="#3a414a"/><g><use xlink:href="#E" transform="matrix(1,0,0,1,2314.0017361111118,-12131.300213762639) translate(0 17.22222222222222)"/><use xlink:href="#F" transform="matrix(1,0,0,1,2314.0017361111118,-12131.300213762639) translate(53.767361111111114 17.22222222222222)"/><use xlink:href="#L" transform="matrix(1,0,0,1,2314.0017361111118,-12131.300213762639) translate(98.81076388888889 17.22222222222222)"/><use xlink:href="#S" transform="matrix(1,0,0,1,2314.0017361111118,-12131.300213762639) translate(115.08680555555556 17.22222222222222)"/></g><path d="M2539.83-12376.2h-78.32v-.94h78.33zm249.73 0h-113.4v-.94h113.4z" stroke="#3a414a" stroke-width=".05" fill="#3a414a"/><path d="M2461.52-12376.2h-.52v-.94h.52z" fill="#3a414a"/><path stroke="#3a414a" stroke-width=".05" fill="#3a414a"/><path d="M2798.95-12376.67l-18.03 10.42-.48-.83 15.8-9.1h-6.74v-.96h6.73l-15.8-9.1.5-.84z" stroke="#3a414a" stroke-width=".05" fill="#3a414a"/><g><use xlink:href="#E" transform="matrix(1,0,0,1,2539.8315972222226,-12387.421875000002) translate(0 17.22222222222222)"/><use xlink:href="#F" transform="matrix(1,0,0,1,2539.8315972222226,-12387.421875000002) translate(53.767361111111114 17.22222222222222)"/><use xlink:href="#G" transform="matrix(1,0,0,1,2539.8315972222226,-12387.421875000002) translate(98.81076388888889 17.22222222222222)"/><use xlink:href="#M" transform="matrix(1,0,0,1,2539.8315972222226,-12387.421875000002) translate(115.08680555555556 17.22222222222222)"/></g><path d="M3332.28-12122.05v15.5l-.63 14.97v.02l-1.2 14.23-1.68 13.37v.02l-2.1 12.4-2.42 11.42v.02l-2.68 10.42v.02l-2.87 9.5-3 8.63-3.1 7.82-3.14 7.07v.02l-3.2 6.4-3.2 5.8v.02l-3.18 5.27h-.02l-3.17 4.8h-.02l-3.17 4.37-3.14 3.98v.02h-.02l-3.12 3.62-3.12 3.3v.02l-3.1 3.03h-.02v.02l-3.08 2.77-.02.02-3.07 2.54-3.07 2.34h-.02l-3.06 2.14v.02l-3.1 1.95-3.1 1.8h-.02l-3.1 1.63h-.02l-3.14 1.48h-.02l-3.18 1.35h-.02l-3.2 1.2h-.02v.02l-3.28 1.06h-.02l-3.34.94-3.42.8h-.02l-3.5.67-3.6.52-2.06.22-.1-.95 2.04-.22 3.56-.53 3.47-.66 3.4-.8 3.3-.93 3.25-1.05 3.2-1.2 3.16-1.32 3.12-1.47 3.1-1.6 3.07-1.8 3.06-1.93 3.06-2.13 3.06-2.3 3.05-2.54 3.07-2.76 3.07-3.02 3.1-3.3 3.12-3.6 3.13-3.95 3.15-4.34 3.17-4.76 3.17-5.25 3.18-5.8 3.17-6.37 3.13-7.05 3.08-7.8 3-8.58 2.86-9.47 2.66-10.4 2.42-11.4 2.1-12.37 1.67-13.32 1.2-14.2.63-14.94v-15.46l-.16-3.7h.95zM3205-12333.73h.02l3.9.24 3.82.42h.02l3.74.55h.02l3.7.7 3.64.86h.02l3.6 1v.02h.02l3.57 1.16h.02v.02l3.55 1.32h.02l3.54 1.5h.02l3.56 1.67v.02h.02l3.55 1.86h.02l3.57 2.07 3.6 2.3h.02l3.63 2.52v.02l3.66 2.77h.02l3.7 3.08h.02l3.76 3.4 3.82 3.74 3.88 4.12v.02l3.95 4.55h.02l4 5.05 4.05 5.6 4.1 6.18h.02v.02l4.14 6.85v.02l4.17 7.58h.02v.02l4.16 8.4 4.14 9.28v.02l4.05 10.22v.02l3.9 11.2v.02l3.7 12.2v.02l3.38 13.2 3 14.1 2.5 14.85v.02l1.95 15.4v.02l.53 6.26h-.96l-.5-6.18-1.96-15.38-2.5-14.82-2.98-14.07-3.37-13.15-3.68-12.2-3.9-11.17-4.02-10.2-4.12-9.26-4.15-8.37-4.16-7.57-4.13-6.83-4.1-6.16-4.04-5.57-3.98-5.02-3.92-4.53-3.85-4.1-3.8-3.73-3.73-3.37-3.7-3.05-3.63-2.77-3.6-2.5-3.6-2.28-3.54-2.05-3.54-1.85-3.52-1.66-3.53-1.47-3.53-1.32-3.55-1.15-3.58-1-3.62-.84-3.66-.7-3.72-.54-3.8-.4-3.87-.24-3.47-.08v-.95z" stroke="#3a414a" stroke-width=".05" fill="#3a414a"/><path d="M3201.53-12333.8l-.02.94h-.5v-.96z" fill="#3a414a"/><path stroke="#3a414a" stroke-width=".05" fill="#3a414a"/><path d="M3239.03-11943l-15.3 9.94 6.73-.35.05.94-6.7.35 16.23 8.26-.43.85-18.55-9.44 17.46-11.34z" stroke="#3a414a" stroke-width=".05" fill="#3a414a"/><g><use xlink:href="#E" transform="matrix(1,0,0,1,3263.0308545084094,-12147.242254320357) translate(0 17.22222222222222)"/><use xlink:href="#F" transform="matrix(1,0,0,1,3263.0308545084094,-12147.242254320357) translate(53.767361111111114 17.22222222222222)"/><use xlink:href="#L" transform="matrix(1,0,0,1,3263.0308545084094,-12147.242254320357) translate(98.81076388888889 17.22222222222222)"/><use xlink:href="#M" transform="matrix(1,0,0,1,3263.0308545084094,-12147.242254320357) translate(115.08680555555556 17.22222222222222)"/></g><path d="M2565.74-12115l-4.67 2.3-4.1 2.26-3.67 2.22-3.3 2.18-2.97 2.16-2.7 2.15-2.5 2.15-2.3 2.15-2.1 2.16-1.98 2.2-1.83 2.2-1.7 2.25-1.6 2.3-1.5 2.35-1.4 2.42-1.3 2.5-1.22 2.6-1.14 2.7-1.04 2.8-.96 2.97-.87 3.1-.8 3.32-.66 3.52-.55 3.77-.44 4.06-.28 4.4-.1 4.3h-.94l.1-4.34v-.02l.27-4.42v-.02l.44-4.08v-.02l.56-3.8.68-3.55v-.02l.78-3.32.88-3.15v-.02l.98-2.98 1.06-2.85v-.02l1.15-2.7v-.02l1.23-2.62v-.02l1.33-2.5v-.02l1.4-2.45v-.02l1.52-2.37 1.62-2.33 1.73-2.28v-.02l1.86-2.23 2-2.2v-.02l2.14-2.18v-.02l2.32-2.16 2.5-2.17h.02v-.02l2.73-2.16h.02l3-2.2 3.3-2.2h.02l3.67-2.23h.02l4.12-2.27h.02l4.68-2.34h.02l1.1-.5h2.33zm256.83-104.38l-1.2 2.57h-.02l-2 3.8v.02l-2.1 3.67h-.02l-2.23 3.52v.02l-2.38 3.4v.02l-2.52 3.3v.02l-2.68 3.22v.02l-2.84 3.14v.02h-.02l-3.02 3.08v.02l-3.24 3.03v.02h-.02l-3.47 3-3.75 2.98h-.02l-4.06 2.96-4.44 2.96h-.02l-4.86 2.95-5.4 2.97h-.02l-6.02 3h-.02l-6.82 3.04h-.02l-7.86 3.1v.02h-.02l-9.25 3.22-11.28 3.4h-.02l-14.58 3.73h-.02l-61.56 11.28h-5.27l66.63-12.2 14.56-3.73 11.25-3.4 9.24-3.2 7.84-3.1 6.8-3.02 6-2.98 5.38-2.95 4.85-2.93 4.42-2.93 4.05-2.95 3.73-2.95 3.45-3 3.22-3 3-3.08 2.83-3.13 2.65-3.2 2.5-3.3 2.35-3.4 2.23-3.5 2.1-3.63 1.98-3.8 1.2-2.56z" stroke="#3a414a" stroke-width=".05" fill="#3a414a"/><path d="M2518.1-12041.5l-.02.5h-.95v-.53z" fill="#3a414a"/><path stroke="#3a414a" stroke-width=".05" fill="#3a414a"/><path d="M2828.46-12207.62l-.94.12-2.4-18.07-2.56 6.22-.88-.36 2.57-6.23-14.45 11.1-.58-.75 16.5-12.68z" stroke="#3a414a" stroke-width=".05" fill="#3a414a"/><g><use xlink:href="#E" transform="matrix(1,0,0,1,2531.1824628198196,-12137.871222099073) translate(0 17.22222222222222)"/><use xlink:href="#F" transform="matrix(1,0,0,1,2531.1824628198196,-12137.871222099073) translate(53.767361111111114 17.22222222222222)"/><use xlink:href="#G" transform="matrix(1,0,0,1,2531.1824628198196,-12137.871222099073) translate(98.81076388888889 17.22222222222222)"/><use xlink:href="#M" transform="matrix(1,0,0,1,2531.1824628198196,-12137.871222099073) translate(115.08680555555556 17.22222222222222)"/></g><path d="M3020.47-11823.36l-.08 3.52-.24 3.7-.36 3.4v.02l-.46 3.14v.02l-.56 2.92v.02l-.65 2.74v.02l-.72 2.58v.02l-.8 2.44v.02l-.86 2.32v.02l-.94 2.22-1 2.14h-.02l-1.06 2.06-1.15 1.98v.02l-1.22 1.9v.02l-1.3 1.86v.02h-.02l-1.37 1.8v.02l-1.48 1.78-1.58 1.75v.02l-1.7 1.72-1.8 1.7h-.02v.02l-1.94 1.67-2.1 1.67h-.02l-2.28 1.67-2.5 1.65-2.72 1.66h-.02l-3 1.65-3.33 1.66h-.02l-3.7 1.65h-.02l-4.2 1.66-4.77 1.67h-.02l-5.48 1.66h-.02l-6.4 1.64h-.02l-7.6 1.62-9.23 1.54h-.02l-11.5 1.45h-.02l-14.97 1.23h-.02l-20.84.85h-.02l-33.42-.07h-.02l-213.28-9.38-79.2-.06v-.95l79.2.07h.02l213.3 9.4 33.4.06 20.8-.85 14.94-1.24 11.48-1.44 9.2-1.55 7.58-1.6 6.37-1.63 5.46-1.65 4.74-1.65 4.16-1.65 3.7-1.64 3.3-1.64 2.97-1.64 2.7-1.64 2.46-1.63 2.25-1.65 2.08-1.65 1.92-1.66 1.8-1.67 1.65-1.7 1.55-1.72 1.46-1.76 1.37-1.8 1.28-1.85 1.2-1.9 1.13-1.94 1.06-2.02 1-2.1.9-2.2.87-2.3.8-2.42.7-2.56.65-2.73.55-2.9.46-3.12.35-3.37.24-3.65.07-3.5zm-970.9-467.83l-2.6.12-7.5.6-6.95.88-6.5 1.08-6.1 1.3-5.76 1.45-5.45 1.64-5.16 1.8-4.94 1.93-4.73 2.1-4.53 2.24-4.38 2.4-4.22 2.54-4.1 2.7-3.98 2.9-3.88 3.06-3.8 3.26-3.7 3.48-3.66 3.7-3.58 3.98-3.54 4.25-3.48 4.6-3.45 4.93-3.4 5.34-3.37 5.8-3.33 6.35-3.28 6.96-3.25 7.66-3.17 8.5-3.1 9.5-3 10.67-2.85 12.1-2.66 13.83-2.38 16-2 18.75-1.23 18.7-.4 16.75.28 15.16.85 13.97 1.33 13.03 1.78 12.27 2.2 11.65 2.6 11.13 2.95 10.7 3.33 10.34 3.7 10.02 4.1 9.8 4.48 9.57 4.9 9.42 5.34 9.3 5.8 9.2 6.35 9.16 6.9 9.13 7.52 9.15 8.22 9.17 9 9.23 9.9 9.33 10.9 9.45 12.05 9.6 13.4 9.77 14.95 9.98 16.8 10.2 1.2.7 11.4 6.25 12.34 6.07 13.4 5.93 14.72 5.78 16.26 5.62 18.16 5.43 20.54 5.22 23.6 4.94 27.72 4.6 33.52 4.14 42.67 3.44 135.06.1v.97l-135.1-.12h-.02l-42.7-3.44h-.02l-33.55-4.14-27.74-4.6-.02-.02-23.62-4.95h-.02l-20.56-5.23h-.02l-18.18-5.44h-.02l-16.28-5.62h-.02l-14.72-5.78h-.02l-13.43-5.95h-.02l-12.35-6.1h-.02l-11.42-6.25-1.23-.7-16.8-10.24h-.02l-14.97-10-13.42-9.8h-.02l-12.07-9.62h-.02l-10.92-9.47v-.02l-9.92-9.34v-.02h-.02l-9-9.25h-.02l-8.24-9.2h-.02l-7.53-9.16-6.92-9.16-6.35-9.18v-.02l-5.84-9.23h-.02l-5.35-9.32v-.02l-4.92-9.44v-.02l-4.5-9.6v-.02l-4.1-9.8v-.02l-3.7-10.05h-.02l-3.34-10.37v-.02l-2.97-10.7v-.02l-2.6-11.15v-.02l-2.2-11.66v-.02l-1.78-12.3v-.02l-1.35-13.05v-.02l-.85-14-.28-15.2.4-16.77v-.02l1.23-18.73 2-18.78v-.02l2.38-16v-.04l2.67-13.85 2.86-12.12v-.02l3-10.7 3.12-9.52v-.02l3.2-8.52 3.24-7.7v-.02l3.3-6.97 3.35-6.37v-.02l3.38-5.8v-.02l3.43-5.37 3.46-4.96v-.02l3.5-4.6h.02l3.55-4.28h.02l3.6-4h.02l3.66-3.74 3.74-3.5h.02l3.8-3.3h.02l3.9-3.08 4-2.9h.02v-.02l4.12-2.72h.02l4.24-2.57h.02l4.4-2.4 4.56-2.26h.02l4.74-2.1v-.02h.02l4.96-1.95h.02l5.2-1.8 5.47-1.65 5.8-1.48 6.13-1.3h.02l6.52-1.08h.02l6.97-.87v-.02h.02l7.5-.6h.02l2.62-.12z" stroke="#3a414a" stroke-width=".05" fill="#3a414a"/><path d="M3020.46-11823.35l-.95-.02.03-.5h.94z" fill="#3a414a"/><path stroke="#3a414a" stroke-width=".05" fill="#3a414a"/><path d="M2058.95-12291.92l-17.74 10.9-.5-.8 15.54-9.55-6.72.2-.03-.97 6.72-.18-16.03-8.68.44-.83z" stroke="#3a414a" stroke-width=".05" fill="#3a414a"/><g><use xlink:href="#E" transform="matrix(1,0,0,1,2436.390932184042,-11769.629724222295) translate(0 17.22222222222222)"/><use xlink:href="#F" transform="matrix(1,0,0,1,2436.390932184042,-11769.629724222295) translate(53.767361111111114 17.22222222222222)"/><use xlink:href="#L" transform="matrix(1,0,0,1,2436.390932184042,-11769.629724222295) translate(98.81076388888889 17.22222222222222)"/><use xlink:href="#S" transform="matrix(1,0,0,1,2436.390932184042,-11769.629724222295) translate(115.08680555555556 17.22222222222222)"/></g><path d="M3141.5-12860l51.97.87 24.7 1.5 18.22 1.92 15.36 2.25 13.96 2.66 13.36 3.14 13.35 3.73 13.86 4.5 15 5.6 17 7.16 16.07 7.58" stroke="#3a414a" stroke-linejoin="round" fill="none"/><path d="M3141.52-12860.47v.95h-.57l.05-.43-.02-.52z" stroke="#3a414a" stroke-width=".05" fill="#3a414a"/><path d="M3350.76-12831.97l11.2 16.56-19.95 1.42m19.96-1.43l-7.64-3.72" stroke="#3a414a" fill="none"/><path d="M4179.82-12542.38v.02l9 12.94h.02v.02l8.34 13.13v.02l7.7 13.33 7.1 13.55v.02l6.47 13.74 5.88 14 5.3 14.24v.02l4.72 14.5v.02l4.14 14.8v.02l3.54 15.12v.02l2.95 15.48v.02l2.34 15.88v.02l1.72 16.3v.02l1.05 16.8.36 16.82-.94.02-.36-16.8-1.05-16.77-1.7-16.28-2.34-15.86-2.95-15.47-3.53-15.1-4.13-14.8-4.7-14.47-5.3-14.2-5.86-13.97-6.46-13.74-7.07-13.52-7.68-13.3-8.33-13.12-8.98-12.93-9.68-12.75-.14-.18h1.2zm-405.67-190.4l26.15 1.1h.02l25.83 2.17h.02l25.4 3.2 24.87 4.2h.02l24.22 5.15h.02l23.5 6.04h.02l22.72 6.85h.02l21.86 7.6v.02l20.97 8.3 20.04 8.92h.02l19.08 9.47h.02l18.13 9.97 17.18 10.4v.02h.02l16.23 10.78h.02v.02l15.32 11.12h.02v.02l14.4 11.43h.02l13.57 11.7v.02l12.72 11.95h.02l11.9 12.18h.02l3.5 3.88h-1.3l-2.9-3.23-11.9-12.15-12.7-11.93-13.55-11.7-14.4-11.4-15.3-11.12-16.22-10.77-17.16-10.4-18.1-9.95-19.07-9.45-20-8.9-20.96-8.3-21.85-7.6-22.7-6.84-23.47-6.02-24.2-5.14-24.85-4.2-25.37-3.2-25.8-2.17-26.13-1.1-3.7-.03.02-.95z" stroke="#3a414a" stroke-width=".05" fill="#3a414a"/><path d="M4250.48-12321h-.95l-.02-.5.96-.03z" fill="#3a414a"/><path stroke="#3a414a" stroke-width=".05" fill="#3a414a"/><path d="M3779.66-12741.83l-15.88 8.94 6.72.1v.94l-6.73-.07 15.7 9.27-.5.82-17.92-10.6 18.14-10.22z" stroke="#3a414a" stroke-width=".05" fill="#3a414a"/><g><use xlink:href="#z" transform="matrix(1,0,0,1,4063.850384489511,-12576.239671179845) translate(0 17.22222222222222)"/><use xlink:href="#A" transform="matrix(1,0,0,1,4063.850384489511,-12576.239671179845) translate(45.06944444444445 17.22222222222222)"/><use xlink:href="#B" transform="matrix(1,0,0,1,4063.850384489511,-12576.239671179845) translate(72.34375 17.22222222222222)"/><use xlink:href="#C" transform="matrix(1,0,0,1,4063.850384489511,-12576.239671179845) translate(117.56076388888889 17.22222222222222)"/><use xlink:href="#u" transform="matrix(1,0,0,1,4063.850384489511,-12576.239671179845) translate(153.37673611111111 17.22222222222222)"/></g><path d="M1861-11699h10m9.97 0h19.98m10 0h19.96m10 0h19.97m10 0h19.96m10 0h19.97m9.98 0h19.98m9.98 0h19.98m10 0h19.96m10 0h19.96m10 0h19.96m10 0h19.96m10 0h19.97m9.98 0h20m9.97 0h19.98m10 0h19.96m10 0h19.97m10 0h19.96m10 0h19.97m9.98 0h19.98m9.98 0h19.98m10 0h19.96m10 0h19.96m10 0h19.96m10 0h19.96m10 0h19.97m9.98 0h20m9.97 0h19.98m10 0h19.96m10 0h19.97m10 0h19.96m10 0h19.97m9.98 0h19.98m9.98 0h19.98m10 0h19.96m10 0h19.96m10 0h19.96m10 0h19.96m10 0h19.97m9.98 0h20m9.97 0h19.98m10 0h19.96m10 0h19.97m10 0h19.96m10 0h19.97m9.98 0h19.98m9.98 0h19.98m10 0h19.96m10 0h19.96m10 0h19.96m10 0h19.96m10 0h19.97m9.98 0h10" stroke="#000" stroke-width="2" stroke-linecap="round" fill="none"/><path d="M2478.63-11600c-21.34 0-38.63 17.3-38.63 38.63v115.87c0 21.33 17.3 38.62 38.63 38.62h262.74c21.34 0 38.63-17.3 38.63-38.62v-115.88c0-21.33-17.3-38.62-38.63-38.62z" stroke="#000" stroke-width="2" fill="#fff"/><path d="M2440-11556h340" stroke="#000" stroke-width="2" fill="none"/><g><use xlink:href="#T" transform="matrix(1,0,0,1,2508,-11600) translate(53.64930555555556 30.08376736111111)"/></g><g><use xlink:href="#c" transform="matrix(1,0,0,1,2474,-11540) translate(27.6720920138889 50.950954861111114)"/><use xlink:href="#d" transform="matrix(1,0,0,1,2474,-11540) translate(88.47938368055557 50.950954861111114)"/><use xlink:href="#e" transform="matrix(1,0,0,1,2474,-11540) translate(102.73719618055556 50.950954861111114)"/><use xlink:href="#U" transform="matrix(1,0,0,1,2474,-11540) translate(184.974609375 50.950954861111114)"/><use xlink:href="#V" transform="matrix(1,0,0,1,2474,-11540) translate(69.9138454861111 83.21657986111111)"/></g><path d="M2340-11580c0 11.05-8.95 20-20 20s-20-8.95-20-20 8.95-20 20-20 20 8.95 20 20z" stroke="#000" stroke-width="2"/><path d="M2341.5-11580l1.83.06 2.2.17 2.1.27 2 .36 1.93.45 1.9.55 1.83.64 1.82.72 1.82.85 1.82.96 1.84 1.1 1.9 1.24 1.93 1.44 2.03 1.7 2.16 1.97 2.36 2.38 2.64 2.96 3.14 3.92 4.3 5.97 18.18 27.14 3.15 3.9 2.63 2.98 2.34 2.38 2.17 1.97 2.03 1.68 1.95 1.44 1.88 1.24 1.84 1.1 1.82.96 1.82.84 1.83.73 1.86.64 1.88.55 1.2.28" stroke="#3a414a" stroke-linejoin="round" fill="none"/><path d="M2341.53-11580.46l-.03.95-.55-.03.05-.42-.02-.53z" stroke="#3a414a" stroke-width=".05" fill="#3a414a"/><path d="M2421.88-11515.38l16.13 11.83-18.3 8.05m18.3-8.05l-8.44-.93" stroke="#3a414a" fill="none"/><path d="M2980-12934a6 6 0 0 1 6-6h228a6 6 0 0 1 6 6v48a6 6 0 0 1-6 6h-228a6 6 0 0 1-6-6z" fill="none"/><g><use xlink:href="#W" transform="matrix(1,0,0,1,2980,-12940) translate(51.89019097222223 38.083767361111114)"/><use xlink:href="#X" transform="matrix(1,0,0,1,2980,-12940) translate(108.66102430555557 38.083767361111114)"/></g><defs><path d="M52 0l541-1490h220L1361 0h-200l-149-416H398L254 0H52zm404-582h497c-103-290-145-390-251-756-108 377-145 460-246 756" id="Y"/><path d="M763 24c-353 0-583-224-583-531v-983h190v968c0 214 149 370 393 370 243 0 391-156 391-370v-968h190v983c0 307-230 531-581 531" id="Z"/><path d="M98-1322v-168h1126v168H757V0H567v-1322H98" id="aa"/><path d="M784 20c-382 0-662-292-662-764 0-473 280-766 662-766s660 293 660 766c0 472-278 764-660 764zm0-176c266 0 475-207 475-588 0-383-209-590-475-590-268 0-477 208-477 590 0 380 209 588 477 588" id="ab"/><path d="M180 0v-1490h270l367 940c28 72 75 218 110 339 35-117 81-264 110-339l362-940h271V0h-187c2-448-5-837 7-1287-157 497-311 829-483 1287H842C666-458 514-784 354-1284c12 438 5 843 7 1284H180" id="ac"/><path d="M370-1490V0H180v-1490h190" id="ad"/><path d="M783 20c-382 0-661-292-661-764 0-473 279-766 661-766 302 0 548 182 601 489h-190c-42-204-217-313-411-313-268 0-476 208-476 590 0 381 209 588 476 588 195 0 369-110 411-313h190c-52 303-296 489-601 489" id="ae"/><g id="a"><use transform="matrix(0.010850694444444444,0,0,0.010850694444444444,0,0)" xlink:href="#Y"/><use transform="matrix(0.010850694444444444,0,0,0.010850694444444444,14.898003472222221,0)" xlink:href="#Z"/><use transform="matrix(0.010850694444444444,0,0,0.010850694444444444,31.434461805555554,0)" xlink:href="#aa"/><use transform="matrix(0.010850694444444444,0,0,0.010850694444444444,45.1171875,0)" xlink:href="#ab"/><use transform="matrix(0.010850694444444444,0,0,0.010850694444444444,62.109375,0)" xlink:href="#ac"/><use transform="matrix(0.010850694444444444,0,0,0.010850694444444444,82.18315972222223,0)" xlink:href="#Y"/><use transform="matrix(0.010850694444444444,0,0,0.010850694444444444,95.6271701388889,0)" xlink:href="#aa"/><use transform="matrix(0.010850694444444444,0,0,0.010850694444444444,109.97178819444446,0)" xlink:href="#ad"/><use transform="matrix(0.010850694444444444,0,0,0.010850694444444444,115.9396701388889,0)" xlink:href="#ae"/></g><path d="M180 0v-1490h224l606 953c40 63 108 177 176 312-27-437-7-821-13-1265h190V0h-226C860-448 622-778 356-1262c27 476 11 792 15 1262H180" id="af"/><path d="M180 0v-1490h190v1322h690V0H180" id="ag"/><g id="b"><use transform="matrix(0.010850694444444444,0,0,0.010850694444444444,0,0)" xlink:href="#ac"/><use transform="matrix(0.010850694444444444,0,0,0.010850694444444444,20.07378472222222,0)" xlink:href="#Y"/><use transform="matrix(0.010850694444444444,0,0,0.010850694444444444,35.40581597222222,0)" xlink:href="#af"/><use transform="matrix(0.010850694444444444,0,0,0.010850694444444444,52.1484375,0)" xlink:href="#Z"/><use transform="matrix(0.010850694444444444,0,0,0.010850694444444444,68.25086805555556,0)" xlink:href="#Y"/><use transform="matrix(0.010850694444444444,0,0,0.010850694444444444,83.58289930555556,0)" xlink:href="#ag"/></g><path d="M628 24c-324 0-524-230-524-574 0-343 198-582 503-582 237 0 487 146 487 559v75H286c9 234 145 362 343 362 132 0 231-58 273-172l174 48C1024-91 857 24 628 24zM287-650h624c-17-190-120-322-304-322-192 0-309 151-320 322" id="ah"/><path d="M338-670V0H158v-1118h173l1 207c72-158 192-221 342-221 226 0 378 139 378 422V0H872v-695c0-172-96-275-252-275-161 0-282 109-282 300" id="ai"/><path d="M598-1118v154H368v674c0 100 37 144 132 144 23 0 62-6 92-12L629-6c-37 13-88 20-134 20-193 0-307-107-307-290v-688H20v-154h168v-266h180v266h230" id="aj"/><path d="M158 0v-1118h174v172h12c41-113 157-188 290-188 26 0 70 2 91 3v181c-11-2-60-10-108-10-161 0-279 109-279 260V0H158" id="ak"/><path d="M140 405l46-156c120 36 205 19 263-150l32-93L54-1118h197c107 313 237 620 324 950 87-331 219-637 326-950h196L606 167c-68 178-176 259-334 259-64 0-113-12-132-21" id="al"/><g id="c"><use transform="matrix(0.010850694444444444,0,0,0.010850694444444444,0,0)" xlink:href="#ah"/><use transform="matrix(0.010850694444444444,0,0,0.010850694444444444,12.955729166666666,0)" xlink:href="#ai"/><use transform="matrix(0.010850694444444444,0,0,0.010850694444444444,26.085069444444443,0)" xlink:href="#aj"/><use transform="matrix(0.010850694444444444,0,0,0.010850694444444444,33.35503472222222,0)" xlink:href="#ak"/><use transform="matrix(0.010850694444444444,0,0,0.010850694444444444,42.06814236111111,0)" xlink:href="#al"/></g><path d="M692-1560L212 224H46l480-1784h166" id="am"/><use transform="matrix(0.010850694444444444,0,0,0.010850694444444444,0,0)" xlink:href="#am" id="d"/><path d="M158 418v-1536h174v179h20c37-59 106-193 324-193 279 0 474 222 474 576 0 356-194 580-473 580-213 0-288-135-325-197h-14v591H158zm492-555c209 0 317-186 317-421 0-232-105-413-317-413-206 0-314 166-314 413 0 249 111 421 314 421" id="an"/><path d="M537 14c-226 0-379-139-379-422v-710h180v695c0 172 97 275 253 275 160 0 281-109 281-300v-670h181V0H879v-209C806-46 684 14 537 14" id="ao"/><path d="M677 24c-213 0-288-135-325-197h-20V0H158v-1490h180v551h14c37-59 106-193 324-193 279 0 474 222 474 576 0 356-194 580-473 580zm-27-161c209 0 317-186 317-421 0-232-105-413-317-413-206 0-314 166-314 413 0 249 111 421 314 421" id="ap"/><path d="M338-1490V0H158v-1490h180" id="aq"/><path d="M158 0v-1118h180V0H158zm91-1301c-68 0-125-53-125-119s57-119 125-119c69 0 126 53 126 119s-57 119-126 119" id="ar"/><path d="M538 24C308 24 148-78 108-271l171-41c32 123 123 178 257 178 156 0 256-77 256-169 0-77-54-128-164-154l-186-44c-203-48-300-148-300-305 0-192 176-326 414-326 230 0 351 112 402 269l-163 42c-31-80-94-158-238-158-133 0-233 69-233 162 0 83 57 129 188 160l169 40c203 48 298 149 298 302 0 196-179 339-441 339" id="as"/><path d="M338-670V0H158v-1490h180v566c73-149 190-208 336-208 226 0 379 139 379 422V0H872v-695c0-172-96-275-252-275-161 0-282 109-282 300" id="at"/><g id="e"><use transform="matrix(0.010850694444444444,0,0,0.010850694444444444,0,0)" xlink:href="#an"/><use transform="matrix(0.010850694444444444,0,0,0.010850694444444444,13.606770833333332,0)" xlink:href="#ao"/><use transform="matrix(0.010850694444444444,0,0,0.010850694444444444,26.746961805555554,0)" xlink:href="#ap"/><use transform="matrix(0.010850694444444444,0,0,0.010850694444444444,40.353732638888886,0)" xlink:href="#aq"/><use transform="matrix(0.010850694444444444,0,0,0.010850694444444444,45.73567708333333,0)" xlink:href="#ar"/><use transform="matrix(0.010850694444444444,0,0,0.010850694444444444,51.11762152777778,0)" xlink:href="#as"/><use transform="matrix(0.010850694444444444,0,0,0.010850694444444444,62.84722222222221,0)" xlink:href="#at"/></g><path d="M158 0v-1118h175l1 205c55-151 181-225 313-225 147 0 245 90 285 228 53-141 190-228 352-228 194 0 352 125 352 384V0h-181v-749c0-161-105-225-225-225-151 0-243 103-243 244V0H807v-767c0-124-93-207-219-207-131 0-250 92-250 270V0H158" id="au"/><path d="M613 24c-304 0-509-231-509-576 0-350 205-580 509-580 305 0 511 230 511 580 0 345-206 576-511 576zm0-161c226 0 329-195 329-415 0-222-103-419-329-419-223 0-326 196-326 419 0 220 103 415 326 415" id="av"/><path d="M577 24c-279 0-473-224-473-580 0-354 195-576 474-576 218 0 287 134 324 193h14v-551h180V0H922v-173h-20C865-111 790 24 577 24zm27-161c203 0 314-172 314-421 0-247-108-413-314-413-212 0-317 181-317 413 0 235 108 421 317 421" id="aw"/><g id="f"><use transform="matrix(0.010850694444444444,0,0,0.010850694444444444,0,0)" xlink:href="#au"/><use transform="matrix(0.010850694444444444,0,0,0.010850694444444444,19.466145833333332,0)" xlink:href="#av"/><use transform="matrix(0.010850694444444444,0,0,0.010850694444444444,32.79079861111111,0)" xlink:href="#aw"/><use transform="matrix(0.010850694444444444,0,0,0.010850694444444444,46.39756944444444,0)" xlink:href="#ah"/></g><path d="M226-283v-166h904v166H226zm0-434v-166h904v166H226" id="ax"/><use transform="matrix(0.010850694444444444,0,0,0.010850694444444444,0,0)" xlink:href="#ax" id="g"/><g id="h"><use transform="matrix(0.010850694444444444,0,0,0.010850694444444444,0,0)" xlink:href="#ac"/><use transform="matrix(0.010850694444444444,0,0,0.010850694444444444,20.07378472222222,0)" xlink:href="#Y"/><use transform="matrix(0.010850694444444444,0,0,0.010850694444444444,35.40581597222222,0)" xlink:href="#af"/><use transform="matrix(0.010850694444444444,0,0,0.010850694444444444,52.1484375,0)" xlink:href="#Z"/><use transform="matrix(0.010850694444444444,0,0,0.010850694444444444,68.25086805555556,0)" xlink:href="#Y"/><use transform="matrix(0.010850694444444444,0,0,0.010850694444444444,83.58289930555556,0)" xlink:href="#ag"/></g><g id="i"><use transform="matrix(0.010850694444444444,0,0,0.010850694444444444,0,0)" xlink:href="#av"/><use transform="matrix(0.010850694444444444,0,0,0.010850694444444444,13.324652777777777,0)" xlink:href="#ai"/></g><g id="j"><use transform="matrix(0.010850694444444444,0,0,0.010850694444444444,0,0)" xlink:href="#an"/><use transform="matrix(0.010850694444444444,0,0,0.010850694444444444,13.606770833333332,0)" xlink:href="#av"/><use transform="matrix(0.010850694444444444,0,0,0.010850694444444444,26.931423611111104,0)" xlink:href="#aj"/></g><path d="M613 24c-304 0-509-231-509-576 0-350 205-580 509-580 216 0 392 114 453 309l-173 49c-33-115-133-197-280-197-223 0-326 196-326 419 0 220 103 415 326 415 150 0 252-85 285-206l172 49C1010-95 832 24 613 24" id="ay"/><path d="M471 26C259 26 90-98 90-318c0-256 228-303 435-329 202-27 287-16 287-108 0-139-79-219-234-219-161 0-248 86-283 164l-173-57c86-203 278-265 451-265 150 0 419 46 419 395V0H815v-152h-12C765-73 660 26 471 26zm31-159c199 0 310-134 310-271v-155c-30 35-226 55-295 64-131 17-246 59-246 186 0 116 97 176 231 176" id="az"/><path d="M611 442c-248 0-391-105-460-228l146-94c47 65 117 165 314 165 178 0 307-82 307-266v-224h-17C863-141 792-18 576-18c-268 0-472-195-472-546 0-346 197-568 476-568 216 0 288 133 326 193h17v-179h175V29c0 289-215 413-487 413zm-5-620c203 0 314-146 314-390 0-237-108-403-314-403-213 0-319 180-319 403 0 230 109 390 319 390" id="aA"/><g id="k"><use transform="matrix(0.010850694444444444,0,0,0.010850694444444444,0,0)" xlink:href="#ay"/><use transform="matrix(0.010850694444444444,0,0,0.010850694444444444,12.6953125,0)" xlink:href="#at"/><use transform="matrix(0.010850694444444444,0,0,0.010850694444444444,25.83550347222222,0)" xlink:href="#az"/><use transform="matrix(0.010850694444444444,0,0,0.010850694444444444,38.31380208333333,0)" xlink:href="#ai"/><use transform="matrix(0.010850694444444444,0,0,0.010850694444444444,51.44314236111111,0)" xlink:href="#aA"/><use transform="matrix(0.010850694444444444,0,0,0.010850694444444444,65.07161458333333,0)" xlink:href="#ah"/><use transform="matrix(0.010850694444444444,0,0,0.010850694444444444,78.02734375,0)" xlink:href="#aw"/></g><path d="M481 0L54-1118h197c107 314 236 620 325 951 87-331 217-637 324-951h197L670 0H481" id="aB"/><g id="l"><use transform="matrix(0.010850694444444444,0,0,0.010850694444444444,0,0)" xlink:href="#aB"/><use transform="matrix(0.010850694444444444,0,0,0.010850694444444444,12.38064236111111,0)" xlink:href="#az"/><use transform="matrix(0.010850694444444444,0,0,0.010850694444444444,24.85894097222222,0)" xlink:href="#aq"/><use transform="matrix(0.010850694444444444,0,0,0.010850694444444444,30.349392361111104,0)" xlink:href="#aB"/><use transform="matrix(0.010850694444444444,0,0,0.010850694444444444,42.404513888888886,0)" xlink:href="#ah"/></g><g id="m"><use transform="matrix(0.010850694444444444,0,0,0.010850694444444444,0,0)" xlink:href="#an"/><use transform="matrix(0.010850694444444444,0,0,0.010850694444444444,13.606770833333332,0)" xlink:href="#av"/><use transform="matrix(0.010850694444444444,0,0,0.010850694444444444,26.931423611111104,0)" xlink:href="#aj"/></g><path d="M180 0v-1490h908v168H370v486h669v168H370v500h727V0H180" id="aC"/><path d="M645 0H180v-1490h484c435 0 692 280 692 742 0 466-257 748-711 748zM370-168h263c363 0 539-218 539-580 0-358-176-574-521-574H370v1154" id="aD"/><g id="n"><use transform="matrix(0.010850694444444444,0,0,0.010850694444444444,0,0)" xlink:href="#Z"/><use transform="matrix(0.010850694444444444,0,0,0.010850694444444444,16.536458333333332,0)" xlink:href="#af"/><use transform="matrix(0.010850694444444444,0,0,0.010850694444444444,33.279079861111114,0)" xlink:href="#ae"/><use transform="matrix(0.010850694444444444,0,0,0.010850694444444444,49.51171875,0)" xlink:href="#ab"/><use transform="matrix(0.010850694444444444,0,0,0.010850694444444444,66.50390625,0)" xlink:href="#af"/><use transform="matrix(0.010850694444444444,0,0,0.010850694444444444,83.24652777777777,0)" xlink:href="#af"/><use transform="matrix(0.010850694444444444,0,0,0.010850694444444444,99.98914930555556,0)" xlink:href="#aC"/><use transform="matrix(0.010850694444444444,0,0,0.010850694444444444,113.34635416666666,0)" xlink:href="#ae"/><use transform="matrix(0.010850694444444444,0,0,0.010850694444444444,129.57899305555554,0)" xlink:href="#aa"/><use transform="matrix(0.010850694444444444,0,0,0.010850694444444444,143.9236111111111,0)" xlink:href="#aC"/><use transform="matrix(0.010850694444444444,0,0,0.010850694444444444,157.2808159722222,0)" xlink:href="#aD"/></g><use transform="matrix(0.010850694444444444,0,0,0.010850694444444444,0,0)" xlink:href="#ax" id="o"/><g id="p"><use transform="matrix(0.010850694444444444,0,0,0.010850694444444444,0,0)" xlink:href="#Z"/><use transform="matrix(0.010850694444444444,0,0,0.010850694444444444,16.536458333333332,0)" xlink:href="#af"/><use transform="matrix(0.010850694444444444,0,0,0.010850694444444444,33.279079861111114,0)" xlink:href="#ae"/><use transform="matrix(0.010850694444444444,0,0,0.010850694444444444,49.51171875,0)" xlink:href="#ab"/><use transform="matrix(0.010850694444444444,0,0,0.010850694444444444,66.50390625,0)" xlink:href="#af"/><use transform="matrix(0.010850694444444444,0,0,0.010850694444444444,83.24652777777777,0)" xlink:href="#af"/><use transform="matrix(0.010850694444444444,0,0,0.010850694444444444,99.98914930555556,0)" xlink:href="#aC"/><use transform="matrix(0.010850694444444444,0,0,0.010850694444444444,113.34635416666666,0)" xlink:href="#ae"/><use transform="matrix(0.010850694444444444,0,0,0.010850694444444444,129.57899305555554,0)" xlink:href="#aa"/><use transform="matrix(0.010850694444444444,0,0,0.010850694444444444,143.9236111111111,0)" xlink:href="#aC"/><use transform="matrix(0.010850694444444444,0,0,0.010850694444444444,157.2808159722222,0)" xlink:href="#aD"/></g><path d="M180 0v-1490h510c348 0 508 194 508 460 0 198-88 351-276 417L1256 0h-220L726-579c-117 2-238 0-356 1V0H180zm190-747h312c235 0 327-108 327-283 0-177-92-293-329-293H370v576" id="aE"/><g id="q"><use transform="matrix(0.010850694444444444,0,0,0.010850694444444444,0,0)" xlink:href="#af"/><use transform="matrix(0.010850694444444444,0,0,0.010850694444444444,16.74262152777778,0)" xlink:href="#ab"/><use transform="matrix(0.010850694444444444,0,0,0.010850694444444444,33.73480902777778,0)" xlink:href="#aE"/><use transform="matrix(0.010850694444444444,0,0,0.010850694444444444,48.03602430555556,0)" xlink:href="#ac"/><use transform="matrix(0.010850694444444444,0,0,0.010850694444444444,68.10980902777777,0)" xlink:href="#Y"/><use transform="matrix(0.010850694444444444,0,0,0.010850694444444444,83.44184027777777,0)" xlink:href="#ag"/></g><path d="M646 20c-332 0-524-278-524-764 0-483 194-766 524-766s524 283 524 766c0 485-191 764-524 764zm0-166c218 0 341-220 341-598 0-380-123-601-341-601s-341 222-341 601c0 378 123 598 341 598" id="aF"/><use transform="matrix(0.010850694444444444,0,0,0.010850694444444444,0,0)" xlink:href="#aF" id="r"/><path fill="#333" d="M513 14c-232 0-385-159-385-421v-711h300v659c0 139 76 222 202 222 127 0 217-86 217-234v-647h301V0H864l-4-232C797-74 683 14 513 14" id="aG"/><path fill="#333" d="M128 418v-1536h295v188h14c41-89 129-202 319-202 248 0 453 193 453 575 0 372-197 576-455 576-183 0-275-108-317-198h-9v597H128zm534-640c156 0 240-139 240-336 0-196-83-334-240-334-154 0-241 131-241 334 0 202 88 336 241 336" id="aH"/><path fill="#333" d="M628 22C291 22 81-210 81-554c0-346 210-578 547-578 336 0 547 232 547 578 0 344-211 576-547 576zm0-236c160 0 242-146 242-341 0-197-82-341-242-341S387-753 387-555c0 195 81 341 241 341" id="aI"/><path fill="#333" d="M428-647V0H128v-1118h283l4 231c63-156 176-245 348-245 232 0 384 159 384 421V0H847v-659c0-139-76-222-202-222-128 0-217 86-217 234" id="aJ"/><g id="s"><use transform="matrix(0.008680555555555556,0,0,0.008680555555555556,0,0)" xlink:href="#aG"/><use transform="matrix(0.008680555555555556,0,0,0.008680555555555556,11.067708333333334,0)" xlink:href="#aH"/><use transform="matrix(0.008680555555555556,0,0,0.008680555555555556,22.274305555555557,0)" xlink:href="#aI"/><use transform="matrix(0.008680555555555556,0,0,0.008680555555555556,33.177083333333336,0)" xlink:href="#aJ"/></g><path fill="#333" d="M128 0v-1118h290v195h12c54-169 184-238 367-200v268c-27-8-86-15-130-15-138 0-239 95-239 234V0H128" id="aK"/><path fill="#333" d="M633 22C291 22 81-200 81-553c0-345 210-579 537-579 292 0 525 185 525 567v84H378c7 183 109 277 260 277 105 0 184-46 216-132l272 51C1071-99 893 22 633 22zM380-669h474c-15-146-94-237-233-237-143 0-229 99-241 237" id="aL"/><path fill="#333" d="M628 22C291 22 81-210 81-554c0-346 210-578 547-578 265 0 455 142 497 372l-279 52c-25-116-99-188-215-188-160 0-244 139-244 341 0 200 84 341 244 341 116 0 193-74 217-195l279 51C1085-123 896 22 628 22" id="aM"/><path fill="#333" d="M128 0v-1118h300V0H128zm150-1264c-91 0-165-68-165-154 0-85 74-154 165-154 90 0 165 69 165 154 0 86-75 154-165 154" id="aN"/><path fill="#333" d="M443 0L31-1118h319c90 293 199 572 268 885 66-313 175-593 264-885h315L784 0H443" id="aO"/><path fill="#333" d="M625 442c-280 0-454-114-503-274l258-72c28 63 97 128 243 128 153 0 246-69 246-216v-206h-23C805-108 717-16 536-16 284-16 81-191 81-561c0-378 208-571 456-571 188 0 280 113 321 202h13v-188h295V-9c0 303-226 451-541 451zm5-686c153 0 240-119 240-319 0-198-86-329-240-329-158 0-241 137-241 329 0 195 85 319 241 319" id="aP"/><g id="t"><use transform="matrix(0.008680555555555556,0,0,0.008680555555555556,0,0)" xlink:href="#aK"/><use transform="matrix(0.008680555555555556,0,0,0.008680555555555556,6.805555555555556,0)" xlink:href="#aL"/><use transform="matrix(0.008680555555555556,0,0,0.008680555555555556,17.395833333333336,0)" xlink:href="#aM"/><use transform="matrix(0.008680555555555556,0,0,0.008680555555555556,27.85590277777778,0)" xlink:href="#aL"/><use transform="matrix(0.008680555555555556,0,0,0.008680555555555556,38.44618055555556,0)" xlink:href="#aN"/><use transform="matrix(0.008680555555555556,0,0,0.008680555555555556,43.26388888888889,0)" xlink:href="#aO"/><use transform="matrix(0.008680555555555556,0,0,0.008680555555555556,53.923611111111114,0)" xlink:href="#aN"/><use transform="matrix(0.008680555555555556,0,0,0.008680555555555556,58.74131944444445,0)" xlink:href="#aJ"/><use transform="matrix(0.008680555555555556,0,0,0.008680555555555556,69.80902777777779,0)" xlink:href="#aP"/></g><path fill="#333" d="M428-1490V0H128v-1490h300" id="aQ"/><g id="u"><use transform="matrix(0.008680555555555556,0,0,0.008680555555555556,0,0)" xlink:href="#aQ"/><use transform="matrix(0.008680555555555556,0,0,0.008680555555555556,4.817708333333334,0)" xlink:href="#aL"/><use transform="matrix(0.008680555555555556,0,0,0.008680555555555556,15.086805555555555,0)" xlink:href="#aO"/><use transform="matrix(0.008680555555555556,0,0,0.008680555555555556,25.425347222222225,0)" xlink:href="#aL"/><use transform="matrix(0.008680555555555556,0,0,0.008680555555555556,36.015625,0)" xlink:href="#aQ"/></g><g id="v"><use transform="matrix(0.008680555555555556,0,0,0.008680555555555556,0,0)" xlink:href="#aI"/><use transform="matrix(0.008680555555555556,0,0,0.008680555555555556,10.902777777777779,0)" xlink:href="#aJ"/></g><path fill="#333" d="M754 19C571 19 479-89 437-179h-14V0H128v-1490h300v560h9c41-89 129-202 319-202 248 0 453 193 453 575 0 372-197 576-455 576zm-92-241c156 0 240-139 240-336 0-196-83-334-240-334-154 0-241 131-241 334 0 202 88 336 241 336" id="aR"/><path fill="#333" d="M683-1118v229H474v562c0 71 29 104 102 104 23 0 73-7 95-13l43 225C647 9 580 16 520 16 296 16 174-96 174-301v-588H20v-229h154v-266h300v266h209" id="aS"/><g id="w"><use transform="matrix(0.008680555555555556,0,0,0.008680555555555556,0,0)" xlink:href="#aR"/><use transform="matrix(0.008680555555555556,0,0,0.008680555555555556,11.206597222222223,0)" xlink:href="#aS"/><use transform="matrix(0.008680555555555556,0,0,0.008680555555555556,17.71701388888889,0)" xlink:href="#aJ"/></g><path fill="#333" d="M197-230v-252h997v252H197zm0-479v-251h997v251H197" id="aT"/><use transform="matrix(0.008680555555555556,0,0,0.008680555555555556,0,0)" xlink:href="#aT" id="x"/><g id="y"><use transform="matrix(0.008680555555555556,0,0,0.008680555555555556,0,0)" xlink:href="#aS"/><use transform="matrix(0.008680555555555556,0,0,0.008680555555555556,6.510416666666667,0)" xlink:href="#aK"/><use transform="matrix(0.008680555555555556,0,0,0.008680555555555556,13.75,0)" xlink:href="#aG"/><use transform="matrix(0.008680555555555556,0,0,0.008680555555555556,24.817708333333336,0)" xlink:href="#aL"/></g><path fill="#333" d="M440 22C227 22 68-92 68-313c0-250 202-322 422-343 195-21 271-24 271-105 0-95-63-149-175-149-116 0-187 57-211 129l-275-46c57-194 237-305 487-305 240 0 474 108 474 379V0H777v-155h-10C713-51 605 22 440 22zm85-211c140 0 238-93 238-211v-121c-37 26-156 42-222 51-111 16-185 59-185 149 0 87 70 132 169 132" id="aU"/><path fill="#333" d="M750-1118v229H516V0H217v-889H20v-229h197v-86c0-238 156-356 363-356 94 0 178 20 215 31l-54 226c-25-7-61-15-100-15-123-3-131 84-125 200h234" id="aV"/><g id="z"><use transform="matrix(0.008680555555555556,0,0,0.008680555555555556,0,0)" xlink:href="#aU"/><use transform="matrix(0.008680555555555556,0,0,0.008680555555555556,10.321180555555555,0)" xlink:href="#aV"/><use transform="matrix(0.008680555555555556,0,0,0.008680555555555556,16.692708333333332,0)" xlink:href="#aS"/><use transform="matrix(0.008680555555555556,0,0,0.008680555555555556,23.02951388888889,0)" xlink:href="#aL"/><use transform="matrix(0.008680555555555556,0,0,0.008680555555555556,33.61979166666667,0)" xlink:href="#aK"/></g><path fill="#333" d="M75-1237v-253h1217v253H837V0H531v-1237H75" id="aW"/><path fill="#333" d="M124 0v-220l528-495c135-132 210-216 210-336 0-133-98-215-231-215-139 0-229 88-229 233H110c0-290 214-477 523-477 315 0 525 182 525 440 0 167-80 305-385 586L548-262v11h630V0H124" id="aX"/><g id="A"><use transform="matrix(0.008680555555555556,0,0,0.008680555555555556,0,0)" xlink:href="#aW"/><use transform="matrix(0.008680555555555556,0,0,0.008680555555555556,11.866319444444445,0)" xlink:href="#aX"/></g><path fill="#333" d="M128 0v-1118h278l12 217c60-163 185-234 319-234 143 0 236 81 288 251 63-172 205-251 359-251 205 0 357 138 357 381V0h-301v-697c0-126-76-187-177-187-114 0-184 79-184 196V0H789v-705c0-109-72-179-174-179-106 0-187 74-187 208V0H128" id="aY"/><g id="B"><use transform="matrix(0.008680555555555556,0,0,0.008680555555555556,0,0)" xlink:href="#aV"/><use transform="matrix(0.008680555555555556,0,0,0.008680555555555556,7.074652777777778,0)" xlink:href="#aK"/><use transform="matrix(0.008680555555555556,0,0,0.008680555555555556,13.880208333333334,0)" xlink:href="#aI"/><use transform="matrix(0.008680555555555556,0,0,0.008680555555555556,24.782986111111118,0)" xlink:href="#aY"/></g><path fill="#333" d="M572 22C302 22 117-98 78-306l279-48c29 105 101 156 224 156 114 0 185-48 185-115 0-118-228-130-337-155-215-49-322-150-322-317 0-215 187-347 470-347 265 0 424 116 466 298l-266 47c-24-76-87-130-196-130-98 0-174 46-174 113 0 56 38 95 144 117l201 40c216 44 320 143 320 302 0 220-207 367-500 367" id="aZ"/><g id="C"><use transform="matrix(0.008680555555555556,0,0,0.008680555555555556,0,0)" xlink:href="#aQ"/><use transform="matrix(0.008680555555555556,0,0,0.008680555555555556,4.817708333333334,0)" xlink:href="#aU"/><use transform="matrix(0.008680555555555556,0,0,0.008680555555555556,15.13888888888889,0)" xlink:href="#aZ"/><use transform="matrix(0.008680555555555556,0,0,0.008680555555555556,25.095486111111118,0)" xlink:href="#aS"/></g><path d="M180 0v-1490h190c0 262 1 526-3 784 217-279 467-523 702-784h249L716-845 1319 0h-225L585-716 370-489V0H180" id="ba"/><path d="M789 20c-398 0-667-293-667-764 0-473 273-766 655-766 315 0 558 198 612 487h-196c-61-191-204-311-415-311-262 0-471 207-471 590 0 380 208 588 482 588 249 0 420-165 425-427H828v-166h572v163c0 370-256 606-611 606" id="bb"/><path d="M934 0v166H0V0h934" id="bc"/><path d="M180 0v-1490h510c348 0 508 209 508 474 0 266-160 477-507 477H370V0H180zm190-706h312c236 0 327-133 327-310 0-176-91-307-329-307H370v617" id="bd"/><g id="D"><use transform="matrix(0.010850694444444444,0,0,0.010850694444444444,0,0)" xlink:href="#aa"/><use transform="matrix(0.010850694444444444,0,0,0.010850694444444444,14.344618055555555,0)" xlink:href="#aE"/><use transform="matrix(0.010850694444444444,0,0,0.010850694444444444,28.645833333333332,0)" xlink:href="#Y"/><use transform="matrix(0.010850694444444444,0,0,0.010850694444444444,43.21831597222222,0)" xlink:href="#ae"/><use transform="matrix(0.010850694444444444,0,0,0.010850694444444444,59.45095486111112,0)" xlink:href="#ba"/><use transform="matrix(0.010850694444444444,0,0,0.010850694444444444,74.38151041666667,0)" xlink:href="#ad"/><use transform="matrix(0.010850694444444444,0,0,0.010850694444444444,80.34939236111111,0)" xlink:href="#af"/><use transform="matrix(0.010850694444444444,0,0,0.010850694444444444,97.09201388888889,0)" xlink:href="#bb"/><use transform="matrix(0.010850694444444444,0,0,0.010850694444444444,113.671875,0)" xlink:href="#bc"/><use transform="matrix(0.010850694444444444,0,0,0.010850694444444444,124.5551215277778,0)" xlink:href="#bd"/><use transform="matrix(0.010850694444444444,0,0,0.010850694444444444,138.74782986111111,0)" xlink:href="#aE"/><use transform="matrix(0.010850694444444444,0,0,0.010850694444444444,153.04904513888889,0)" xlink:href="#aC"/><use transform="matrix(0.010850694444444444,0,0,0.010850694444444444,166.40625,0)" xlink:href="#bc"/><use transform="matrix(0.010850694444444444,0,0,0.010850694444444444,176.54079861111111,0)" xlink:href="#Y"/><use transform="matrix(0.010850694444444444,0,0,0.010850694444444444,191.87282986111111,0)" xlink:href="#ag"/><use transform="matrix(0.010850694444444444,0,0,0.010850694444444444,204.43793402777777,0)" xlink:href="#Y"/><use transform="matrix(0.010850694444444444,0,0,0.010850694444444444,219.76996527777777,0)" xlink:href="#aE"/><use transform="matrix(0.010850694444444444,0,0,0.010850694444444444,234.07118055555554,0)" xlink:href="#ac"/></g><path fill="#333" d="M361 0L31-1118h315c68 295 127 523 188 845 63-317 128-551 199-845h276c71 296 131 525 196 846 57-321 119-552 186-846h319L1378 0h-305c-73-261-148-486-204-771C813-484 740-261 666 0H361" id="be"/><g id="E"><use transform="matrix(0.008680555555555556,0,0,0.008680555555555556,0,0)" xlink:href="#be"/><use transform="matrix(0.008680555555555556,0,0,0.008680555555555556,15.069444444444445,0)" xlink:href="#aU"/><use transform="matrix(0.008680555555555556,0,0,0.008680555555555556,25.390625,0)" xlink:href="#aS"/><use transform="matrix(0.008680555555555556,0,0,0.008680555555555556,31.727430555555557,0)" xlink:href="#aL"/><use transform="matrix(0.008680555555555556,0,0,0.008680555555555556,42.317708333333336,0)" xlink:href="#aK"/></g><g id="F"><use transform="matrix(0.008680555555555556,0,0,0.008680555555555556,0,0)" xlink:href="#aQ"/><use transform="matrix(0.008680555555555556,0,0,0.008680555555555556,4.817708333333334,0)" xlink:href="#aL"/><use transform="matrix(0.008680555555555556,0,0,0.008680555555555556,15.086805555555555,0)" xlink:href="#aO"/><use transform="matrix(0.008680555555555556,0,0,0.008680555555555556,25.425347222222225,0)" xlink:href="#aL"/><use transform="matrix(0.008680555555555556,0,0,0.008680555555555556,36.015625,0)" xlink:href="#aQ"/></g><path fill="#333" d="M1224-471L205-19v-287l694-281v-14L205-883v-289l1019 454v247" id="bf"/><use transform="matrix(0.008680555555555556,0,0,0.008680555555555556,0,0)" xlink:href="#bf" id="G"/><path fill="#333" d="M135 0v-1490h305v1237h643V0H135" id="bg"/><path fill="#333" d="M749-1490V0H444v-1221h-10L93-980v-279l329-231h327" id="bh"/><g id="H"><use transform="matrix(0.008680555555555556,0,0,0.008680555555555556,0,0)" xlink:href="#bg"/><use transform="matrix(0.008680555555555556,0,0,0.008680555555555556,9.244791666666668,0)" xlink:href="#bh"/></g><path fill="#333" d="M579 22C270 22 81-162 81-393c0-177 110-281 274-393-80-101-143-210-143-345 0-213 160-377 403-377 238 0 385 158 385 351 0 138-76 251-198 340l-89 64 251 289c39-73 63-161 63-258h251c0 203-53 358-134 465L1367 0h-316l-91-101C852-17 708 22 579 22zm-69-628c-83 57-139 119-136 201 0 113 86 185 214 185 72 0 145-22 210-63zm56-319c74-50 193-114 190-218 0-69-50-123-139-123s-146 55-146 138c0 67 36 129 95 203" id="bi"/><g id="I"><use transform="matrix(0.008680555555555556,0,0,0.008680555555555556,0,0)" xlink:href="#bi"/><use transform="matrix(0.008680555555555556,0,0,0.008680555555555556,11.944444444444445,0)" xlink:href="#bi"/></g><g id="J"><use transform="matrix(0.008680555555555556,0,0,0.008680555555555556,0,0)" xlink:href="#be"/><use transform="matrix(0.008680555555555556,0,0,0.008680555555555556,15.069444444444445,0)" xlink:href="#aU"/><use transform="matrix(0.008680555555555556,0,0,0.008680555555555556,25.390625,0)" xlink:href="#aS"/><use transform="matrix(0.008680555555555556,0,0,0.008680555555555556,31.727430555555557,0)" xlink:href="#aL"/><use transform="matrix(0.008680555555555556,0,0,0.008680555555555556,42.317708333333336,0)" xlink:href="#aK"/></g><g id="K"><use transform="matrix(0.008680555555555556,0,0,0.008680555555555556,0,0)" xlink:href="#aQ"/><use transform="matrix(0.008680555555555556,0,0,0.008680555555555556,4.817708333333334,0)" xlink:href="#aL"/><use transform="matrix(0.008680555555555556,0,0,0.008680555555555556,15.086805555555555,0)" xlink:href="#aO"/><use transform="matrix(0.008680555555555556,0,0,0.008680555555555556,25.425347222222225,0)" xlink:href="#aL"/><use transform="matrix(0.008680555555555556,0,0,0.008680555555555556,36.015625,0)" xlink:href="#aK"/></g><path fill="#333" d="M166-471v-247l1019-454v289L492-601v13l693 282v287" id="bj"/><use transform="matrix(0.008680555555555556,0,0,0.008680555555555556,0,0)" xlink:href="#bj" id="L"/><g id="M"><use transform="matrix(0.008680555555555556,0,0,0.008680555555555556,0,0)" xlink:href="#bg"/><use transform="matrix(0.008680555555555556,0,0,0.008680555555555556,10.052083333333334,0)" xlink:href="#aX"/></g><g id="N"><use transform="matrix(0.010850694444444444,0,0,0.010850694444444444,0,0)" xlink:href="#bd"/><use transform="matrix(0.010850694444444444,0,0,0.010850694444444444,14.192708333333332,0)" xlink:href="#aE"/><use transform="matrix(0.010850694444444444,0,0,0.010850694444444444,28.493923611111104,0)" xlink:href="#aC"/><use transform="matrix(0.010850694444444444,0,0,0.010850694444444444,41.851128472222214,0)" xlink:href="#bc"/><use transform="matrix(0.010850694444444444,0,0,0.010850694444444444,51.98567708333333,0)" xlink:href="#Y"/><use transform="matrix(0.010850694444444444,0,0,0.010850694444444444,67.31770833333333,0)" xlink:href="#ag"/><use transform="matrix(0.010850694444444444,0,0,0.010850694444444444,79.8828125,0)" xlink:href="#Y"/><use transform="matrix(0.010850694444444444,0,0,0.010850694444444444,95.21484375,0)" xlink:href="#aE"/><use transform="matrix(0.010850694444444444,0,0,0.010850694444444444,109.51605902777777,0)" xlink:href="#ac"/></g><path d="M626 20c-262 0-458-168-468-396h184c12 133 134 229 284 229 180 0 311-137 311-326 0-192-136-335-323-335-92 0-196 33-255 78l-178-22 88-738h784v167H429l-51 435h8c61-51 160-87 263-87 273 0 474 211 474 499 0 286-210 496-497 496" id="bk"/><g id="O"><use transform="matrix(0.010850694444444444,0,0,0.010850694444444444,0,0)" xlink:href="#bk"/><use transform="matrix(0.010850694444444444,0,0,0.010850694444444444,13.509114583333332,0)" xlink:href="#aF"/></g><g id="P"><use transform="matrix(0.010850694444444444,0,0,0.010850694444444444,0,0)" xlink:href="#Y"/><use transform="matrix(0.010850694444444444,0,0,0.010850694444444444,15.33203125,0)" xlink:href="#ag"/><use transform="matrix(0.010850694444444444,0,0,0.010850694444444444,27.897135416666664,0)" xlink:href="#Y"/><use transform="matrix(0.010850694444444444,0,0,0.010850694444444444,43.229166666666664,0)" xlink:href="#aE"/><use transform="matrix(0.010850694444444444,0,0,0.010850694444444444,57.53038194444444,0)" xlink:href="#ac"/></g><path d="M653-1490V0H466v-1314h-10L96-1047v-204l324-239h233" id="bl"/><g id="Q"><use transform="matrix(0.010850694444444444,0,0,0.010850694444444444,0,0)" xlink:href="#bl"/><use transform="matrix(0.010850694444444444,0,0,0.010850694444444444,9.038628472222221,0)" xlink:href="#aF"/><use transform="matrix(0.010850694444444444,0,0,0.010850694444444444,23.057725694444443,0)" xlink:href="#aF"/></g><g id="R"><use transform="matrix(0.008680555555555556,0,0,0.008680555555555556,0,0)" xlink:href="#aW"/><use transform="matrix(0.008680555555555556,0,0,0.008680555555555556,11.866319444444445,0)" xlink:href="#bh"/></g><g id="S"><use transform="matrix(0.008680555555555556,0,0,0.008680555555555556,0,0)" xlink:href="#bg"/><use transform="matrix(0.008680555555555556,0,0,0.008680555555555556,9.244791666666668,0)" xlink:href="#bh"/></g><path d="M180 0v-1490h901v168H370v510h643v168H370V0H180" id="bm"/><g id="T"><use transform="matrix(0.010850694444444444,0,0,0.010850694444444444,0,0)" xlink:href="#aD"/><use transform="matrix(0.010850694444444444,0,0,0.010850694444444444,16.03732638888889,0)" xlink:href="#aC"/><use transform="matrix(0.010850694444444444,0,0,0.010850694444444444,29.39453125,0)" xlink:href="#bm"/><use transform="matrix(0.010850694444444444,0,0,0.010850694444444444,40.494791666666664,0)" xlink:href="#Y"/><use transform="matrix(0.010850694444444444,0,0,0.010850694444444444,55.392795138888886,0)" xlink:href="#Z"/><use transform="matrix(0.010850694444444444,0,0,0.010850694444444444,71.92925347222221,0)" xlink:href="#ag"/><use transform="matrix(0.010850694444444444,0,0,0.010850694444444444,82.35677083333333,0)" xlink:href="#aa"/></g><g id="U"><use transform="matrix(0.010850694444444444,0,0,0.010850694444444444,0,0)" xlink:href="#au"/><use transform="matrix(0.010850694444444444,0,0,0.010850694444444444,19.466145833333332,0)" xlink:href="#av"/><use transform="matrix(0.010850694444444444,0,0,0.010850694444444444,32.79079861111111,0)" xlink:href="#aw"/><use transform="matrix(0.010850694444444444,0,0,0.010850694444444444,46.39756944444444,0)" xlink:href="#ah"/></g><g id="V"><use transform="matrix(0.010850694444444444,0,0,0.010850694444444444,0,0)" xlink:href="#Y"/><use transform="matrix(0.010850694444444444,0,0,0.010850694444444444,14.898003472222221,0)" xlink:href="#Z"/><use transform="matrix(0.010850694444444444,0,0,0.010850694444444444,31.434461805555554,0)" xlink:href="#aa"/><use transform="matrix(0.010850694444444444,0,0,0.010850694444444444,45.1171875,0)" xlink:href="#ab"/><use transform="matrix(0.010850694444444444,0,0,0.010850694444444444,62.109375,0)" xlink:href="#ac"/><use transform="matrix(0.010850694444444444,0,0,0.010850694444444444,82.18315972222223,0)" xlink:href="#Y"/><use transform="matrix(0.010850694444444444,0,0,0.010850694444444444,95.6271701388889,0)" xlink:href="#aa"/><use transform="matrix(0.010850694444444444,0,0,0.010850694444444444,109.97178819444446,0)" xlink:href="#ad"/><use transform="matrix(0.010850694444444444,0,0,0.010850694444444444,115.9396701388889,0)" xlink:href="#ae"/></g><path d="M158 0v-1490h180v865h22l478-493h223L593-638 1096 0H865L456-523 338-412V0H158" id="bn"/><g id="W"><use transform="matrix(0.010850694444444444,0,0,0.010850694444444444,0,0)" xlink:href="#aa"/><use transform="matrix(0.010850694444444444,0,0,0.010850694444444444,12.71701388888889,0)" xlink:href="#az"/><use transform="matrix(0.010850694444444444,0,0,0.010850694444444444,25.1953125,0)" xlink:href="#ai"/><use transform="matrix(0.010850694444444444,0,0,0.010850694444444444,38.32465277777778,0)" xlink:href="#bn"/></g><path d="M657 26c-323 0-524-166-541-416h195c15 169 171 246 346 246 202 0 356-106 356-265 5-203-294-238-475-293-239-73-380-191-380-389 0-252 224-419 512-419 294 0 499 171 508 396H992c-17-145-151-228-328-228-193 0-321 102-321 242 0 156 175 211 284 241l149 41c160 44 422 134 422 412 0 244-197 432-541 432" id="bo"/><g id="X"><use transform="matrix(0.010850694444444444,0,0,0.010850694444444444,0,0)" xlink:href="#bo"/><use transform="matrix(0.010850694444444444,0,0,0.010850694444444444,14.2578125,0)" xlink:href="#ah"/><use transform="matrix(0.010850694444444444,0,0,0.010850694444444444,27.213541666666664,0)" xlink:href="#ak"/><use transform="matrix(0.010850694444444444,0,0,0.010850694444444444,35.92664930555555,0)" xlink:href="#aB"/><use transform="matrix(0.010850694444444444,0,0,0.010850694444444444,48.41579861111111,0)" xlink:href="#ar"/><use transform="matrix(0.010850694444444444,0,0,0.010850694444444444,53.79774305555556,0)" xlink:href="#ay"/><use transform="matrix(0.010850694444444444,0,0,0.010850694444444444,66.49305555555554,0)" xlink:href="#ah"/></g></defs></g></svg>